<?xml version="1.0" encoding="UTF-8" standalone="no"?>
<!-- (c) ammap.com | SVG map of Pakistan - High -->

<svg
   version="1.1"
   id="svg1"
   sodipodi:docname="pakistanHigh.svg"
   inkscape:version="1.3.2 (091e20e, 2023-11-25, custom)"
   width="656.01727"
   height="600.16437"
   viewBox="0 0 690.5445 631.75197"
   xmlns:inkscape="http://www.inkscape.org/namespaces/inkscape"
   xmlns:sodipodi="http://sodipodi.sourceforge.net/DTD/sodipodi-0.dtd"
   xmlns="http://www.w3.org/2000/svg"
   xmlns:svg="http://www.w3.org/2000/svg"
   xmlns:amcharts="http://amcharts.com/ammap">
  <sodipodi:namedview
     id="namedview1"
     pagecolor="#505050"
     bordercolor="#eeeeee"
     borderopacity="1"
     inkscape:showpageshadow="0"
     inkscape:pageopacity="0"
     inkscape:pagecheckerboard="0"
     inkscape:deskcolor="#505050"
     inkscape:zoom="1.0916486"
     inkscape:cx="416.80079"
     inkscape:cy="288.09637"
     inkscape:window-width="1920"
     inkscape:window-height="986"
     inkscape:window-x="-11"
     inkscape:window-y="-11"
     inkscape:window-maximized="1"
     inkscape:current-layer="svg1" />
  <defs
     id="defs1">
    <style
       type="text/css"
       id="style1">
			.land
			{
				fill: #CCCCCC;
				fill-opacity: 1;
				stroke:white;
				stroke-opacity: 1;
				stroke-width:0.5;
			}
		</style>
    <amcharts:ammap
       projection="mercator"
       leftLongitude="60.896610"
       topLatitude="37.095717"
       rightLongitude="77.843840"
       bottomLatitude="23.705520" />
    <!-- All areas are listed in the line below. You can use this list in your script. -->
    <!--{id:"PK-BA"},{id:"PK-GB"},{id:"PK-IS"},{id:"PK-JK"},{id:"PK-KP"},{id:"PK-PB"},{id:"PK-SD"},{id:"PK-TA"}-->
  </defs>
  <path
     id="PK-BA"
     class="land"
     d="m 272.19768,415.39784 -1.99414,0.88672 1.72266,-0.43555 z" />
  <path
     id="path62"
     class="land"
     d="m 328.35198,394.56776 -34.68555,0.86914 -4.46484,5.95313 -6.84766,3.27539 -8.93164,7.44336 -1.15039,3.16406 1.73437,-2.88281 11.66993,-9.28125 4.28125,-1.96875 2.1289,-3.41016 1.53125,-1.25976 5.38867,-0.88086 6.73047,0.52929 22.99024,-0.94922 z" />
  <path
     id="balouchistan_suleman_pledmont"
     class="land"
     d="m 334.34416,380.25331 h -1.67578 l -5.35937,0.5957 h -4.46485 l -3.57421,-0.5957 h -4.16797 -5.35742 l -4.76368,1.48828 -3.87109,0.89258 -3.57227,0.89258 h -4.16796 l -7.74024,2.67968 -5.35937,0.89454 -5.65625,0.5957 -0.59571,-5.0625 -0.5957,-3.27539 1.78711,-0.59375 3.57226,-0.59571 3.8711,-0.29882 -0.29883,-4.76368 -0.89258,-3.57226 -2.38281,-1.48828 -3.27344,-0.59571 -4.16797,-1.48828 -1.78711,-17.86328 -2.38086,-2.38086 -3.27539,-2.97656 -2.08398,-1.49023 -3.57227,-0.59375 -2.97851,0.89257 -2.97656,2.38086 -4.46485,2.38282 h -1.48828 l -2.08398,1.48828 -1.78711,0.89257 -0.59571,2.38282 0.89258,3.27344 0.59571,1.7871 2.67968,3.2754 2.67969,4.46484 0.5957,5.95508 0.89258,7.74023 -2.08398,2.08399 0.5957,11.3125 -1.78711,3.27539 -1.18945,3.87109 -0.29883,3.86914 0.29883,2.38281 0.29687,2.08399 1.19141,3.86914 1.78516,2.67969 2.08398,1.78711 3.57422,1.78515 1.48828,1.19141 3.86914,2.38086 3.87109,-1.18946 3.875,-1.72265 1.16797,-0.70508 0.9668,-0.24414 1.99414,-0.88672 0.0742,-0.125 1.15039,-3.16406 8.93164,-7.44336 6.84766,-3.27539 4.46484,-5.95313 34.68555,-0.86914 -1.50391,-2.4082 -0.13086,-1.23047 3.39063,-1.90039 2.50976,-3.78906 1.95899,-4.6211 z"
     style="fill:#f6f4a2;fill-opacity:1" />
  <path
     id="path60"
     style="fill:#e34a4a;fill-opacity:1"
     class="land"
     d="m 334.81096,241.55018 0.21094,0.15039 1.24414,-1.24414 -1.41797,1.11328 z" />
  <path
     id="path109"
     style="fill:#e34a4a;fill-opacity:1"
     class="land"
     d="m 209.91838,301.2162 1.63282,-4.17383 -1.30469,2.67774 z" />
  <path
     id="path108"
     style="fill:#e34a4a;fill-opacity:1"
     class="land"
     d="m 211.80706,329.6537 0.0742,-0.0742 -0.99805,-0.7793 0.93359,0.81836 z" />
  <path
     id="balouchistan_west_plateau"
     style="fill:#9ea449;fill-opacity:1"
     class="land"
     d="m 332.81487,380.25331 -15.17578,-0.52734 -8.76563,0.14843 -11.43945,3.26758 -4.16016,-0.59375 -7.27929,3.11914 -10.69727,1.48633 -1.33789,-7.2793 8.91406,-1.63476 v -5.34961 l -0.59375,-3.56446 -3.56641,-2.37695 -6.5371,-1.48633 -1.78321,-17.38281 -7.42773,-7.13086 -3.56641,-0.89258 -3.56445,0.89258 -1.7832,1.78125 -5.64649,3.1211 -2.37695,-0.14844 -3.26758,2.37695 -0.89258,2.82227 1.48633,5.79492 5.34766,7.13086 1.48632,13.51953 -2.22851,1.63476 0.74219,11.88672 -2.52539,4.90235 -0.89063,4.16015 v 3.56641 l 1.33594,5.94141 1.93164,3.26953 2.67578,2.37695 2.67383,1.7832 2.9707,1.93164 2.82227,1.03907 -7.13086,1.04101 -1.93164,1.1875 -0.74219,5.20117 -3.12109,2.82227 -1.63282,4.45703 -1.93164,1.93164 -0.44531,5.79492 -0.9082,3.05469 -7.67969,11.4668 -5.17969,1.34961 -12.83398,7.43164 -1.125,-1.80274 -1.35156,-1.34961 -1.57618,-1.35156 -1.35156,-1.80078 -1.125,-1.57617 -2.02734,-2.25196 -1.34961,-1.125 -0.90039,-3.15234 0.44922,-2.25195 -1.35157,-3.82813 -2.02539,-3.37695 0.44922,-27.4707 4.72852,-3.37696 1.57617,-1.80078 -1.57617,-14.86133 2.70312,-3.37695 1.125,-1.80273 v -2.25 l -0.22461,-3.15235 -0.90039,-4.72851 -0.90039,-3.37891 -2.47656,-7.20508 0.90039,-2.02539 2.02539,-4.5039 1.57617,-2.47657 1.12696,-2.47656 1.80078,-2.70312 1.35156,-3.60157 2.02539,-2.92773 1.80078,-3.37695 1.57617,-2.70118 v -1.57617 l -0.44922,-2.02734 -2.70312,-1.35156 -2.47656,-1.57618 -5.07813,-3.38476 -1.94726,2.16211 0.58984,0.66015 -0.90039,0.97071 -10.2207,2.79883 -0.14844,0.63085 -4.77149,0.94922 -3.42968,1.89063 0.0215,-1.09961 -28.35157,8.43945 -3.58007,-1.42969 -1.70899,0.46876 -11.04101,-1.08008 -5.58008,0.41015 -1.58985,0.53125 -0.01,1 -4.59961,1.41016 -2.21093,-0.0312 -1.0586,1.20117 -2.08984,0.75 -0.92969,1.21875 0.34961,1.66016 -1.32031,1.54101 -1.74024,-0.0996 -4.83007,-2.74023 -11.7793,-2.24024 -11.220704,0.61915 -2.910156,0.90039 -7.089844,-0.0293 -24.550785,2.92969 -3.28906,-0.50977 -15.13086,-5.24023 -3.16015,-1.63086 -39.61913967,-13.0293 11.33983967,14.83008 6.96094,6.79883 -0.57032,2.91015 1.16016,2.83008 1.75,1.2207 -0.5,2.56055 2.11914,0.94922 0.32031,1.4707 0.93946,1.0586 0.041,2.15039 6.83008,10.41015 4.75977,5.72071 9.25,5.79883 2.79882,1 2.1211,-0.10938 2.67969,0.94922 2.17968,0.10156 4.66016,1.96875 6.791014,7.14063 7.71875,-0.96094 0.179688,2.98047 -1.09961,7.70117 0.839844,2.36914 1.150391,7.54102 1.380859,14.75976 -1.861328,5.41992 0.970703,1.51953 -1.980469,2.32032 0.06055,0.74023 1.480469,0.94922 2.199219,-0.20898 2.839844,1.08007 4.140625,-1.78125 4.859375,-0.35937 4.451171,2.69922 0.699219,1.74023 -2.380859,2.41016 0.03125,6.66015 0.949219,2.33008 -3.449219,1.33985 0.289062,4.55078 -1.179687,3.89844 -4.550781,0.41992 -2.539063,-0.67969 -8.009765,0.0508 -1.621094,0.58984 -0.59961,0.80079 -2.339843,0.14843 -2.039063,1.35157 -6.720698,0.72851 -1.19922,1.24024 -3.77149,0.64062 -0.38867,1.09961 0.5,0.94922 -1.00977,1.26172 -1.01171,0.0488 0.32031,1.42968 1.03125,1.11133 -0.33985,1.21875 -5.81054,-1.35937 -0.43946,3.14062 -2.32031,0.0586 -3.98047,2.01171 -3.38086,0.93946 -0.88867,0.79883 -2.61133,17.55078 -0.44921,0.69922 -3.08008,0.11132 0.0293,3.46875 0.65039,1.35157 -1.00976,1.35937 -0.9707,15.20899 -1.75,4.36132 -1.29883,0.44922 3.49023,0.54102 3.50977,1.94922 0.42969,1.46093 -1.2793,0.79883 -0.15039,2.13086 1.82031,0.33008 2.90039,-0.96094 0.67969,-1.69922 -0.29102,-0.59961 1.78125,-0.77148 7.10938,0.38086 -0.85938,-0.81055 0.0684,-0.9707 -0.81836,-0.45899 0.29883,-1.08984 1.55078,-1.17969 2.59961,-0.61132 3.20899,0.40039 2.16015,1.57031 0.41992,2.30078 -2.26953,0.67969 4.48047,0.41992 0.39063,-0.46094 -1.71094,0.0508 -0.45899,-0.63086 0.70899,-2.3789 1.66992,-1.30078 3.2207,-0.70899 -0.58007,-0.60156 0.6289,-0.91992 2.18164,-0.43946 10.119143,0.68946 8.199219,1.76172 2.890625,-0.97071 0.410156,-0.89062 1.359375,-0.16992 14.310548,2.23046 0.41992,-0.86914 -1.08984,-0.70117 0.01,-1.8789 0.70117,-1.68164 2.98828,-1.79883 4.71094,-0.72071 7.53906,1.85938 6.33008,0.65039 0.71094,-1.04883 -1.17969,-2.46094 -1.15039,0.1211 -0.66992,0.78906 -0.99024,-1.31055 1.83008,-0.75976 0.0293,-0.58985 -0.76953,-0.42968 3.31055,0.18945 1.48046,-0.75977 2.35938,0.57032 -0.13086,0.76953 -1.39844,1.32031 0.28906,0.59961 -3.06054,0.041 1.83008,1.50977 -1.09961,-0.16992 0.0508,1.67969 5.16992,0.5 0.13867,0.50976 4.66992,1.48047 1.90039,1.19922 2.8711,-0.25 0.16015,-0.70899 1.35938,-0.5996 2.29883,0.47851 1.79101,1.85156 -0.01,0.57813 -1.55078,1.2207 0.66992,0.96094 3.84961,-1.20117 -0.70898,-0.95899 -1.33008,0.13868 0.13086,-2.5293 1.79883,-1.81055 2.91015,-0.66015 5.92969,-0.25977 10.51953,0.96094 1.26172,-0.53125 0.84961,-2.21875 0.91016,-0.47071 3.75976,-0.25 1.91992,0.50977 1.67969,-0.7793 6.9707,1.59961 5.09961,-1.25976 2.20899,-1.53907 5.33984,0.17969 5.46094,-1.39062 6.81054,-0.84967 2.74023,0.32031 5.45899,2.44922 0.93945,-0.0703 0.16016,-0.57032 -1.43945,-0.80859 1.44921,-0.13086 -0.0801,-2.16992 -1.47851,-0.31055 -2.15039,0.63086 -1.75977,-1.87109 -1.21094,-0.01 -0.28906,-0.87891 -0.95117,0.33985 -2.91992,-0.38086 1.21094,-1.63867 2.54882,-0.43164 2.1211,0.78125 0.4707,0.84961 -0.66992,0.90039 0.62891,0.36914 0.48046,-0.91992 0.46875,0.25976 -0.29882,1.03125 0.45898,0.38867 1.30078,-0.24023 2.21094,0.55078 1.28906,1.01953 -0.0606,1.35156 0.9707,0.79883 -0.63085,0.7207 -0.24024,-0.28124 -0.29883,0.86132 0.51953,-0.33984 0.21094,0.96875 -0.98047,0.0215 0.0195,0.90821 4.88086,4.03125 2.58008,3.1289 0.25,1.30078 -0.50976,1.57032 -1.32032,1.69922 0.42969,1.51953 -0.41016,4.03125 -0.96093,0.82031 0.68164,1.7793 0.66992,-0.01 2.18945,-2.57031 3.79883,-2.5 2.95117,-0.41016 3.16016,-3.4707 0.1289,-2.6582 1.86133,-2.48047 2.25977,-1.50977 1.18945,-2.86133 -0.17969,-3.49023 2.45899,-4.33984 1.90039,-0.88868 0.64062,-2.63086 3.28907,-2.60937 0.49023,-2.63086 1.90039,-3.53906 0.30078,-2.74024 -0.55078,-3.10937 0.91016,-7.05078 -11.06055,-19.34961 -0.85937,-5.51953 0.63086,-3.89063 -0.73047,-4.60937 0.58984,-4.52149 -1.16016,-12.60937 0.0898,-1.94922 1.58985,-4.03125 0.5,-5.12891 2.06054,-2.36133 1.06055,-3.69922 2.13867,-1.67968 1.49024,-2.14063 0.99023,-4.66015 0.69922,-0.65039 9.49023,-1.44922 3.80079,-1.2793 2.61132,-1.57617 -3.875,1.72265 -3.87109,1.18946 -3.86914,-2.38086 -1.48828,-1.19141 -3.57422,-1.78515 -2.08398,-1.78711 -1.78516,-2.67969 -1.19141,-3.86914 -0.29687,-2.08399 -0.29883,-2.38281 0.29883,-3.86914 1.18945,-3.87109 1.78711,-3.27539 -0.5957,-11.3125 2.08398,-2.08399 -0.89258,-7.74023 -0.5957,-5.95508 -2.67969,-4.46484 -2.67968,-3.2754 -0.59571,-1.7871 -0.89258,-3.27344 0.59571,-2.38282 1.78711,-0.89257 2.08398,-1.48828 h 1.48828 l 4.46485,-2.38282 2.97656,-2.38086 2.97851,-0.89257 3.57227,0.59375 2.08398,1.49023 3.27539,2.97656 2.38086,2.38086 1.78711,17.86328 4.16797,1.48828 3.27344,0.59571 2.38281,1.48828 0.89258,3.57226 0.29883,4.76368 -3.8711,0.29882 -3.57226,0.59571 -1.78711,0.59375 0.5957,3.27539 0.59571,5.0625 5.65625,-0.5957 5.35937,-0.89454 7.74024,-2.67968 h 4.16796 l 3.57227,-0.89258 3.87109,-0.89258 4.76368,-1.48828 h 5.35742 4.16797 l 3.57421,0.5957 h 4.46485 l 5.35937,-0.5957 z" />
  <path
     id="path106"
     style="fill:#e34a4a;fill-opacity:1"
     class="land"
     d="m 342.25237,358.75917 0.69922,0.93164 0.0156,-0.0723 -0.66015,-0.89843 z" />
  <path
     id="path105"
     style="fill:#e34a4a;fill-opacity:1"
     class="land"
     d="m 340.29338,359.32557 0.375,0.63868 0.45313,-0.40625 -0.45508,0.32031 z" />
  <path
     id="path104"
     style="fill:#e34a4a;fill-opacity:1"
     class="land"
     d="m 339.19963,357.42128 -0.0176,0.0176 0.004,0.008 z" />
  <path
     id="path103"
     style="fill:#e34a4a;fill-opacity:1"
     class="land"
     d="m 337.63909,354.10292 1.84179,0.81055 0.31836,1.27539 0.0781,-0.16016 -0.33985,-1.15039 z" />
  <path
     id="path102"
     style="fill:#e34a4a;fill-opacity:1"
     class="land"
     d="m 336.39495,351.32557 -0.62891,1.95313 0.0644,0.0293 z" />
  <path
     id="path101"
     style="fill:#e34a4a;fill-opacity:1"
     class="land"
     d="m 342.70159,340.85878 -4.11329,1.27734 -0.0332,0.0488 4.08203,-1.20508 z" />
  <path
     id="path100"
     style="fill:#e34a4a;fill-opacity:1"
     class="land"
     d="m 353.76799,319.98378 -1.80469,2.13086 1.42383,-1.43555 z" />
  <path
     id="path99"
     style="fill:#e34a4a;fill-opacity:1"
     class="land"
     d="m 351.08049,318.51112 -0.0117,0.15039 1.82422,-1.56445 -0.64648,0.13281 z" />
  <path
     id="path98"
     style="fill:#e34a4a;fill-opacity:1"
     class="land"
     d="m 349.67815,315.76698 -0.0957,0.2207 1.29882,0.70703 -0.0234,-0.29492 z" />
  <path
     id="path97"
     style="fill:#e34a4a;fill-opacity:1"
     class="land"
     d="m 354.80315,300.00917 -0.0195,0.082 0.13086,0.16406 z" />
  <path
     id="path96"
     style="fill:#e34a4a;fill-opacity:1"
     class="land"
     d="m 357.28166,296.56386 -0.0703,0.10937 0.0449,-0.004 z" />
  <path
     id="path95"
     style="fill:#e34a4a;fill-opacity:1"
     class="land"
     d="m 361.32268,289.808 -0.002,0.0312 0.85156,0.56836 0.004,-0.0391 z" />
  <path
     id="path94"
     style="fill:#e34a4a;fill-opacity:1"
     class="land"
     d="m 361.40471,279.82167 0.20508,0.77734 0.008,-0.14062 z" />
  <path
     id="path93"
     style="fill:#e34a4a;fill-opacity:1"
     class="land"
     d="m 358.06487,264.45253 2.66015,-2.09961 0.7461,0.99414 -0.004,-0.13867 -0.73047,-1.04883 z" />
  <path
     id="path92"
     style="fill:#e34a4a;fill-opacity:1"
     class="land"
     d="m 351.69573,262.34901 0.82031,3.34961 -0.53906,-3.05859 z" />
  <path
     id="path91"
     style="fill:#e34a4a;fill-opacity:1"
     class="land"
     d="m 348.84221,260.35682 -0.002,0.0645 1.72851,0.76953 -0.32226,-0.33203 z" />
  <path
     id="path90"
     style="fill:#e34a4a;fill-opacity:1"
     class="land"
     d="m 347.9008,244.54628 1.68165,-1.0625 -0.1211,2.77148 0.30664,-2.55664 -0.32031,-0.38867 z" />
  <path
     id="path89"
     style="fill:#e34a4a;fill-opacity:1"
     class="land"
     d="m 346.29143,244.86659 0.46875,0.40039 0.0742,-0.0469 z" />
  <path
     id="path88"
     style="fill:#e34a4a;fill-opacity:1"
     class="land"
     d="m 345.88909,240.05018 1.14843,0.89258 0.0488,-0.12305 z" />
  <path
     id="balouchistan_west_mountains"
     style="fill:#505325;fill-opacity:1"
     class="land"
     d="m 345.41252,235.33729 -1.67187,0.12891 -4.04297,0.65234 -1.52148,2.83985 -1.91016,1.49804 -1.24414,1.24414 -0.21094,-0.15039 -1.08398,-0.58007 -7.33985,0.27929 -3.53906,3.58008 -1.30078,0.64063 -3.08008,6.56836 -3.33984,2.40039 -0.41016,1.06054 -2.7793,-0.85937 -1.25,1.84961 -2.65039,0.33007 -1.67968,-0.57031 -1.22071,-2.31054 -2.18945,-1.60938 -0.58984,-3.31055 -2.69141,-0.3789 -2.39844,-2.25 -5.30078,2.92968 -0.43945,0.26954 -5.23047,0.0195 -1.38086,-1.2793 0.32031,-0.73047 -3.16992,-0.58984 -0.33008,-0.89063 -2.33008,3.68164 -0.58007,0.93946 -1.5586,2.50976 -3.24023,2.12891 -4.21094,0.96094 -5.08984,4.68945 -4.69922,0.041 -0.50977,-1.33007 -1.59179,0.19922 1.59179,2.63085 0.0996,1.96876 1.40039,1.18164 4.13867,-0.64063 1.17969,0.66992 0.72071,1.94922 -1.05079,1.31055 -2.14843,0.33008 -3.35157,1.9707 -1.76953,0.14844 -3.96875,1.53125 1.33008,0.46875 -0.36133,0.16992 -7.42968,1.91016 -5.64063,-1.25 -2.17969,-0.20899 -1.58008,0.5 -1.83984,-1.39062 1.08008,-2.36915 -1.37891,-0.29101 0.25,-0.82031 -4.29101,0.6914 -2.59961,1.43946 -1.63086,2.31054 -2.41992,0.0488 0.40039,0.91016 -1.69922,5.83008 -1.64063,1.11132 -0.84961,1.97852 -1.51953,1.46094 -5.28125,1.11914 v 0.64062 l 0.99024,0.0801 -2.08008,2.94922 -1.5,0.67969 -1.17969,2.35156 0.99024,1.35937 -1.15625,2.37305 -1.63282,4.17383 -0.70117,3.19336 0.17969,0.67969 2.50976,1.25 0.48047,0.99023 -0.77929,0.87891 0.91992,0.80078 -1.03125,2.11914 -0.14844,4.06055 -2.04101,5.36132 0.25,1.25977 -1.74024,1.41016 -0.76953,2.20898 3.83594,3.37109 0.99804,0.7793 -0.0742,0.0742 -0.16992,0.57617 -1.23242,1.36719 5.07813,3.38476 2.47656,1.57618 2.70312,1.35156 0.44922,2.02734 v 1.57617 l -1.57617,2.70118 -1.80078,3.37695 -2.02539,2.92773 -1.35156,3.60157 -1.80079,2.70312 -1.12695,2.47656 -1.57617,2.47657 -2.02539,4.5039 -0.90039,2.02539 2.47656,7.20508 0.90039,3.37891 0.90039,4.72851 0.22461,3.15235 v 2.25 l -1.125,1.80273 -2.70312,3.37695 1.57617,14.86133 -1.57617,1.80078 -4.72852,3.37696 -0.44922,27.4707 2.02539,3.37695 1.35157,3.82813 -0.44922,2.25195 0.90039,3.15234 1.34961,1.125 2.02734,2.25196 1.125,1.57617 1.35156,1.80078 1.57617,1.35156 1.35157,1.34961 1.125,1.80274 12.83398,-7.43164 5.17969,-1.34961 7.67969,-11.4668 0.9082,-3.05469 0.44531,-5.79492 1.93164,-1.93164 1.63282,-4.45703 3.12109,-2.82227 0.74219,-5.20117 1.93164,-1.1875 7.13086,-1.04101 -2.82227,-1.03907 -2.9707,-1.93164 -2.67383,-1.7832 -2.67578,-2.37695 -1.93164,-3.26953 -1.33594,-5.94141 v -3.56641 l 0.89063,-4.16015 2.52539,-4.90235 -0.74219,-11.88672 2.22851,-1.63476 -1.48632,-13.51953 -5.34766,-7.13086 -1.48633,-5.79492 0.89258,-2.82227 3.26758,-2.37695 2.37695,0.14844 5.64649,-3.1211 1.7832,-1.78125 3.56445,-0.89258 3.56641,0.89258 7.42773,7.13086 1.78321,17.38281 6.5371,1.48633 3.56641,2.37695 0.59375,3.56446 v 5.34961 l -8.91406,1.63476 1.33789,7.2793 10.69727,-1.48633 7.27929,-3.11914 4.16016,0.59375 11.43945,-3.26758 8.76563,-0.14843 15.17578,0.52734 h 1.52929 l -1.0371,-1.625 0.33984,-2.91992 2.80078,-2.58985 2.50977,-3.89843 2.27929,-1.29102 1.71485,-8.23828 -0.69922,-0.93164 -1.13086,0.79883 -0.45313,0.40625 -0.375,-0.63868 -1.17578,-1.73632 0.0684,-0.14258 -0.004,-0.008 0.0176,-0.0176 0.59961,-1.23242 -0.31836,-1.27539 -1.84179,-0.81055 -1.82227,-0.74414 0.0137,-0.0508 -0.0644,-0.0293 0.62891,-1.95313 0.74218,-2.60546 -0.0605,-4.94141 1.1914,-1.50977 0.28711,-0.084 0.0332,-0.0488 4.11329,-1.27734 1.16601,-2.16992 2.41992,-1.66016 4.90039,-10.96875 -0.0215,-3.14063 0.79687,-0.80468 1.80469,-2.13086 0.67969,-1.24414 -0.0215,-1.25977 -1.19922,-0.45117 -0.33399,0.0684 -1.82422,1.56445 0.0117,-0.15039 -0.0527,0.0586 -0.14649,-1.875 -1.29882,-0.70703 0.0957,-0.2207 -0.0703,-0.0371 1.29882,-3.10156 0.16993,-3.25977 4.46093,-7.74023 -0.62304,-1.37305 -0.13086,-0.16406 0.0195,-0.082 -0.12695,-0.2793 0.33007,-2.27148 0.47071,-0.65821 1.73437,-0.12695 0.0703,-0.10937 0.36524,-1.45508 1.51953,-0.16992 0.41016,-2.62891 2.48047,-0.46094 0.11523,-1.4414 -0.85156,-0.56836 0.002,-0.0312 -0.13477,-0.0879 -0.0508,-0.66016 0.47266,-8.46094 -0.20508,-0.77734 -0.75781,-2.27149 1,-6.39062 -0.17578,-7.8125 -0.7461,-0.99414 -2.66015,2.09961 -0.15821,0.13672 -2.77929,0.31054 -1.15039,3.60938 -0.85938,0.60937 -0.60156,-3.41992 -0.82031,-3.34961 -1.12696,-1.1582 -1.72851,-0.76953 0.002,-0.0645 -0.10547,-0.0371 0.21094,-9.79101 0.51367,-4.27344 0.1211,-2.77148 -1.68165,1.0625 -0.94335,0.7539 -0.12305,-0.0801 -0.0742,0.0469 -0.46875,-0.40039 -0.625,-0.4082 1.37109,-3.51563 -1.14843,-0.89258 -1.57227,-1.01171 z" />
  <path
     id="path86"
     style="fill:#e34a4a;fill-opacity:1"
     class="land"
     d="m 345.45745,235.18886 -1.7168,0.27734 1.67187,-0.12891 z" />
  <path
     id="gilgit_north_mountain"
     title="Gilgit-Baltistan"
     class="land"
     d="m 535.98717,3.7392745 1.05,-0.18 2.42,-1.77 0.76,3.59 2.75,2.58 3.98,-3.71 1.58,0.29 3.12,-0.7 0.75,1.5 2.75,1.51 2.38,-0.38 3.98,1.09 0.32,0.39 -0.82,1.18 1.1,1.5700005 0.22,5.09 1.22,2.41 0.54,0.25 1.19,-0.71 1.23,0.41 -0.16,-1.52 0.75,-0.59 4.1,-0.11 2.99,1.08 2.3,1.58 5.02,4.47 0.54,3.42 1.91,2.44 1.67,4.26 -0.01,0.95 -1.63,2.48 0.2,2.11 0.84,0.21 1.77,2.95 -1.91,0.29 -0.18,1.7 0.68,0.9 -2.06,0.33 -0.16,0.78 -0.97,0.45 0.37,3.08 2.14,2.44 3.49,0.17 2.72,4.12 0.5,4.49 1.81,-0.83 4.91,0.83 1.73,-1.78 2.14,0.01 1.03,-1.05 1.18,0.26 2.37,-1.45 0.9,1.18 -0.49,3.52 0.7,1.62 2.71,1.27 3.34,3.98 3.86,0.14 3.92,3.07 3.99,0.33 1.45,1.56 3.58,1.81 4.86,-0.12 3.44,2.94 5.21,-1.29 2.69,0.9 3.49,-0.17 3.94,-1.73 1.76,0.76 -0.74,-0.02 -6.71,6.35 -19.1,14.72 -3.42,1.44 -1.94,-0.68 -0.8,4.669995 -1.05,0.17 -3.88,-1.73 -2.28,1.74 -2.39,0.41 -0.23,4.06 -2.38,3.78 -4.64,0.06 -3.39,-1.69 -3.41,2.74 -2.7,0.2 -2.17,2.21 -3.95,1.92 -1.4,-0.15 -1.83,-1.39 -1.47,0.28 -1.73,1.89 -1.76,-0.06 -1.07,1.23 -2.92,1.42 -3.63,2.75 -5.17,-1.07 -5.84,-0.22 v 0 l -1.1,-1.58 -1.55,-0.63 -1.63,-2.49 -0.37,-1.68 0.56,-4.81 -0.45,-1.39 -2.37,-2.23 -1.07,-2.22 -0.5,-0.03 -1.42,2.27 -0.72,0.21 -0.45,-0.77 -4.37,3.46 -2.11,-3.04 -4.13,-1.25 -2.39,-2.12 -1.26,-0.34 -0.71,1.24 0.1,-4.069995 0.82,-2.13 -4.22,-2.37 -2.61,-2.73 -4.01,2.02 -1.78,1.56 -1.6,-0.26 -1.03,-1.44 -3.42,-0.98 -4.09,-0.32 -3.88,0.85 v 0 l -1.79,-1.25 -1.88,0.37 -0.9,-1.23 -2.05,-0.65 -1.54,-1.23 -2.55,0.07 -1.92,-1.41 -2.84,0.77 -1.07,-3.8 0.02,-3.86 0.6,-1.74 1.78,-1.21 1.77,-2.74 -1.02,-0.87 -14.15,-2.4 -5.16,-1.92 -5.61,-4.51 -0.94,-2.42 0.48,-3.73 -1.22,-1.03 -1.12,-0.12 -3.38,1.37 -5.84,-1.05 -5.98,1.79 -3.7,-1.31 -1,-1.67 -1.41,-0.91 2.1,-5.11 -1.87,-3.95 0.97,-2.58 -0.13,-2.76 0.8,-1.88 1.8,-1.18 2.68,0.11 1.25,-1.86 5.48,-3.46 0.94,-3.7 3.27,-0.87 0.17,-1.31 2.76,-1.87 1.45,-3.25 -0.96,-2.95 0.46,-1.16 1.77,-0.28 1.99,-1.26 3.5,0.56 4.17,-1.68 2,-0.26 2.93,1.21 3.1,-0.12 0.89,1.04 2.87,0.22 1.58,-0.84 1.37,0.33 1.2,-0.38 3.1,0.65 0.59,-1.95 -0.88,-2.07 -1.65,-0.57 -0.65,-1.23 -3.27,-0.87 -1.37,-2.07 v 0 l -0.73,-0.6800005 0.8,-0.35 1.64,-0.07 1.1,0.58 4.12,-0.4 7.26,3.0000005 3.56,0.24 1.25,-3.2800005 3.88,0.45 6.5,-4.61 3.75,-0.14 0.74,1.63 0.85,0.24 0.51,-3.58 1.53,-0.75 0.33,-1.87999998 2.45,-0.29 0.85,2.26999998 z"
     style="fill:#e59b3a;fill-opacity:1" />
  <path
     id="islamabad_barani_land"
     title="Islamabad"
     class="land"
     d="m 468.98717,158.17927 3.87,-1.97 1.7,0.7 3.42,-0.39 1.23,-0.96 1.77,-0.37 2.25,-2.79 v 0 l -0.02,4.22 0.91,3.04 2.06,1.02 2.14,5.08 0.65,6.24 -0.45,0.8 -6.43,2.02 -6.17,-1.23 -2.39,-2.9 0.17,-2.83 -0.6,-4.4 -0.73,-1.74 -1.74,2.62 -1.37,0.12 z"
     style="fill:#a85d31;fill-opacity:1" />
  <path
     id="AJK"
     title="Azad Kashmir"
     class="land"
     d="m 512.17717,94.149275 3.88,-0.85 4.09,0.32 3.42,0.98 1.03,1.44 1.6,0.26 1.78,-1.56 4.01,-2.02 2.61,2.73 4.22,2.37 -0.82,2.13 -0.1,4.069995 0.71,-1.24 1.26,0.34 2.39,2.12 4.13,1.25 2.11,3.04 4.37,-3.46 0.45,0.77 0.72,-0.21 1.42,-2.27 0.5,0.03 1.07,2.22 2.37,2.23 0.45,1.39 -0.56,4.81 0.37,1.68 1.63,2.49 1.55,0.63 1.1,1.58 v 0 l -4.41,-0.88 -3.43,-2.28 0.16,-1.34 -0.63,-0.36 -4.16,-0.71 -4.78,0.98 -4.18,-1.95 -2.9,0.26 -4.16,-0.52 -2.2,-0.56 -3.52,-3.25 -7.92,-1.57 -1.32,0.65 -1.32,-0.5 -1.06,1.5 -2.97,1.49 -2.37,2.12 -3.58,0.29 -1.4,-1.16 -2.04,0.62 -1.27,2.37 0.8,3.41 -2.04,1.23 -0.33,1.48 0.46,0.9 -4.71,3.71 -0.53,2.65 0.39,0.46 1.32,-0.33 1.33,0.86 2.23,-1 2.97,4.43 0.01,2.47 -2.3,3.24 -1.21,3.12 -0.1,1.16 0.58,0.8 4.17,0.48 4.55,-1.52 1.46,0.76 2.06,0.01 1.32,1.15 0.48,4.14 -1.6,2.67 -2.96,1.72 -3,0.46 -4.23,4.62 2.79,6.74 0.98,0.44 1.62,-0.24 3.19,4.09 0.34,1.21 -0.63,5.02 -2.62,3.51 -3.2,0.54 -0.23,2.78 3.77,1.56 2.49,2.63 1.13,2.94 1.92,-0.25 3.67,1.49 0.13,1.52 -1.36,2.91 3.71,0.72 1.85,5.14 v 0 l -2.59,1.04 -1.11,-0.18 -1.41,-1.94 -12.64,-6.25 -3.16,-3.78 -1.58,-0.05 -2.88,1.21 -1.24,-0.67 -0.91,-1.36 -4.72,-1.91 -0.06,-1.54 1.36,-1.34 -0.05,-1.75 -1.41,-0.96 -0.72,-2.38 0.38,-0.72 -0.62,-1.46 0.3,-0.83 -0.87,-0.27 -0.54,-1.53 1.03,-3.08 1.14,-0.95 -0.71,-1.49 0.12,-0.96 0.78,-0.63 -0.18,-1.96 -2.25,-2.56 0.2,-1.86 0.96,-1.58 -0.24,-2.24 -1,-1.94 0.73,-4.32 -2.15,-4.36 v 0 l -0.8,-2.33 -1.73,-11.59 -1.95,-1.9 -0.58,-1.93 1.68,-9.23 0.85,-0.79 4.53,-0.74 1.67,1.12 0.63,-0.14 1.28,-3.69 -0.41,-2.28 1.54,-1.42 0.88,-2.37 4.16,-2.42 2.86,0.01 2.91,-1.91 2.66,-4.14 0.16,-1.9 1.14,-1.049995 -0.9,-1.98 0.14,-1.39 z"
     style="fill:#000000;fill-opacity:0.977273" />
  <path
     id="PK-KP"
     style="fill:#f3a5e3;fill-opacity:1"
     class="land"
     d="m 474.8383,156.87831 -1.79687,-1.19922 -3.26172,2.09571 3.07813,-1.56641 1.69922,0.70117 z" />
  <path
     id="path156"
     style="fill:#f3a5e3;fill-opacity:1"
     class="land"
     d="m 486.98088,149.61464 -2,-0.59961 -1.11132,1.38867 0.27734,1.38672 -0.27149,0.31836 0.95118,-0.42969 -0.70899,-1.27929 0.23047,-0.54102 0.94922,-0.46875 1.57031,0.31836 z" />
  <path
     id="path155"
     style="fill:#f3a5e3;fill-opacity:1"
     class="land"
     d="m 488.7426,146.78652 0.125,0.83984 -0.35937,0.7207 0.59961,-0.49804 z" />
  <path
     id="path154"
     style="fill:#f3a5e3;fill-opacity:1"
     class="land"
     d="m 485.43596,132.81777 1.1836,1.39843 -0.043,-0.28711 z" />
  <path
     id="path153"
     style="fill:#f3a5e3;fill-opacity:1"
     class="land"
     d="m 487.91643,119.86074 h -2.10352 l -1.94335,11.10546 0.67968,0.80274 -0.50195,-1.66992 1.67969,-9.23047 0.84961,-0.78906 z" />
  <path
     id="path152"
     style="fill:#f3a5e3;fill-opacity:1"
     class="land"
     d="m 493.56682,119.86074 h -1.68164 l 0.89258,0.59765 0.6289,-0.13867 z" />
  <path
     id="path151"
     style="fill:#f3a5e3;fill-opacity:1"
     class="land"
     d="m 494.35198,114.76308 -0.7461,4.98437 1.08203,-3.11914 z" />
  <path
     id="path150"
     style="fill:#f3a5e3;fill-opacity:1"
     class="land"
     d="m 496.33049,111.55019 -1.73633,2.50781 1.22266,-1.12891 z" />
  <path
     id="path149"
     style="fill:#f3a5e3;fill-opacity:1"
     class="land"
     d="m 500.78557,108.18105 -0.25586,0.0176 -1.19726,0.83007 z" />
  <path
     id="path148"
     style="fill:#f3a5e3;fill-opacity:1"
     class="land"
     d="m 503.99456,107.96816 -2.61133,0.17383 2.33398,0.008 z" />
  <path
     id="path147"
     style="fill:#f3a5e3;fill-opacity:1"
     class="land"
     d="m 507.90276,104.25527 -2.36133,2.69726 1.08594,-0.71289 z" />
  <path
     id="path146"
     style="fill:#f3a5e3;fill-opacity:1"
     class="land"
     d="m 509.38909,100.8998 -0.63477,2.02929 0.5332,-0.83007 z" />
  <path
     id="path145"
     style="fill:#f3a5e3;fill-opacity:1"
     class="land"
     d="m 509.97112,97.794329 v 1.242187 l -0.29883,0.955079 0.91406,-0.841797 z" />
  <path
     id="path144"
     style="fill:#f3a5e3;fill-opacity:1"
     class="land"
     d="m 496.75627,89.575579 0.16407,0.574219 1.98046,-1.154297 z" />
  <path
     id="kpk_wet_mountain"
     style="fill:#7ef0f0;fill-opacity:1"
     class="land"
     d="m 496.32268,88.22597 -41.88477,18.58398 -10.55078,8.88477 -9.99609,15.54883 14.7168,9.71875 14.16015,1.11133 5.83008,6.38671 0.55273,9.63477 0.62891,-0.32031 3.26172,-2.09571 1.79687,1.19922 3.13868,-0.35937 1.23047,-0.95899 1.76953,-0.37109 2.25,-2.78906 0.64843,-0.29102 0.27149,-0.31836 -0.27734,-1.38672 1.11132,-1.38867 2,0.59961 1.52735,-1.26758 0.35937,-0.7207 -0.125,-0.83984 -0.43554,-1.26758 -1.6875,-11.30274 -1.1836,-1.39843 -0.80859,-0.78907 -0.0781,-0.25976 -0.67968,-0.80274 1.94335,-11.10546 h 2.10352 l 3.19141,-0.52149 0.77734,0.52149 h 1.68164 l 0.0391,-0.11329 0.7461,-4.98437 -0.0742,-0.41406 0.3164,-0.29102 1.73633,-2.50781 0.36719,-0.99024 2.63477,-1.53125 1.19726,-0.83007 0.25586,-0.0176 0.0723,-0.041 0.52539,0.002 2.61133,-0.17383 1.54687,-1.01562 2.36133,-2.69727 0.85156,-1.32617 0.63477,-2.0293 0.0586,-0.70117 0.22461,-0.207029 0.29883,-0.955078 v -1.242187 l -0.28321,-0.625 0.13868,-1.390625 2.34961,-1.628907 -1.78907,-1.25 -1.51172,0.296875 -0.0156,0.0078 -0.004,-0.0039 -0.34961,0.06836 -0.89843,-1.230469 -2.05078,-0.648437 -1.53907,-1.230469 -2.55078,0.07031 -1.91992,-1.410156 -0.64649,0.175781 -1.98046,1.154297 -0.16407,-0.574219 -0.0488,0.01367 z" />
  <path
     id="kpk_north_mountain_2"
     style="fill:#e59b3a;fill-opacity:1"
     class="land"
     d="m 494.16643,10.108783 -5.76953,0.710937 -2.54883,-0.361328 -4.81055,1.490234 -5.15039,-1.21875 -3.84961,0.189453 -7.9707,1.539063 -9.70898,-0.359375 -3.33985,1.230469 -1.9414,2.179687 -3.25,0.05078 -0.8086,0.708985 -2.06054,0.121094 -1.33008,0.689453 -2.3711,-0.410157 -1.71875,2.88086 0.61914,1.388672 -4.25,0.769531 -0.24023,2.460937 -1.44922,0.08008 -1.79101,1.339844 -3,0.330078 -1.01954,2.660157 -2.98046,-0.0098 -0.51954,3.039063 1.66993,0.611328 -0.16993,1.429687 -2.3789,-0.06055 -2.75977,-2.279297 -2.80078,-1.28125 -0.0508,1.871094 -0.94922,1.509766 -1.99023,1.519531 1.38086,1.121094 0.30859,1.228515 -5.93945,3 -0.64063,2.179688 -2.23828,1.080078 -1.33008,1.660156 -1.55078,0.271485 -1.81055,1.689453 -0.0996,1.019531 -1.51954,1.660156 0.7793,1.699219 2.90039,1.75 0.56055,0.910156 1.34961,-0.25 0.79883,0.650391 0.5,2.349609 2.90039,2.53125 0.63086,2.119141 0.85937,0.769531 -0.91992,1.371094 2.55078,1.699219 0.60938,1.451172 -1.99024,3.96875 3.56055,1.371093 1.09961,1.179688 -0.99024,2.490234 1.79102,2.589844 0.17969,1.169922 -4.04102,5.669922 2.74023,3.220703 1.91016,0.849609 0.0898,0.888672 -2.77929,3.150391 -3.16016,2.320312 0.66992,2.199218 1.35938,0.771485 -1.04883,0.269531 -1.25,2.550779 2.41016,2.67969 2.33984,4.79883 4.25977,0.75976 1.16015,0.72071 0.32031,0.85937 -0.98046,2.02149 -0.24024,2.27929 -2.57031,1.5293 -0.85938,3.08008 -1.13086,1.16015 1.88086,3.75 -2.79101,4.41016 -1.86914,0.7793 -2.88086,4.76172 -2.22852,1.59961 -2.91992,5.77929 -0.0703,3.79102 2.00976,3.75976 -0.041,2.94922 3.42969,2.22071 -0.2793,2.86914 0.66992,1.1914 3.08008,0.37891 2.33008,-0.7793 2.42968,-1.67969 1.08008,-2.07031 4.34961,3.37891 -0.16015,1.33008 -1.71875,2.17968 0.89062,2.03125 -5.01172,4.0586 -3.47851,0.57031 -1.13086,-0.79883 -0.23047,-1.05078 1.50976,-1.59961 0.041,-0.74023 -2.81055,0.0996 -4.94922,-1.04883 -3.54101,0.75976 -5.37891,-4.01953 -2.5,-1.16015 -0.89062,1.02929 0.41992,3.03907 -1.25977,1.12109 -0.56054,2.14062 -1.58985,0.10938 -0.91015,0.73047 -3.2793,0.1289 -6.73047,-1.11914 -1,3.83985 -3.23047,0.83984 -2.3789,2.20899 -3.66993,0.41015 2.29883,3.91016 2.44141,2.53125 3.16992,1.05859 0.5293,1.66992 4.88086,0.31055 1.41992,1.06055 -2.24024,3.31054 -3.83007,3.03907 -2.81055,0.71093 -3.41992,-0.0215 -0.5293,-0.72851 -2.62109,3.47851 -2.41016,6.38086 -1.17969,0.91016 0.23047,4.08984 6.95899,11.08008 -0.70899,1.08008 -1.65039,-0.39063 -1.29883,0.3711 -5.88086,6.46875 -7.03906,4.51953 -1.67187,2.23047 -0.25,2.09961 6.9414,21.99023 1.51953,2.48047 3.80078,1.80078 -3,2.60937 3.03907,12.15039 v -1.12109 l 1.17968,-0.57031 0.61133,-1.58984 4.11914,-2.03907 4.58985,1.42969 2.32031,-1.11914 0.73047,2.63867 2.41992,-2.04883 0.92969,-2.73047 -0.49024,-1.34961 1.93946,-0.98046 -0.22852,-2.57032 0.87891,-1.35937 -0.62891,-1.43945 -1.60156,0.63867 0.0703,-1.28907 0.85938,-0.83007 0.73046,-2.3711 -0.0801,-1.99023 2.25976,-2.29883 2.83985,-5.7207 1.58007,-1.28907 0.0312,-1.49023 0.81055,-1.09961 0.28906,-2.57031 1.53907,-4.13086 -0.23829,-2.63867 2.81836,-1.85156 0.0312,-3.34961 2.90039,-4.17969 0.97852,-0.60938 2.75977,-0.32031 0.84179,-4.89062 -0.62109,-2.25 -1.5293,-0.01 -2.14062,1.54102 -0.85938,-0.51172 0.98047,-2.22852 -0.0703,-1.08008 -0.83985,-0.80078 -1.63085,0.33985 -1.38086,-0.53907 -2.10938,-7.90038 0.83008,-1.66993 0.16016,-4.27929 1.40039,-2.19141 3.53906,-2.25976 1.30078,-0.0195 1.74023,0.92968 1.41993,-1.2207 2.42968,-0.61914 0.35938,-2.08008 -1.49024,-1.23047 0.55079,-2.48047 -1.4004,-2.51953 0.0996,-1.44922 1.89063,-0.21093 1.88086,1.38086 1.6289,-0.70118 1.41016,0.22071 2.03125,5.12109 3.68945,1.80859 -0.2207,-1.99023 1.90039,-2.88867 -0.21094,-1.61133 -2.00976,-2.66992 1.03125,-2.25 -0.32988,-1.37865 0.92969,-1.08984 4.59961,-1.65039 1,-0.99024 0.9707,-2.91015 2.20898,-2.06055 -0.26953,-1.66016 1.16016,-1.44922 v -3.3789 l 1.07031,-1.11133 1.08008,-3.08008 1.59961,-0.59961 0.43945,-1.06054 2.65039,0.89062 3.32032,-0.0293 -0.32032,-7.63086 4.66016,-1.5293 1.95898,-2.07031 1.35157,-0.66015 0.8789,-0.19922 0.57032,1.19922 1.43945,0.01 1.32031,2.52929 3.32031,0.23047 -0.92968,2.43945 1.1289,0.88086 1.81055,0.10938 2.83984,-3.13867 1.00977,-0.19141 0.16992,1.49023 0.7207,0.49024 0.0605,2.75 0.90039,1.53125 0.0391,2.20898 3.38086,0.2793 1.09961,1.43164 1.86914,-0.79101 0.16406,-0.084 -0.55273,-9.63477 -5.83008,-6.38672 -14.16015,-1.11133 -14.7168,-9.71875 9.99609,-15.54883 10.55078,-8.88476 41.88477,-18.583985 -0.68555,-2.4375 0.0195,-3.859375 0.59961,-1.740234 1.78125,-1.208985 1.76954,-2.740234 -1.01954,-0.871094 -14.15039,-2.398437 -5.16015,-1.919922 -5.60938,-4.511719 -0.9414,-2.419922 0.48046,-3.728515 -1.21875,-1.03125 -1.12109,-0.119141 -3.37891,1.369141 -5.83984,-1.048829 -5.98047,1.789063 -3.70117,-1.310547 -1,-1.669922 -1.41016,-0.910156 2.10157,-5.109375 -1.8711,-3.949219 0.97071,-2.580078 -0.13086,-2.759766 0.80078,-1.880859 1.79883,-1.179688 2.68164,0.109376 1.25,-1.859376 5.47851,-3.460937 0.94141,-3.699219 3.26953,-0.86914 0.16992,-1.310547 2.75977,-1.871094 1.44922,-3.25 -0.95899,-2.949219 0.45899,-1.160156 1.77148,-0.279297 1.99023,-1.259765 3.5,0.558593 4.16993,-1.679687 2,-0.259766 2.92968,1.210938 3.09961,-0.121094 0.89063,1.041016 2.86914,0.21875 1.58008,-0.839844 1.37109,0.330078 1.19922,-0.378906 3.09961,0.648437 0.58984,-1.949219 -0.8789,-2.070312 -1.65039,-0.570313 -0.65039,-1.228515 -3.26954,-0.871094 z" />
  <path
     id="punjab_northern_irrigated_land"
     title="Punjab"
     class="land"
     d="m 367.72717,273.81927 v -1.12 l 1.18,-0.57 0.61,-1.59 4.12,-2.04 4.59,1.43 2.32,-1.12 0.73,2.64 2.42,-2.05 0.93,-2.73 -0.49,-1.35 1.94,-0.98 -0.23,-2.57 0.88,-1.36 -0.63,-1.44 -1.6,0.64 0.07,-1.29 0.86,-0.83 0.73,-2.37 -0.08,-1.99 2.26,-2.3 2.84,-5.72 1.58,-1.29 0.03,-1.49 0.81,-1.1 0.29,-2.57 1.54,-4.13 -0.24,-2.64 2.82,-1.85 0.03,-3.35 2.9,-4.18 0.98,-0.61 2.76,-0.32 0.84,-4.89 -0.62,-2.25 -1.53,-0.01 -2.14,1.54 -0.86,-0.51 0.98,-2.23 -0.07,-1.08 -0.84,-0.8 -1.63,0.34 -1.38,-0.54 -2.11,-7.9 0.83,-1.67 0.16,-4.28 1.4,-2.19 3.54,-2.26 1.3,-0.02 1.74,0.93 1.42,-1.22 2.43,-0.62 0.36,-2.08 -1.49,-1.23 0.55,-2.48 -1.4,-2.52 0.1,-1.45 1.89,-0.21 1.88,1.38 1.63,-0.7 1.41,0.22 2.03,5.12 3.69,1.81 -0.22,-1.99 1.9,-2.89 -0.21,-1.61 -2.01,-2.67 1.03,-2.25 -0.33,-1.38 0.93,-1.09 4.6,-1.65 1,-0.99 0.97,-2.91 2.21,-2.06 -0.27,-1.66 1.16,-1.45 v -3.38 l 1.07,-1.11 1.08,-3.08 1.6,-0.6 0.44,-1.06 2.65,0.89 3.32,-0.03 -0.32,-7.63 4.66,-1.53 1.96,-2.07 1.35,-0.66 0.88,-0.2 0.57,1.2 1.44,0.01 1.32,2.53 3.32,0.23 -0.93,2.44 1.13,0.88 1.81,0.11 2.84,-3.14 1.01,-0.19 0.17,1.49 0.72,0.49 0.06,2.75 0.9,1.53 0.04,2.21 3.38,0.28 1.1,1.43 1.87,-0.79 v 0 l 0.27,6.28 1.37,-0.12 1.74,-2.62 0.73,1.74 0.6,4.4 -0.17,2.83 2.39,2.9 6.17,1.23 6.43,-2.02 0.45,-0.8 -0.65,-6.24 -2.14,-5.08 -2.06,-1.02 -0.91,-3.04 0.02,-4.22 v 0 l 1.6,-0.72 -0.71,-1.28 0.23,-0.54 0.95,-0.47 1.57,0.32 2.24,-1.86 v 0 l 2.15,4.36 -0.73,4.32 1,1.94 0.24,2.24 -0.96,1.58 -0.2,1.86 2.25,2.56 0.18,1.96 -0.78,0.63 -0.12,0.96 0.71,1.49 -1.14,0.95 -1.03,3.08 0.54,1.53 0.87,0.27 -0.3,0.83 0.62,1.46 -0.38,0.72 0.72,2.38 1.41,0.96 0.05,1.75 -1.36,1.34 0.06,1.54 4.72,1.91 0.91,1.36 1.24,0.67 2.88,-1.21 1.58,0.05 3.16,3.78 12.64,6.25 1.41,1.94 1.11,0.18 2.59,-1.04 v 0 l 2.7,2.34 3.2,-0.78 1.05,-1.56 0.02,-1.42 2.13,-0.77 -1.81,5.55 1,2.76 -1.31,2.15 0.39,2.32 1.09,1.01 0.24,2.06 2.33,0.63 3.42,-0.78 5.33,2.21 2.2,-2 2.03,0.53 1.76,2.69 0.76,0.35 1.58,-0.5 0.27,0.87 1.39,0.28 3.83,3.08 0.36,1.96 1.05,0.9 -0.15,1.55 -1.77,1.91 -0.12,1.53 -1.2,0.77 -0.43,1.34 -1.27,1.16 -0.44,0.12 -0.2,-1.27 -1.06,-0.19 -0.39,1.5 -0.8,0.71 -0.78,-0.67 h -1.09 l -0.93,1.06 -3.37,1.39 -3.06,-1.67 -1.11,0.74 -0.96,-0.05 -0.28,1.2 -0.96,0.17 0.21,0.5 -1.06,0.54 -0.36,1.92 -2.37,0.13 -0.46,0.67 -1.03,-0.93 -0.23,1.5 -1.68,0.3 -1.44,1.67 -0.86,-0.21 -0.77,1.93 -0.93,0.66 -0.48,2.37 0.3,1.06 -1.3,0.36 -0.03,1.01 3.23,7.01 0.11,1.52 -1.12,0.59 -0.35,0.87 2.35,0.68 -0.22,0.4 0.82,0.81 -0.64,1.64 -1.19,1.2 -1.66,4.44 -0.83,-0.01 -0.74,1.19 0.43,1.11 -0.81,2.97 0.13,1.94 1.5,0.76 0.33,1.62 1.29,-0.43 0.27,-1.72 1.13,-0.16 0.37,0.71 0.77,-0.62 1.02,0.2 0.66,1.58 -0.86,1.52 -1.92,0.65 -0.87,0.16 -1.61,-1.08 -1.03,2.46 0.24,0.86 -1.6,1.19 -1.01,0.05 -1.93,1.8 -0.18,0.89 -1.95,0.93 -0.1,1.77 -0.79,-0.39 -1.02,0.31 -1.18,2.15 0.45,0.76 -1.36,0.66 0.76,1.69 -1.92,0.48 -3.14,3.89 -1.26,0.02 -0.37,1.18 -0.69,-0.31 0.06,1.67 -0.96,0.92 0.64,0.43 -0.26,0.7 -0.43,0.41 -1.26,-0.71 -1.94,1.59 -0.82,1.92 -1.05,-0.24 -0.29,1.88 -0.95,0.18 -1.24,2.15 1.44,1.43 1.91,3.34 0.33,2.97 -6.93,5.72 -6.81,1.96 -8.5,3.75 -4.65,16.89 -7.04,13.6 -3.45,4.48 -2.26,5.29 -8.91,4.06 -12.63,7.51 -3.2,4.35 -4.55,13.44 -7.29,6.6 -2.42,3.49 -1.39,7.39 -9.25,3.85 -9.61,0.14 -5.29,1.04 -15.04,6.24 -4.9,-0.82 -3.06,-5.3 -0.69,-3.98 -3.79,-3.89 -1.25,-0.55 -1.98,-0.05 -4.37,1.11 -2.44,2.7 -3.71,2.67 v 0 l -6.43,-2.93 -3.22,-3.01 -2.36,-4.01 -2.52,-7.01 0.09,-1.5 -1,-0.85 -0.21,-3.19 -1.86,-0.54 -0.66,-2.21 -5.34,-0.89 -0.02,-1.21 -4.14,-0.71 -4.22,1.84 v 0 l -1.88,-3.01 -0.12,-1.23 3.39,-1.9 2.51,-3.78 1.96,-4.63 -1.27,-1.98 0.35,-2.92 2.8,-2.59 2.51,-3.9 2.28,-1.29 1.73,-8.31 -0.65,-0.9 -1.65,1.17 -1.54,-2.29 0.76,-1.56 -0.35,-1.16 -3.71,-1.52 1.32,-4.64 -0.07,-4.94 1.2,-1.51 4.37,-1.3 1.22,-2.29 2.42,-1.66 4.9,-10.97 -0.02,-3.13 2.22,-2.24 1.07,-1.94 -0.02,-1.27 -1.21,-0.44 -0.98,0.2 -1.22,1.33 -0.17,-2.16 -1.25,-0.67 1.3,-3.1 0.17,-3.26 4.46,-7.74 -0.86,-1.9 0.34,-2.28 0.47,-0.65 1.78,-0.13 0.39,-1.55 1.52,-0.18 0.41,-2.62 2.49,-0.46 0.11,-1.49 -0.98,-0.64 -0.06,-0.66 0.48,-8.61 v 0 l 0.74,-0.19 0.18,-0.66 -0.24,-3.48 4.56,-1.13 z"
     style="fill:#125e00;fill-opacity:0.581169" />
  <path
     id="Sindh_desert"
     class="land"
     d="m 354.23674,418.51112 -1.34179,0.5957 -3.40039,2.03907 -5.09766,3.56836 -4.41992,3.74023 -3.90821,2.20899 -4.58789,3.56835 -4.58984,3.40039 -4.41797,3.39844 -3.56836,3.22852 -3.57031,3.39844 -2.03906,2.55078 -2.54883,3.9082 -2.03906,2.88867 -2.89063,4.75977 -2.03906,5.09765 -1.18946,4.75977 v 3.73828 2.37891 l 0.84961,2.03906 5.43946,1.5293 3.9082,1.70117 4.07813,1.5293 4.58984,0.50976 0.50976,1.35938 0.67969,4.58789 1.86914,2.89062 1.35938,4.07813 3.22851,3.9082 3.23047,4.25 1.86914,3.56836 4.75782,5.77734 2.55078,1.02149 2.88867,1.01953 2.88867,1.01953 v 2.37891 1.86914 l -0.84961,1.86914 -1.69922,4.58984 -1.01953,2.88867 -2.54883,6.96875 -1.1914,3.56836 -2.37891,4.58789 -2.71875,6.28907 -1.5293,5.26757 -0.67968,2.55078 -1.35938,2.71875 -1.18945,4.07813 -2.04102,4.25 -1.17578,3.86523 1.05274,0.23047 2.68945,-0.31054 2.68945,0.79101 3.85156,-0.96094 4.78907,4.33008 9.83008,0.41992 1.75976,-0.17968 1.35938,-0.99024 2.31054,-4.1289 9.72071,-2.6504 7.33984,-2.75 2,0.75977 -1.54102,2.35938 0.5918,1.45117 -0.5918,0.69922 0.60157,0.34961 -0.52149,1.40039 3.14063,1.15039 5.82031,0.0996 3.41992,-1.44922 -0.34961,-1.41992 2.88867,-2.3418 1.5,-0.59961 0.56055,0.58008 1.32031,-0.0195 1.58985,-1.43946 1.41992,-0.48047 0.34961,-0.88085 -0.58985,-0.72852 -4.36914,-0.58984 0.29883,-3.4004 -0.66015,-0.78124 0.0918,-2.44922 0.76953,-1.32032 3.34961,-2.11914 -1.33007,-1.33008 -1.91016,-4.62109 -3.01953,-4.80859 -1.98047,-8.90039 -4.93945,-5.14063 -0.85938,-2.3789 -2.71094,-2.91016 0.5293,-5.45117 -0.44922,-0.2793 0.18945,-5.83984 -0.58984,-1.56055 -1.89062,-0.40039 -3.12891,1.28125 -5.2793,0.54883 -4.64062,-1.59961 -1.35938,-2.7793 -2.57031,-2.27148 -3.16992,-5.33985 -0.52149,-5.53906 2.41993,-3.95117 1.06054,-3.37891 -0.31054,-1.9707 0.75,-8.41016 -0.61914,-2.75 -1.10938,-1.01953 -2.81055,-1.07031 -7.23047,0.78125 -2.46875,-0.48047 -3.62109,-2.65039 -7.98047,-3.70898 -1.22851,-2.85157 1.13867,-9.08984 2.50976,-6.41992 3.40039,-3.71875 7.58008,-6.55078 2.8711,-4.31055 3.09961,-2.33984 3.53906,-9.16016 3.83984,-5.12891 z"
     style="fill:#79660c;fill-opacity:1" />
  <path
     id="path1" />
  <path
     id="path55"
     style="fill:#1c8925;fill-opacity:1"
     class="land"
     d="m 249.72698,427.89979 0.082,-0.082 0.0215,-0.0664 z" />
  <path
     id="path54"
     style="fill:#1c8925;fill-opacity:1"
     class="land"
     d="m 246.75823,430.86854 0.61133,-0.61133 -0.5625,0.44141 z" />
  <path
     id="path53"
     style="fill:#1c8925;fill-opacity:1"
     class="land"
     d="m 241.66252,449.57362 -0.10937,-2.70508 -0.0469,1 z" />
  <path
     id="path52"
     style="fill:#1c8925;fill-opacity:1"
     class="land"
     d="m 242.28557,466.32362 0.0273,-0.74023 -0.0742,-1.82618 -0.16211,1.24219 z" />
  <path
     id="path51"
     style="fill:#1c8925;fill-opacity:1"
     class="land"
     d="m 243.41838,479.68495 -0.96484,-4.40625 0.58398,3.74023 z" />
  <path
     id="path50"
     style="fill:#1c8925;fill-opacity:1"
     class="land"
     d="m 252.76409,512.52675 1.48828,-2.23438 -0.53321,-1.59961 -0.28125,2.57617 z" />
  <path
     id="path49"
     style="fill:#1c8925;fill-opacity:1"
     class="land"
     d="m 244.84416,524.22792 2.4668,-1.43945 -0.0644,-0.64063 -0.1289,0.53125 -1.9004,0.89062 z" />
  <path
     id="path48"
     style="fill:#1c8925;fill-opacity:1"
     class="land"
     d="m 237.57854,539.23964 0.9707,-2.22071 -0.92187,1.23047 z" />
  <path
     id="path47"
     style="fill:#1c8925;fill-opacity:1"
     class="land"
     d="m 231.24065,544.88417 0.26953,-0.11328 -0.12305,0.0176 z" />
  <path
     id="path46"
     style="fill:#1c8925;fill-opacity:1"
     class="land"
     d="m 227.15862,547.79042 0.5332,-0.57227 -0.10547,0.0703 z" />
  <path
     id="path45"
     style="fill:#1c8925;fill-opacity:1"
     class="land"
     d="m 223.29729,551.63807 1.35547,-1.23242 -0.30469,0.043 -1.02148,1.07031 z" />
  <path
     id="path44"
     style="fill:#1c8925;fill-opacity:1"
     class="land"
     d="m 225.83831,552.41542 -2.375,0.22851 0.14453,0.16602 z" />
  <path
     id="path2" />
  <path
     id="sindh_west_plateau"
     style="fill:#9ea449;fill-opacity:1"
     class="land"
     d="m 242.40081,443.88612 -0.80274,2.0332 -0.0449,0.94922 0.10938,2.70508 1.0039,10.90625 -0.42773,3.27734 0.0742,1.82618 -0.0273,0.74023 0.52148,3.28516 -0.63086,3.89062 0.27735,1.7793 0.96484,4.40625 10.67969,18.68359 -0.91016,7.05078 0.54883,3.10938 -0.0176,0.16406 0.5332,1.59961 -1.48828,2.23438 -1.22656,2.2832 -0.49024,2.62891 -3.29101,2.61132 -0.50977,2.09766 0.0644,0.64063 -2.46679,1.43945 -2.08789,3.68164 0.18164,3.49023 -1.19141,2.85938 -2.25977,1.50976 -0.9375,1.25 -0.9707,2.22071 -0.082,1.66992 -3.16015,3.46875 -2.82618,0.39258 -0.26953,0.11328 -3.54883,2.33398 -0.5332,0.57227 -1.76172,2.06836 0.14063,0.41992 -0.88477,0.12695 -1.35547,1.23242 -0.16015,0.63086 0.32617,0.375 2.375,-0.22851 0.14844,-0.0254 0.93945,-0.72071 2.76172,0.59961 0.45898,-0.90039 0.76953,-0.0684 2.24024,0.86914 2.70117,2.34961 -0.77148,-1.73046 -1.63868,-0.8086 -0.14062,-0.61133 1.9707,-0.47851 0.0898,0.76953 0.49024,-0.10938 0.16992,1.71875 1.49023,0.34961 2.17969,2.47071 0.91016,-0.59961 -0.65039,-1.33008 1.33007,0.67969 2.67969,-1 1.42969,0.49023 0.23633,0.94141 0.0117,0.006 4.99804,-1.94336 3.60938,-1.38868 2.77734,-1.11132 2.2207,-1.10938 3.05469,-1.11133 2.5,-1.66601 3.33203,-1.94336 3.33203,-3.61133 3.60938,-3.33203 1.66602,-3.88672 0.27929,-3.88867 0.83203,-5.55274 0.55469,-3.60937 6.66602,-0.83398 -0.55664,-14.7168 -2.77539,-1.38867 -3.05469,-1.11133 -3.05469,-0.83203 -1.38867,-0.55664 -2.5,-1.94336 -1.66602,-2.77735 -0.55469,-4.7207 -3.33203,-3.05469 -4.7207,-2.49804 -1.94531,-2.22266 -2.49805,-1.38867 -2.77734,-3.05469 v -5.27539 l 0.55469,-3.60938 v -4.7207 h 3.61132 l 0.83203,-4.16601 v -2.77735 -2.2207 -2.77734 l 0.83399,-1.94336 v -6.66407 l 0.17773,-1.60351 -18.09961,0.88867 z" />
  <path
     id="path59"
     style="fill:#9ea449;fill-opacity:1"
     class="land"
     d="m 243.75041,436.6869 -0.0625,0.0723 -0.0527,0.54883 z" />
  <path
     id="path58"
     style="fill:#9ea449;fill-opacity:1"
     class="land"
     d="m 246.09221,433.19276 -0.11719,0.41016 0.0586,-0.0586 z" />
  <path
     id="path57"
     style="fill:#9ea449;fill-opacity:1"
     class="land"
     d="m 252.35979,421.53456 -0.23242,0.0351 -0.45117,0.41993 -0.59375,1.85156 -0.21289,1.00586 z" />
  <path
     id="sindh_dry_mountains"
     style="fill:#505325;fill-opacity:1"
     class="land"
     d="m 252.35979,421.53456 -1.49023,3.3125 -0.43165,2.03125 -0.60742,0.87305 -0.0215,0.0664 -0.082,0.082 -0.7793,1.11917 -1.57812,1.23828 -0.61133,0.61133 -0.66602,2.32422 -0.0586,0.35156 -0.0586,0.0586 -0.22851,0.79687 -1.9961,2.28711 -0.11523,0.6211 -0.44727,4.58203 -0.78711,1.99609 -0.23828,1.26758 18.09961,-0.88867 0.13281,-1.20117 0.80078,-13.12305 v -0.73438 -2.77734 l -0.25,-6.20703 z" />
  <path
     id="sindh_irrigated_land"
     style="fill:#23822c;fill-opacity:1"
     class="land"
     d="m 332.90666,393.35878 -4.21875,1.83984 -22.99023,0.95117 -6.73047,-0.53125 -5.39062,0.88086 -1.5293,1.25977 -2.13086,3.41015 -4.2793,1.97071 -11.66992,9.27929 -2.08008,3.45899 -2.68945,0.68164 -3.78125,2.2793 -3.79883,1.27929 -0.67187,0.10352 0.25,6.20703 v 2.77734 6.38672 l -0.55664,5.27735 -0.55469,4.99804 v 6.66407 l -0.83399,1.94336 v 2.77734 2.2207 2.77735 l -0.83203,4.16601 h -3.61132 v 4.7207 l -0.55469,3.60938 v 5.27539 l 2.77734,3.05469 2.49805,1.38867 1.94531,2.22266 4.7207,2.49804 3.33203,3.05469 0.55469,4.7207 1.66602,2.77735 2.5,1.94336 1.38867,0.55664 3.05469,0.83203 3.05469,1.11133 2.77539,1.38867 0.55664,14.7168 -6.66602,0.83398 -0.55469,3.60937 -0.83203,5.55274 -0.27929,3.88867 -1.66602,3.88672 -3.60938,3.33203 -3.33203,3.61133 -3.33203,1.94336 -2.5,1.66601 -3.05469,1.11133 -2.2207,1.10938 -2.77734,1.11132 -3.60938,1.38868 -4.99804,1.94336 -0.0117,-0.006 0.0937,0.36914 -2.47071,1.54883 1.11133,1.80078 -0.96094,0.65039 0.41016,0.79883 1.90039,0.23046 0.24024,1.75 -0.84961,2.20899 1.54882,1.66016 -0.28906,0.98046 1.71875,1.96094 0.43164,3.19922 1.61914,0.90039 -1.53906,0.53906 0.23828,0.46094 -0.80859,0.58984 0.80859,2.17969 1.33985,0.67969 -0.56836,1.42969 1.31836,2.36132 0.18164,2.26954 0.94921,0.64062 0.33008,2.91016 1.5,0.58984 0.31055,0.76953 1.72852,0.26953 -0.53907,1.84961 1.67969,0.68164 1.08008,-0.40039 0.62109,1.38868 2.0586,1.51171 1,0.0899 v 1.23828 l 0.75976,0.36133 2.13086,-0.23047 -0.46094,-1.06055 0.83008,-0.0293 1.57031,1.15039 0.1504,-0.41015 h 1.66992 l 0.41992,-3.78125 1.08984,0.43164 2.41992,2.88867 0.75977,-0.34961 0.60156,0.83985 -0.43164,1.25 0.81055,0.88085 1.09961,-0.98046 0.041,0.65039 0.71875,0.33984 0.81055,-0.84961 -0.0996,-4.73047 1.82031,2.58008 4.16993,-0.54101 0.21875,-1.18946 1.85156,-0.89062 1.5,-1.60938 1.69922,0.55078 0.25,-1.73047 1.55078,-1.01953 0.67969,1.13868 1.04882,-1.17969 0.83008,0.2207 2.14063,-0.88086 0.68945,2.63086 1.28125,-0.57031 7.82031,0.0508 0.58008,-13.57031 2.4082,-1.01953 0.83008,4.21875 1.19141,0.48046 0.75,-0.0801 0.7793,-2.28907 1.11914,-0.99023 0.90039,1.64844 1.16015,0.49023 3.57032,-1.82031 4.13085,1.43164 4.26954,-1.75 0.94726,0.20898 1.17578,-3.86523 2.04102,-4.25 1.18945,-4.07813 1.35938,-2.71875 0.67968,-2.55078 1.5293,-5.26757 2.71875,-6.28907 2.37891,-4.58789 1.1914,-3.56836 2.54883,-6.96875 1.01953,-2.88867 1.69922,-4.58984 0.84961,-1.86914 v -1.86914 -2.37891 l -2.88867,-1.01953 -2.88867,-1.01953 -2.55078,-1.02149 -4.75782,-5.77734 -1.86914,-3.56836 -3.23047,-4.25 -3.22851,-3.9082 -1.35938,-4.07813 -1.86914,-2.89062 -0.67969,-4.58789 -0.50976,-1.35938 -4.58984,-0.50976 -4.07813,-1.5293 -3.9082,-1.70117 -5.43946,-1.5293 -0.84961,-2.03906 v -2.37891 -3.73828 l 1.18946,-4.75977 2.03906,-5.09765 2.89063,-4.75977 2.03906,-2.88867 2.54883,-3.9082 2.03906,-2.55078 3.57031,-3.39844 3.56836,-3.22852 4.41797,-3.39844 4.58984,-3.40039 4.58789,-3.56835 3.90821,-2.20899 4.41992,-3.74023 5.09766,-3.56836 3.40039,-2.03907 1.34179,-0.5957 -0.0898,-0.041 -3.2207,-3.01172 -2.34961,-4.00977 -2.51953,-7.00976 0.0898,-1.49024 -1,-0.84961 -0.20899,-3.18945 -1.86132,-0.53125 -0.66016,-2.20899 -5.33984,-0.89062 -0.0195,-1.21875 z m -50.61914,201.04101 -2.74023,0.54883 -1.06055,0.86133 v 2.2793 l -1.15039,0.75976 0.25,0.89063 2.25,-0.41016 0.52149,0.62891 0.95898,-0.0391 1.39063,-3.09961 z" />
  <path
     id="kpk_west_mountains_1"
     title="Federally Administered Tribal Areas"
     class="land"
     d="m 411.69717,101.54927 2.41,2.68 2.34,4.8 4.26,0.76 1.16,0.72 0.32,0.86 -0.98,2.02 -0.24,2.28 -2.57,1.53 -0.86,3.08 -1.13,1.16 1.88,3.75 -2.79,4.41 -1.87,0.78 -2.88,4.76 -2.23,1.6 -2.92,5.78 -0.07,3.79 2.01,3.76 -0.04,2.95 3.43,2.22 -0.28,2.87 0.67,1.19 3.08,0.38 2.33,-0.78 2.43,-1.68 1.08,-2.07 4.35,3.38 -0.16,1.33 -1.72,2.18 0.89,2.03 -5.01,4.06 -3.48,0.57 -1.13,-0.8 -0.23,-1.05 1.51,-1.6 0.04,-0.74 -2.81,0.1 -4.95,-1.05 -3.54,0.76 -5.38,-4.02 -2.5,-1.16 -0.89,1.03 0.42,3.04 -1.26,1.12 -0.56,2.14 -1.59,0.11 -0.91,0.73 -3.28,0.13 -6.73,-1.12 -1,3.84 -3.23,0.84 -2.38,2.21 -3.67,0.41 2.3,3.91 2.44,2.53 3.17,1.06 0.53,1.67 4.88,0.31 1.42,1.06 -2.24,3.31 -3.83,3.04 -2.81,0.71 -3.42,-0.02 -0.53,-0.73 -2.62,3.48 -2.41,6.38 -1.18,0.91 0.23,4.09 6.96,11.08 -0.71,1.08 -1.65,-0.39 -1.3,0.37 -5.88,6.47 -7.04,4.52 -1.67,2.23 -0.25,2.1 6.94,21.99 1.52,2.48 3.8,1.8 -3,2.61 3.04,12.15 v 0 l -0.88,1.18 -4.56,1.13 0.24,3.48 -0.18,0.66 -0.74,0.19 v 0 l -0.96,-2.91 1,-6.38 -0.19,-7.96 -0.73,-1.05 -2.82,2.43 -2.79,0.32 -1.14,3.6 -0.86,0.62 -1.14,-6.48 -1.73,-1.78 -1.52,-0.54 0.22,-9.79 0.81,-6.84 -0.32,-0.39 -2.49,1.99 -1.29,-0.84 1.42,-3.64 -2.77,-1.78 1.14,-3.85 -5.75,0.94 -1.52,2.84 -3.33,2.6 -1.12,-0.6 -7.34,0.28 v 0 l -0.88,-2.33 -1.07,-7.23 0.31,-9.35 -1.55,-4.79 1.72,-3.26 3.87,-1.54 3.12,-4.44 -0.59,-1.27 0.02,-1.79 -1.87,-1.65 1.78,-1.3 1.03,-2.21 2.29,-1.06 -1.65,-3.49 0.46,-3.46 0.35,0.23 3.02,-3.3 -0.42,-0.59 4.81,0.33 3.17,-1.7 3.44,1.46 1.6,-0.38 1.13,-1.14 2.98,-0.67 1.71,-3.23 1,0.93 2.47,-0.22 1.05,-0.96 -0.54,-0.89 2.45,-1.4 2.2,-2.67 h 1.64 l -0.23,-0.59 0.59,-0.38 -0.55,-1.08 0.54,-1.01 -1.07,-1.88 -1.64,-0.61 -0.68,-1.2 -0.97,-0.25 -1.28,-2.25 0.88,-5.32 -0.66,-0.71 -1.41,-0.05 -0.42,-3.13 -1.21,-0.59 -2.45,0.39 -2.15,-0.44 -1.2,-1.23 -0.08,-2.58 -2.32,-3.88 -1.53,-1.29 0.53,-1.67 0.97,-0.58 -0.01,-1.75 3.88,-0.46 2.51,1.44 3.63,-0.02 2.7,1.22 1.55,-0.33 1.83,0.79 3.87,0.14 0.36,1.08 2.53,0.41 0.63,-0.21 0.11,-0.85 0.73,0.24 2.12,-0.86 6.73,0.44 2.18,-1.25 2.35,0.23 1.27,-1.53 5.7,-1.95 0.43,-0.5 -0.14,-2.01 0.81,-0.23 1.91,-2.27 -0.21,-1.81 0.55,-1.2 -0.98,-0.6 -0.17,-1.4 1.9,-3.35 v -0.9 l -3.68,-1.75 -2.68,-3.05 -0.43,-4.37 1.25,0.83 0.81,-1.09 1.9,-0.95 1.18,-2.14 -0.84,-1.36 0.21,-1.29 5.04,-2.92 -0.42,-0.87 0.57,-1.27 1.28,-0.66 1.17,-3.46 0.73,0.31 4.39,-2.78 2.55,-0.74 z"
     style="fill:#505325;fill-opacity:1" />
  <path
     style="fill:#e59b3a;fill-opacity:1"
     d="m 385.20433,166.6568 0.3185,-3.34431 v -3.98133 l -0.15925,-3.82207 v -3.18507 l -0.15925,-3.34431 -0.15926,-1.75179 h 2.07029 l 1.11478,-1.27402 6.21087,-2.3888 v -2.54805 l 2.7073,-1.91104 -0.31851,-2.54805 -0.95551,-2.22954 2.38879,-3.82207 -4.61834,-2.07029 -1.59253,-2.54805 -1.11477,-5.41461 2.22954,0.79627 1.43328,-1.75179 1.91104,-1.75178 -1.43328,-1.91104 0.79627,-1.43328 4.77759,-2.7073 v -2.3888 l 1.91104,-0.63701 0.95551,-3.66282 1.27403,0.47776 7.16639,-3.82208 2.07029,1.75179 3.02581,5.73311 5.0961,0.79626 0.79626,1.75179 -1.11477,1.43328 v 2.7073 l -2.54805,1.59253 -0.95552,2.7073 -1.27402,1.11478 2.22954,4.14058 -3.02581,4.14058 -1.91103,1.11477 -2.70731,4.61834 -2.38879,1.59253 -3.02581,5.41461 0.15925,3.66282 1.91104,3.98133 v 2.54805 l 3.18506,2.07029 v 3.50356 l 0.79627,1.27403 2.7073,0.31851 -0.95552,4.93684 -5.41461,-0.95552 -3.82207,0.63702 -7.4849,-5.0961 -1.59253,1.11477 0.15926,3.18506 -0.95552,1.11477 -0.31851,2.07029 h -2.07029 l -1.43328,0.95552 z"
     id="kpk_north_mountain_1" />
  <path
     style="fill:#23822c;fill-opacity:1"
     d="m 413.85423,164.57434 -1.43299,2.38831 -0.95532,1.27376 -0.95533,2.06987 2.22909,0.63688 2.06987,-0.15922 1.91065,-0.31844 1.91065,0.63688 4.13973,-1.91064 2.22909,-0.95533 3.50286,-1.91065 1.11454,-1.27376 v -3.02519 l 1.27377,-1.27377 0.7961,-2.70675 1.75143,-1.27376 0.47766,-0.95533 5.89116,0.95533 -0.31844,-7.48337 5.09506,-1.59221 2.06987,-2.22909 1.43299,-0.95532 0.95532,1.43298 1.27377,-0.15922 0.95532,2.38831 h 3.18441 l -0.47766,3.18441 2.54753,0.95533 2.86597,-3.18442 1.43299,-0.7961 0.31844,2.06987 1.27376,0.63688 -0.63688,3.02519 0.95533,0.47767 -0.15922,2.54753 3.82129,0.63688 0.63688,1.59221 1.91065,-1.43299 -0.47766,-9.71246 -6.52805,-5.73194 -7.00571,-0.47766 -7.16492,-1.11455 -14.17064,-9.2348 -18.94726,27.7044 z"
     id="kpk_irrigated_plain_1" />
  <path
     style="fill:#e59b3a;fill-opacity:1"
     d="m 410.28982,170.39471 -7.49686,5.55323 -12.49477,0.27766 -0.83299,-0.83298 -1.66597,-0.83298 -1.94363,-1.38831 -1.11064,-1.38831 v -1.11065 -3.88726 l 6.10855,0.27766 3.05428,-0.27766 1.66597,-3.33194 -0.55533,-3.88726 h 2.49896 l 6.38621,4.44259 9.71815,0.27766 z"
     id="kpk_north_mountain_3" />
  <path
     style="fill:#a85d31;fill-opacity:1"
     d="m 395.61342,203.01435 -8.0704,-3.2894 -9.58951,4.14681 -0.51835,2.85093 0.25917,3.62846 v 2.85094 l -1.0367,3.62846 -0.51835,2.33258 -2.33258,4.14681 -1.55506,2.59176 -2.07341,3.36929 -1.0367,2.33258 v 1.81423 l -0.25917,2.85094 1.0367,1.55505 2.07341,1.29588 4.14681,1.29588 2.85093,0.77753 2.59176,0.77752 h 4.66517 3.62846 3.36928 l 1.81423,-6.73857 -1.0367,-3.88763 4.14681,-1.55506 v -4.14681 l 3.36929,-3.11011 3.62846,-0.77753 0.25918,-6.73857 -3.62846,0.51835 -0.25918,-3.88764 h -3.88764 z"
     id="kpk_barani_land" />
  <path
     style="fill:#f6f4a2;fill-opacity:1"
     d="m 371.73329,239.37885 -10.88539,10.88538 2.59176,6.73857 4.40599,2.33259 -2.85093,1.81423 3.11011,11.40373 2.0734,-2.85093 3.88764,-1.29588 2.59176,1.0367 4.66517,-1.0367 v 2.85093 l 3.36928,-2.85093 -0.51835,-2.85093 2.07341,-1.03671 -0.25918,-2.85093 1.29588,-1.55506 -0.77753,-1.29588 -1.55505,1.55506 -0.51835,-2.07341 1.55505,-0.77753 v -4.40598 l 5.44269,-7.77528 1.29588,-3.88764 -11.40373,0.51835 z"
     id="kpk_suleman_pledmont" />
  <path
     style="fill:#505325;fill-opacity:1"
     d="m 361.10708,250.00506 10.88539,-10.62621 -3.11011,-3.11011 v -4.92434 l 7.51609,-12.69962 1.55506,-6.4794 v -8.81197 l 9.33033,-3.11011 9.07115,3.11011 0.25918,-6.73857 5.96104,-4.40599 1.81423,1.55505 3.88764,-2.33258 -1.0367,-2.85093 v -2.07341 l -1.29588,-3.88764 2.59176,-1.55505 1.81423,2.07341 2.33258,-0.51836 2.85094,6.22022 3.88763,1.55506 -0.25917,-3.36929 1.81423,-2.85093 -3.11011,-4.14681 1.29588,-1.29588 v -2.59176 l 6.22022,-2.59176 1.55505,-3.62846 2.07341,-1.29588 -0.77753,-2.33258 -8.29363,4.14681 -3.36928,0.51835 -5.70187,-0.51835 -7.5161,5.44269 -13.47714,0.77753 -5.18352,-4.40599 -0.25917,-5.18352 -3.36929,-0.77752 -0.51835,3.62846 -3.62846,1.29588 -2.07341,1.81423 -3.36929,0.51835 3.62847,6.22022 5.18351,2.07341 -0.51835,0.77752 5.44269,1.03671 0.51835,1.55505 -4.66516,5.18352 -6.99775,1.29588 -1.55505,-1.29588 -4.40599,9.5895 -1.29588,1.03671 v 4.40598 l 7.5161,11.40374 -3.62846,0.25917 -5.18352,6.22022 -9.58951,6.22022 -0.77752,3.88764 z"
     id="kpk_west_mountains_2" />
  <path
     style="fill:#7ef0f0;fill-opacity:1"
     d="m 512.46577,93.722034 1.0367,-3.369286 -0.25917,-3.369285 -1.81423,-2.591759 -3.62846,-0.777527 -3.36929,-0.518352 c 0,0 -3.62846,2.591759 -4.66517,2.850934 -1.0367,0.259176 -3.62846,2.073407 -3.62846,2.073407 l 1.55506,2.591758 2.0734,-1.555055 2.85094,1.036704 1.29588,-0.518352 4.40599,3.369286 z"
     id="path189" />
  <path
     style="fill:#79660c;fill-opacity:1"
     d="m 354.25956,418.39491 7.30835,-7.55197 v -3.41056 l 1.70529,-1.94889 1.94889,-1.46167 3.16695,-1.70529 2.19251,-1.21806 3.65417,-2.43611 3.16696,-2.19251 3.16695,-2.67973 2.43612,-3.16695 1.70528,-3.65418 1.94889,-3.65417 1.9489,-3.41057 4.62862,-1.46167 1.21806,-6.82113 2.92334,-0.73083 2.92334,-0.48723 2.92334,-0.48722 3.65418,-0.97445 2.92334,-1.46167 3.65418,-2.1925 3.65417,-2.43612 5.11585,-3.65418 5.60307,-4.1414 5.35946,-5.11584 5.60307,-4.1414 6.57751,-5.11585 6.0903,-4.38501 5.35946,-4.38501 2.92334,-1.9489 1.70528,-0.24361 h 1.46167 l 1.70528,0.48723 1.21806,0.97444 0.48722,1.9489 0.24362,1.94889 -0.97445,3.16695 -1.21806,2.92334 -2.92334,5.35946 19.97616,-0.73083 -14.86031,26.06645 -20.95061,11.20615 -3.89779,4.62862 -3.89779,13.64226 -9.25725,9.01363 -2.67973,8.2828 -8.03918,3.89779 -14.3731,0.24361 -16.5656,7.06474 -5.60307,-0.48722 -3.89778,-6.33391 0.48722,-3.41056 -3.89779,-3.41057 -6.57752,-0.24361 -6.09029,6.09029 z"
     id="punjab_desert1" />
  <path
     style="fill:#7ef0f0;fill-opacity:1"
     d="m 491.16936,173.80872 -2.05773,-1.12082 -0.39203,-7.18723 -2.48286,-4.83504 -1.56813,-0.78406 -1.6988,-7.05656 1.6988,-1.17609 -0.5227,-1.6988 1.30677,-0.78406 0.91473,0.65338 2.48286,-1.82947 2.48287,4.44301 -1.04542,4.57369 1.6988,3.92031 -1.43745,2.22151 0.13068,1.56812 2.74422,2.35218 -0.39204,1.82948 -1.04541,0.52271 0.78406,2.61354 z"
     id="punjab_wet_mountains" />
  <path
     style="fill:#a85d31;fill-opacity:1"
     d="m 393.45614,241.81597 38.54969,-29.53298 19.34018,0.13068 2.68618,-0.43151 2.25506,-0.70471 2.53695,-1.26847 2.39601,-1.40942 2.53694,-1.40941 2.39601,-1.55036 2.11412,-0.98659 2.67789,-1.12753 2.95977,-0.98659 2.67789,-0.70471 2.67789,-0.56376 2.81883,-0.28189 h 4.08731 l 4.51013,0.14095 3.38259,0.7047 2.95978,1.55036 3.10071,1.83224 2.67789,1.83224 2.53695,1.55035 2.95977,2.11413 2.67789,2.25506 2.396,2.25507 2.81884,3.38259 2.11412,2.95977 2.67789,3.80543 2.396,3.52353 2.25507,3.80543 2.11412,3.80542 1.83224,3.52354 1.83224,4.0873 1.55036,-1.97318 1.6913,-0.14094 v -1.83224 l 0.98659,1.40941 0.84565,-0.84565 2.11412,-0.14094 0.56377,-1.97318 1.12753,-0.42282 -0.28188,-1.12754 h 0.98659 v -1.12753 l 1.26847,0.14094 1.26847,-0.84565 2.67789,1.97319 3.80543,-1.6913 0.84564,-0.84565 1.6913,0.98659 0.70471,-0.98659 0.56377,-1.6913 0.98659,0.56377 v 0.98659 l 2.11412,-1.26848 0.28188,-1.40941 1.26848,-0.56377 v -2.25506 l 1.97318,-1.40942 v -1.55036 l -1.40942,-0.98659 -0.14094,-1.83224 -3.66448,-2.95977 -1.40941,-0.14094 -0.28189,-0.98659 -1.69129,0.70471 -2.39601,-3.10072 -2.11412,-0.84565 -2.39601,2.25507 -5.21484,-2.53695 -3.38259,1.12753 -2.25507,-0.42282 -0.70471,-2.53695 -1.40941,-3.24166 1.55036,-1.97318 -1.12754,-2.53694 2.53695,-6.48331 -2.81883,1.26847 -1.12753,3.3826 -2.95978,0.56377 -2.95977,-2.25507 -2.81883,1.12753 -2.396,-2.53694 -12.5438,-5.91955 -3.10072,-3.94636 -4.36918,1.12753 -2.95978,-2.11412 -4.0873,-1.6913 -0.28188,-1.83224 1.55035,-0.70471 v -2.11412 l -1.69129,-1.12753 -0.56377,-2.39601 0.84565,-0.56377 -0.98659,-1.26847 0.70471,-1.40942 h -1.40942 l -0.42282,-1.40941 0.84564,-2.11412 -2.53694,-0.56377 -6.48331,2.11412 -6.48331,-1.26847 -2.53695,-3.10072 -0.70471,-8.87931 -1.97318,2.53695 -1.83224,0.14094 v -6.20143 l -1.6913,1.55036 -1.26847,-1.97319 -3.24166,-0.42282 -0.56377,-2.67789 -0.7047,-0.98659 0.28188,-2.95977 h -0.98659 l -0.14094,-1.83224 -3.24166,3.24165 -3.52354,-0.7047 0.42283,-2.81884 h -2.95977 l -1.12754,-2.67788 -1.26847,0.14094 -0.56377,-1.26848 -1.40941,0.56377 -1.83224,2.25506 -5.0739,1.55036 0.14094,7.75179 -6.06048,-0.42283 -2.25507,1.6913 -0.98659,3.10071 -0.98659,0.56377 0.28189,3.52354 -1.26848,1.12753 0.98659,1.83224 -2.67789,1.6913 -1.40941,4.0873 -6.20143,2.25507 v 2.67789 l -1.12753,0.98659 2.81883,3.80542 -1.6913,3.10071 0.14094,3.24166 -4.36919,-1.26847 -2.53694,-5.91955 -2.39601,0.56377 -2.67789,-1.55036 -0.98659,0.56377 1.26847,3.10071 -0.42282,2.53695 1.26847,1.26847 -0.28188,2.95977 -1.83224,0.14095 -1.97318,1.40941 -2.67789,-1.12753 -5.0739,3.80542 -0.42282,6.90614 -0.70471,-0.28189 2.11412,7.61084 h 3.66448 l 0.42283,3.52354 1.55036,-0.98659 2.11412,0.28188 -0.14094,8.17461 -3.80542,0.56377 -3.10072,3.52354 v 3.94636 l -3.3826,2.11412 0.84565,2.67789 z"
     id="punjab_barani_land" />
  <path
     style="fill:#505325;fill-opacity:1"
     d="m 333.98532,379.96231 h 4.12643 3.4387 l 3.4387,-0.45849 3.89719,-0.68774 2.75095,-1.37548 1.83397,-2.75096 1.37548,-5.50191 1.37548,-6.64815 1.60473,-6.87739 h 2.29246 l 1.60473,-3.4387 1.83397,-4.58493 1.60472,-2.52171 -7.79438,-0.68774 -0.91698,-1.60472 v -2.75096 l 0.91698,-3.89719 1.37548,-3.20945 2.06322,-3.66794 2.52171,-3.89719 2.29247,-3.20945 2.75095,-3.20945 3.4387,-3.4387 2.75096,-3.66794 2.29246,-2.75096 2.75096,-3.66794 2.52171,-3.4387 1.37548,-2.29246 0.22924,-2.52171 -1.37548,-3.20945 -1.14623,-3.89719 -2.06322,-4.81418 -3.20945,-4.35568 -2.06321,-3.20945 -2.52171,-2.52171 -3.66795,-2.52171 0.22925,2.52171 -5.73116,1.37548 0.45849,3.66794 h -1.14623 v 9.16986 l 1.37548,0.68774 v 2.29246 h -3.20945 l -0.4585,2.98021 h -1.37547 v 1.60472 h -2.29247 l -0.22924,2.52171 0.45849,1.83398 -4.12644,7.79437 -0.68774,4.58493 -0.91698,1.83397 1.83397,1.14624 2.9802,-0.22925 0.91699,2.06322 -4.35568,4.81417 0.22924,3.4387 -5.04342,11.23307 -2.29246,1.14624 -1.37548,2.29246 -4.58493,1.60473 -1.60473,9.62835 4.12644,1.60472 -0.91699,3.4387 1.14624,1.37548 1.60472,-1.60473 1.60473,2.98021 -2.75096,8.02362 -2.29246,1.14623 -2.52172,4.58493 -2.52171,1.83397 z"
     id="punjab_west_mountains" />
  <path
     style="fill:#f6f4a2;fill-opacity:1"
     d="m 328.9419,395.09258 4.58492,-2.06322 4.12644,0.91698 h 7.79438 l 3.20945,-1.37547 2.9802,-2.75096 3.4387,-2.75096 3.66794,-2.9802 2.52171,-2.98021 2.75096,-3.20945 1.37548,-1.83397 2.06322,-2.52171 2.06321,-3.43869 6.4189,0.68773 6.4189,-11.23307 8.94062,-29.1143 6.64814,-6.87739 2.06322,-24.52937 -1.83397,-1.83397 0.22925,-6.18965 h 2.52171 l -5.04343,-50.66347 -2.75095,1.14624 -0.4585,2.9802 -4.35568,6.87739 -1.60472,1.60473 -0.4585,4.81417 -0.91698,1.37548 1.83397,-0.91698 0.45849,1.83397 -1.37548,2.06321 0.91699,2.75096 -2.52171,0.91699 0.22925,3.20945 -3.4387,3.20945 -0.68774,-2.52171 -2.29246,0.68774 -5.04343,-0.68774 -3.43869,1.14623 -0.4585,2.29246 6.64815,6.8774 4.12644,5.50191 4.12643,12.60855 -0.91698,3.89719 -12.15006,15.13027 -3.20945,2.75096 -4.12644,5.50191 -4.12644,7.10664 -2.52171,7.33589 0.68774,3.20945 8.25287,1.37547 -5.9604,11.92082 h -2.29247 l -3.43869,16.2765 -2.75096,6.18965 -16.73499,1.83397 -3.89719,9.16986 -3.66794,1.14623 z"
     id="punjab_suleman_plateau" />
  <path
     style="fill:#23822c;fill-opacity:1"
     d="m 397.25733,370.79245 -10.54533,-24.98786 -3.20945,12.15006 -7.33589,13.2963 -6.4189,-0.68774 -10.08684,13.52554 -13.75479,10.31609 h -8.48212 l 5.73116,1.37548 0.68774,2.06321 2.52171,0.4585 -0.45849,3.20945 1.37548,2.29246 -0.22925,1.60473 2.98021,6.87739 2.29246,3.20945 1.83397,2.06322 7.10664,-6.64815 -0.45849,-4.35568 16.73499,-10.31609 5.27267,-5.04342 5.50191,-11.92082 4.81418,-1.37548 1.14623,-7.10664 z"
     id="punjab_south_irrigated_land" />
  <path
     style="fill:#79660c;fill-opacity:1"
     d="m 401.15452,291.24394 -0.22924,2.75096 2.52171,0.22925 2.06321,0.45849 2.75096,2.52171 1.56324,3.32065 1.74073,3.82961 1.04444,5.04813 0.6963,4.35183 0.69629,5.2222 0.34815,4.35184 5.74442,0.17407 1.39258,-1.39259 1.39259,-1.74073 1.04444,-2.08888 1.04444,-2.43703 0.87037,-2.26295 0.52222,-2.6111 0.34814,-2.6111 0.17408,-3.65554 v -3.30739 l -0.17408,-2.6111 -0.17407,-2.95925 v -2.6111 l 0.34815,-2.95924 0.52222,-3.13332 0.52222,-2.78518 0.87036,-2.95924 0.87037,-2.43703 10.79254,-6.78886 1.56666,-1.21851 1.91481,-1.74074 1.74073,-2.43702 0.6963,-2.6111 v -3.13332 l -0.34815,-4.00369 -0.87037,-18.62584 0.34815,-2.43703 0.52222,-1.39259 1.21851,-1.39258 1.74074,-1.04444 0.17407,-4.17776 0.17407,-7.31108 -2.26295,-0.34815 -3.30739,-1.91481 -1.56666,-2.26295 -1.04444,-2.6111 -0.52222,-0.87037 -8.35552,0.17408 -36.03318,27.50358 5.04813,49.6109 z"
     id="punjab_desert2" />
</svg>
