<svg xmlns="http://www.w3.org/2000/svg" xmlns:xlink="http://www.w3.org/1999/xlink" width="1080" zoomAndPan="magnify" viewBox="0 0 810 809.999993" height="1080" preserveAspectRatio="xMidYMid meet" version="1.2"><defs><clipPath id="cc6b6babb9"><path d="M 412 88.085938 L 500 88.085938 L 500 223 L 412 223 Z M 412 88.085938 "/></clipPath></defs><g id="a412f0b004"><path style=" stroke:none;fill-rule:nonzero;fill:#ed2324;fill-opacity:1;" d="M 415.984375 255.664062 C 421.359375 249.707031 427.042969 244.0625 433.035156 238.726562 C 439.027344 233.386719 445.292969 228.394531 451.832031 223.742188 C 458.367188 219.09375 465.140625 214.808594 472.144531 210.898438 C 479.148438 206.988281 486.347656 203.46875 493.734375 200.34375 C 532.484375 184.09375 572.5625 178.835938 614.019531 186.691406 C 671.453125 197.566406 708.261719 232.214844 727.113281 286.652344 C 743.503906 333.988281 746.226562 382.984375 741.78125 432.394531 C 735.621094 500.894531 720.46875 567.378906 690.796875 629.695312 C 680.195312 652.226562 667.414062 673.445312 652.457031 693.347656 C 604.539062 756.304688 542.050781 774.144531 463.648438 751.652344 C 449.402344 747.5625 436.011719 740.121094 422.71875 733.265625 C 417.507812 730.578125 414.238281 730.050781 408.96875 733.207031 C 366.90625 758.410156 321.429688 766.277344 273.433594 757.148438 C 238.492188 750.5 210.96875 730.667969 187.785156 704.476562 C 158.929688 671.84375 139.65625 633.667969 125.121094 593.015625 C 101.101562 525.863281 86.933594 456.800781 88.160156 385.179688 C 88.832031 346.160156 94.152344 307.816406 110.214844 271.6875 C 133.539062 219.242188 174.507812 190.816406 230.894531 184.804688 C 301.605469 177.277344 361.238281 201.113281 411.078125 251.035156 C 412.425781 252.394531 413.851562 253.660156 415.984375 255.664062 Z M 415.984375 255.664062 "/><path style=" stroke:none;fill-rule:nonzero;fill:#472f18;fill-opacity:1;" d="M 336.019531 155.160156 C 345.105469 163.253906 353.4375 172.0625 361.015625 181.582031 C 368.59375 191.101562 375.308594 201.195312 381.164062 211.867188 C 391.96875 218.875 402.113281 226.746094 411.589844 235.46875 C 412.214844 229.148438 412.242188 222.824219 411.679688 216.5 C 408.382812 179.875 392.097656 147.371094 369.679688 117 C 365.027344 110.691406 357.128906 109.714844 352.800781 115.167969 C 346.480469 123.105469 340.5625 131.386719 334.460938 139.859375 C 334.050781 140.429688 333.691406 141.03125 333.390625 141.667969 C 333.085938 142.300781 332.84375 142.957031 332.660156 143.636719 C 332.480469 144.316406 332.359375 145.007812 332.304688 145.707031 C 332.246094 146.40625 332.253906 147.109375 332.324219 147.808594 C 332.398438 148.507812 332.53125 149.195312 332.726562 149.871094 C 332.925781 150.542969 333.179688 151.195312 333.496094 151.824219 C 333.8125 152.453125 334.183594 153.046875 334.605469 153.609375 C 335.03125 154.167969 335.503906 154.683594 336.019531 155.160156 Z M 336.019531 155.160156 "/><g clip-rule="nonzero" clip-path="url(#cc6b6babb9)"><path style=" stroke:none;fill-rule:nonzero;fill:#0d7244;fill-opacity:1;" d="M 425.90625 222.402344 C 425.664062 210.851562 428.421875 175.386719 442.851562 155.601562 C 442.925781 155.507812 442.957031 155.402344 442.945312 155.285156 C 442.9375 155.167969 442.886719 155.070312 442.800781 154.992188 C 442.710938 154.914062 442.609375 154.875 442.488281 154.878906 C 442.371094 154.878906 442.269531 154.925781 442.1875 155.007812 C 435.203125 161.960938 421.625 179.191406 416.914062 211.460938 C 409.578125 183.394531 401.367188 114.050781 488.832031 88.359375 C 488.832031 88.359375 537.785156 196.851562 425.90625 222.402344 Z M 425.90625 222.402344 "/></g></g></svg>