<svg xmlns="http://www.w3.org/2000/svg" xmlns:xlink="http://www.w3.org/1999/xlink" width="1080" zoomAndPan="magnify" viewBox="0 0 810 809.999993" height="1080" preserveAspectRatio="xMidYMid meet" version="1.2"><defs><clipPath id="eb7f407e1c"><path d="M 81 169 L 732 169 L 732 766.164062 L 81 766.164062 Z M 81 169 "/></clipPath><clipPath id="4e0c46e192"><path d="M 99 169 L 732 169 L 732 766.164062 L 99 766.164062 Z M 99 169 "/></clipPath><clipPath id="dff1bdce90"><path d="M 514 43.914062 L 715 43.914062 L 715 275 L 514 275 Z M 514 43.914062 "/></clipPath><clipPath id="aabecd0d35"><path d="M 514 43.914062 L 606 43.914062 L 606 81 L 514 81 Z M 514 43.914062 "/></clipPath></defs><g id="c6e35ede0d"><g clip-rule="nonzero" clip-path="url(#eb7f407e1c)"><path style=" stroke:none;fill-rule:nonzero;fill:#ffe082;fill-opacity:1;" d="M 605.144531 170.308594 C 623.199219 170.308594 731.550781 152.253906 731.550781 314.757812 C 731.550781 477.265625 496.792969 766.164062 171.742188 766.164062 C 135.625 766.164062 99.507812 748.109375 99.507812 748.109375 L 81.449219 693.941406 C 81.449219 693.941406 99.507812 621.714844 207.855469 567.546875 C 316.207031 513.378906 393.191406 467.984375 439.238281 421.960938 C 475.355469 385.863281 532.910156 314.757812 532.910156 260.589844 C 532.910156 225.238281 569.027344 188.367188 569.027344 188.367188 "/></g><g clip-rule="nonzero" clip-path="url(#4e0c46e192)"><path style=" stroke:none;fill-rule:nonzero;fill:#ffca28;fill-opacity:1;" d="M 117.566406 711.996094 C 117.566406 711.996094 243.972656 675.882812 352.324219 621.714844 C 460.675781 567.546875 695.433594 405.039062 623.199219 170.308594 C 623.199219 170.308594 731.550781 152.253906 731.550781 314.757812 C 731.550781 477.265625 496.792969 766.164062 171.742188 766.164062 C 135.625 766.164062 99.507812 748.109375 99.507812 748.109375 Z M 117.566406 711.996094 "/></g><g clip-rule="nonzero" clip-path="url(#dff1bdce90)"><path style=" stroke:none;fill-rule:nonzero;fill:#c0ca33;fill-opacity:1;" d="M 714.632812 223.359375 C 680.769531 150.753906 605.144531 188.367188 605.144531 43.914062 C 550.96875 43.914062 514.851562 80.027344 514.851562 80.027344 C 514.851562 80.027344 569.027344 134.195312 569.027344 188.367188 C 605.144531 188.367188 634.253906 185.53125 637.484375 274.132812 C 661.898438 170.6875 714.632812 223.359375 714.632812 223.359375 Z M 714.632812 223.359375 "/></g><path style=" stroke:none;fill-rule:nonzero;fill:#c0ca33;fill-opacity:1;" d="M 532.910156 260.589844 C 532.910156 260.589844 531.769531 227.855469 569.027344 188.367188 C 606.28125 148.875 641.820312 181.035156 641.820312 181.035156 L 637.484375 274.132812 C 637.484375 274.132812 621.683594 215.449219 596.855469 213.953125 C 544.484375 210.792969 532.910156 260.589844 532.910156 260.589844 Z M 532.910156 260.589844 "/><path style=" stroke:none;fill-rule:nonzero;fill:#5d4037;fill-opacity:1;" d="M 81.449219 711.996094 L 99.507812 748.109375 L 117.566406 748.109375 L 117.566406 711.996094 L 81.449219 693.941406 Z M 81.449219 711.996094 "/><g clip-rule="nonzero" clip-path="url(#aabecd0d35)"><path style=" stroke:none;fill-rule:nonzero;fill:#827717;fill-opacity:1;" d="M 605.144531 43.914062 C 550.96875 43.914062 514.851562 80.027344 514.851562 80.027344 L 569.027344 80.027344 Z M 605.144531 43.914062 "/></g></g></svg>