<svg xmlns="http://www.w3.org/2000/svg" xmlns:xlink="http://www.w3.org/1999/xlink" width="1080" zoomAndPan="magnify" viewBox="0 0 810 809.999993" height="1080" preserveAspectRatio="xMidYMid meet" version="1.2"><defs><clipPath id="6238f61ca0"><path d="M 531 44 L 721 44 L 721 248 L 531 248 Z M 531 44 "/></clipPath><clipPath id="dc39607be9"><path d="M -5.066406 279 L 711.957031 34.691406 L 867.25 490.460938 L 150.226562 734.769531 Z M -5.066406 279 "/></clipPath><clipPath id="d4b40a68b0"><path d="M -5.066406 279 L 711.957031 34.691406 L 867.25 490.460938 L 150.226562 734.769531 Z M -5.066406 279 "/></clipPath><clipPath id="a8e76c3113"><path d="M -5.066406 279 L 711.957031 34.691406 L 867.25 490.460938 L 150.226562 734.769531 Z M -5.066406 279 "/></clipPath><clipPath id="00d5429059"><path d="M 125 169 L 716 169 L 716 680 L 125 680 Z M 125 169 "/></clipPath><clipPath id="dc8a0c4a8d"><path d="M -5.066406 279 L 711.957031 34.691406 L 867.25 490.460938 L 150.226562 734.769531 Z M -5.066406 279 "/></clipPath><clipPath id="3531564af7"><path d="M -5.066406 279 L 711.957031 34.691406 L 867.25 490.460938 L 150.226562 734.769531 Z M -5.066406 279 "/></clipPath><clipPath id="ed2025ad3c"><path d="M -5.066406 279 L 711.957031 34.691406 L 867.25 490.460938 L 150.226562 734.769531 Z M -5.066406 279 "/></clipPath><clipPath id="5843a2248e"><path d="M 453 190 L 531 190 L 531 390 L 453 390 Z M 453 190 "/></clipPath><clipPath id="96dad9a612"><path d="M -5.066406 279 L 711.957031 34.691406 L 867.25 490.460938 L 150.226562 734.769531 Z M -5.066406 279 "/></clipPath><clipPath id="d098c69306"><path d="M -5.066406 279 L 711.957031 34.691406 L 867.25 490.460938 L 150.226562 734.769531 Z M -5.066406 279 "/></clipPath><clipPath id="af613742dd"><path d="M -5.066406 279 L 711.957031 34.691406 L 867.25 490.460938 L 150.226562 734.769531 Z M -5.066406 279 "/></clipPath><clipPath id="5ee5d860a1"><path d="M 566 45 L 719 45 L 719 196 L 566 196 Z M 566 45 "/></clipPath><clipPath id="bb573466f5"><path d="M -5.066406 279 L 711.957031 34.691406 L 867.25 490.460938 L 150.226562 734.769531 Z M -5.066406 279 "/></clipPath><clipPath id="54f53f68e3"><path d="M -5.066406 279 L 711.957031 34.691406 L 867.25 490.460938 L 150.226562 734.769531 Z M -5.066406 279 "/></clipPath><clipPath id="7eb0fd768e"><path d="M -5.066406 279 L 711.957031 34.691406 L 867.25 490.460938 L 150.226562 734.769531 Z M -5.066406 279 "/></clipPath></defs><g id="01b28692e6"><g clip-rule="nonzero" clip-path="url(#6238f61ca0)"><g clip-rule="nonzero" clip-path="url(#dc39607be9)"><g clip-rule="nonzero" clip-path="url(#d4b40a68b0)"><g clip-rule="nonzero" clip-path="url(#a8e76c3113)"><path style=" stroke:none;fill-rule:nonzero;fill:#91942c;fill-opacity:1;" d="M 654.25 135.101562 C 638.394531 171.199219 619.738281 186.171875 626.335938 195.886719 C 630.882812 202.582031 641.808594 198.503906 668.5 209.703125 C 672.554688 211.40625 683.472656 216.054688 682.890625 218.742188 C 682.117188 222.339844 660.964844 218.234375 643.308594 225.257812 C 641.546875 225.960938 636.539062 227.992188 632.375 229.882812 C 625.691406 232.914062 622.214844 234.296875 619.289062 235.914062 C 612.273438 239.792969 610.1875 242.59375 606.976562 244.609375 C 596.074219 251.453125 579.453125 244.453125 574.261719 242.261719 C 541.417969 228.402344 524.910156 180.066406 533.632812 172.703125 C 536.0625 170.652344 540.554688 172.09375 549.539062 174.976562 C 567.847656 180.855469 571.671875 188.808594 582.558594 189.214844 C 591.722656 189.554688 598.765625 184.273438 603.492188 180.730469 C 615.464844 171.753906 621.46875 157.320312 626.683594 144.792969 C 627.199219 143.550781 627.558594 142.636719 627.734375 142.1875 C 651.597656 81.519531 663.527344 51.183594 682.164062 45.535156 C 696.753906 41.109375 716.496094 48.199219 719.753906 59.113281 C 722.371094 67.867188 714.855469 80.675781 706.097656 82.355469 C 695.980469 84.296875 691.011719 70.078125 681.941406 71.15625 C 669.875 72.59375 669.929688 99.402344 654.25 135.101562 Z M 654.25 135.101562 "/></g></g></g></g><g clip-rule="nonzero" clip-path="url(#00d5429059)"><g clip-rule="nonzero" clip-path="url(#dc8a0c4a8d)"><g clip-rule="nonzero" clip-path="url(#3531564af7)"><g clip-rule="nonzero" clip-path="url(#ed2025ad3c)"><path style=" stroke:none;fill-rule:nonzero;fill:#b61918;fill-opacity:1;" d="M 707.464844 320.527344 C 678.71875 427.679688 578.886719 512.011719 536.101562 547.425781 C 473.757812 599.027344 415.167969 644.484375 323.546875 668.324219 C 278.527344 680.039062 242.800781 679.957031 206.878906 679.871094 C 206.878906 679.871094 180.816406 679.8125 144.128906 668.429688 C 130.019531 664.054688 125.226562 661.203125 125.285156 658.4375 C 125.425781 651.964844 152.0625 647.722656 161.59375 646.066406 C 172.582031 644.15625 238.023438 632.785156 295.925781 599.90625 C 316.347656 588.308594 368.867188 558.488281 402.882812 498.699219 C 421.71875 465.585938 427.851562 428.617188 440.113281 354.683594 C 450.703125 290.828125 449.644531 261.730469 473.292969 221.644531 C 480.75 209.011719 504.996094 167.917969 534.613281 169.890625 C 539.6875 170.230469 543.808594 171.761719 546.585938 173.066406 C 568.660156 209.019531 587.703125 217.390625 601.144531 218.261719 C 607.511719 218.671875 611.433594 217.328125 624.308594 215.574219 C 646.671875 212.527344 664.929688 212.492188 676.726562 212.917969 C 686.183594 217.636719 696.296875 223.351562 703.984375 233.867188 C 723.152344 260.070312 713.648438 297.480469 707.464844 320.53125 Z M 707.464844 320.527344 "/></g></g></g></g><g clip-rule="nonzero" clip-path="url(#5843a2248e)"><g clip-rule="nonzero" clip-path="url(#96dad9a612)"><g clip-rule="nonzero" clip-path="url(#d098c69306)"><g clip-rule="nonzero" clip-path="url(#af613742dd)"><path style=" stroke:none;fill-rule:nonzero;fill:#fc8181;fill-opacity:1;" d="M 488.855469 227.738281 C 501.585938 205.433594 509.6875 199.460938 514.414062 196.539062 C 517.445312 194.667969 526.617188 188.839844 529.453125 191.417969 C 533.550781 195.148438 520.722656 213.121094 508.691406 235.820312 C 497.851562 256.269531 490.445312 278.242188 475.640625 322.191406 C 460.09375 368.332031 455.847656 389.960938 453.628906 389.507812 C 451.527344 389.082031 455.71875 358.445312 464.4375 297.222656 C 465.234375 291.609375 466.308594 284.230469 468.855469 274.578125 C 474.535156 253.058594 482.730469 238.46875 488.855469 227.738281 Z M 488.855469 227.738281 "/></g></g></g></g><g clip-rule="nonzero" clip-path="url(#5ee5d860a1)"><g clip-rule="nonzero" clip-path="url(#bb573466f5)"><g clip-rule="nonzero" clip-path="url(#54f53f68e3)"><g clip-rule="nonzero" clip-path="url(#7eb0fd768e)"><path style=" stroke:none;fill-rule:nonzero;fill:#569016;fill-opacity:1;" d="M 684.007812 46.554688 C 693.339844 43.730469 703.011719 46.015625 709.824219 50.652344 C 712.949219 52.777344 716.839844 55.429688 718.167969 60.402344 C 720.347656 68.585938 713.578125 75.542969 713.023438 76.097656 C 711.296875 77.824219 707.550781 81.539062 702.652344 80.832031 C 697.382812 80.070312 693.578125 74.597656 693.449219 69.539062 C 693.34375 65.453125 695.625 61.03125 697.480469 61.105469 C 699.691406 61.191406 699.269531 67.613281 704.488281 71.410156 C 705.296875 72 709.070312 74.585938 712.199219 73.230469 C 715.503906 71.796875 716.496094 66.300781 715.804688 62.484375 C 714.289062 54.128906 703.632812 48.042969 694.488281 47.632812 C 684.417969 47.179688 676.464844 53.617188 674.691406 55.050781 C 674.691406 55.050781 673.066406 56.363281 671.585938 57.929688 C 662.132812 67.894531 651.964844 102.890625 650.496094 108.019531 C 649.210938 110.949219 647.246094 115.441406 644.839844 120.917969 C 635.539062 142.105469 630.851562 152.765625 629.203125 155.929688 C 619.914062 173.765625 615.339844 182.953125 605.210938 189.292969 C 601.382812 191.683594 592.867188 196.84375 582.523438 195.121094 C 572.765625 193.496094 565.992188 186.515625 566.257812 186.074219 C 566.484375 185.691406 571.871094 190.457031 580.167969 191.429688 C 590.027344 192.582031 598.121094 187.6875 600.480469 186.261719 C 608.875 181.1875 613.699219 173.609375 619.304688 164.699219 C 624.664062 156.179688 625.03125 154.085938 640.265625 120.679688 C 646.664062 106.648438 652.707031 93.628906 654.921875 86.300781 C 655.226562 85.292969 656.59375 80.710938 659.082031 74.695312 C 659.699219 73.199219 660.394531 71.625 661.195312 69.929688 C 666.441406 58.820312 670.429688 54.980469 672.191406 53.429688 C 674.160156 51.695312 678.003906 48.375 684.007812 46.554688 Z M 684.007812 46.554688 "/></g></g></g></g></g></svg>