<svg xmlns="http://www.w3.org/2000/svg" xmlns:xlink="http://www.w3.org/1999/xlink" width="1080" zoomAndPan="magnify" viewBox="0 0 810 809.999993" height="1080" preserveAspectRatio="xMidYMid meet" version="1.2"><g id="d49b772038"><path style=" stroke:none;fill-rule:nonzero;fill:#9d6f55;fill-opacity:1;" d="M 396.910156 97.171875 C 404.285156 96.527344 411.628906 100.324219 417.867188 103.914062 C 430.726562 111.3125 455.023438 130.238281 458.949219 144.703125 C 458.152344 148.625 456.082031 152.363281 454.964844 156.226562 C 452.574219 164.492188 450.824219 173.136719 449.351562 181.609375 C 454.800781 193.03125 462.667969 204.269531 472.273438 212.542969 C 485.242188 223.714844 503.332031 231.550781 518.183594 240.121094 C 543.863281 254.9375 569.371094 271.253906 592.207031 290.226562 C 634.867188 325.671875 673.078125 371.910156 686.574219 426.734375 C 688.480469 434.484375 690.058594 442.25 690.785156 450.207031 C 691.867188 462.042969 692.011719 474.1875 690.671875 486.007812 C 686.691406 521.1875 670.632812 555.019531 648.085938 582.0625 C 625.730469 608.882812 596.574219 630.148438 563.15625 640.972656 C 552.203125 644.515625 540.902344 646.808594 529.574219 648.765625 C 523.394531 649.832031 517.179688 650.855469 510.933594 651.476562 C 504.707031 652.097656 496.945312 652.109375 490.992188 653.886719 C 485.40625 655.554688 479.8125 659.523438 474.386719 661.957031 C 456.628906 669.914062 440.921875 674.957031 421.515625 676.730469 C 392.3125 680.027344 364.183594 673.992188 337.308594 662.78125 C 334.273438 661.515625 331.347656 660.132812 328.457031 658.566406 C 325.089844 656.742188 321.457031 653.960938 317.726562 653.089844 C 314.648438 652.371094 311.105469 652.476562 307.941406 652.257812 C 303.027344 651.894531 298.117188 651.457031 293.21875 650.941406 C 290.726562 650.65625 288.242188 650.324219 285.761719 649.949219 C 283.28125 649.570312 280.808594 649.152344 278.34375 648.6875 C 275.878906 648.226562 273.421875 647.71875 270.976562 647.167969 C 268.527344 646.617188 266.09375 646.023438 263.667969 645.382812 C 261.242188 644.746094 258.828125 644.066406 256.425781 643.34375 C 254.023438 642.621094 251.636719 641.851562 249.261719 641.042969 C 246.886719 640.238281 244.527344 639.386719 242.183594 638.492188 C 239.839844 637.601562 237.511719 636.667969 235.203125 635.691406 C 227.519531 632.394531 220.164062 628.535156 212.878906 624.445312 C 185.617188 609.144531 167.945312 591.847656 150.855469 565.726562 C 142.808594 553.425781 135.949219 540.664062 130.503906 527.007812 C 125.640625 514.808594 122.519531 502.214844 120.519531 489.257812 C 119.0625 479.800781 118.085938 470.164062 118.328125 460.582031 C 120.183594 387.429688 174.285156 324.914062 229.179688 282.046875 C 235.453125 277.148438 241.976562 272.734375 248.464844 268.140625 C 255.285156 263.3125 262.023438 258.464844 269.070312 253.96875 C 278.988281 247.757812 288.953125 241.621094 298.960938 235.558594 C 310.277344 228.957031 321.496094 222.195312 332.617188 215.269531 C 341.628906 209.589844 351.839844 204.035156 358.671875 195.699219 C 362.703125 190.78125 366.136719 184.875 368.363281 178.917969 C 370.554688 173.0625 371.570312 166.519531 372.9375 160.417969 C 376.648438 143.863281 379.777344 126.933594 386.53125 111.28125 C 388.617188 106.449219 391.664062 99.25 396.910156 97.171875 Z M 396.910156 97.171875 "/><path style=" stroke:none;fill-rule:nonzero;fill:#dfbe9d;fill-opacity:1;" d="M 399.886719 101.816406 C 402.230469 101.894531 404.222656 102.453125 406.394531 103.292969 C 411.875 105.414062 417.367188 108.585938 422.171875 111.949219 C 429.375 116.992188 450.148438 134.953125 453.207031 142.578125 C 453.753906 143.949219 453.558594 144.992188 453.003906 146.316406 C 452.199219 146.398438 451.410156 146.417969 450.601562 146.324219 C 442.105469 145.324219 430.699219 136.726562 424.460938 130.957031 C 420.457031 127.257812 416.761719 123.140625 413.027344 119.171875 C 409.230469 115.140625 405.324219 111.09375 401.964844 106.683594 C 400.8125 105.167969 399.625 103.796875 399.886719 101.816406 Z M 399.886719 101.816406 "/><path style=" stroke:none;fill-rule:nonzero;fill:#efe3d3;fill-opacity:1;" d="M 395.789062 104.234375 C 392.011719 114.113281 389.226562 124.230469 387 134.570312 C 385.285156 142.507812 383.753906 150.492188 382.15625 158.453125 C 379.242188 173.007812 376.410156 187.285156 367.023438 199.316406 C 358.347656 210.433594 345.644531 217.1875 333.890625 224.519531 C 323.515625 230.996094 313.039062 237.316406 302.46875 243.476562 C 295.460938 247.601562 288.410156 251.558594 281.554688 255.941406 C 253.730469 273.746094 230.046875 291.011719 205.734375 313.457031 C 199.472656 319.238281 193.199219 325.054688 187.378906 331.277344 C 179.558594 339.726562 172.292969 348.625 165.582031 357.976562 C 155.949219 371.179688 148.019531 384.679688 141.417969 399.621094 C 127.121094 431.972656 123.152344 463.839844 130.867188 498.496094 C 132.035156 503.953125 133.476562 509.335938 135.195312 514.644531 C 136.914062 519.953125 138.898438 525.164062 141.148438 530.273438 C 153.429688 557.710938 171.648438 584.140625 195.554688 602.722656 C 202.585938 608.1875 210.351562 612.929688 218.078125 617.34375 C 223.222656 620.28125 228.414062 623.285156 233.8125 625.746094 C 224.457031 618.453125 215.269531 611.738281 206.882812 603.253906 C 181.867188 577.949219 168.304688 542.257812 163.964844 507.363281 C 158.28125 461.636719 165.863281 414.609375 188.4375 374.171875 C 194.402344 363.480469 201.515625 353.371094 209.039062 343.722656 C 224.910156 323.375 244.414062 305.832031 264.058594 289.207031 C 276.035156 278.953125 288.246094 268.980469 300.691406 259.292969 C 311.902344 250.636719 323.011719 241.847656 334.015625 232.929688 C 348.5625 221.277344 365.921875 208.667969 375.8125 192.617188 C 387.085938 174.316406 390.335938 152.539062 396.945312 132.378906 C 398.421875 127.871094 399.757812 123.125 401.828125 118.847656 C 395.621094 144.277344 392.710938 172.851562 378.449219 195.253906 C 366.226562 214.449219 340.972656 232.136719 323.023438 246.421875 C 301.5625 263.5 279.804688 280.257812 259.109375 298.265625 C 245.90625 309.753906 232.738281 321.777344 221.105469 334.871094 C 219.65625 336.472656 218.226562 338.09375 216.828125 339.742188 C 215.429688 341.386719 214.054688 343.054688 212.707031 344.742188 C 211.359375 346.429688 210.035156 348.136719 208.738281 349.867188 C 207.445312 351.597656 206.175781 353.34375 204.933594 355.113281 C 203.691406 356.882812 202.476562 358.671875 201.292969 360.476562 C 200.105469 362.28125 198.953125 364.105469 197.824219 365.945312 C 196.695312 367.789062 195.59375 369.648438 194.523438 371.523438 C 193.453125 373.398438 192.410156 375.292969 191.394531 377.203125 C 190.382812 379.109375 189.398438 381.035156 188.445312 382.972656 C 187.492188 384.910156 186.570312 386.863281 185.675781 388.832031 C 184.785156 390.796875 183.925781 392.777344 183.09375 394.773438 C 182.261719 396.765625 181.460938 398.769531 180.691406 400.789062 C 179.921875 402.808594 179.1875 404.84375 178.480469 406.882812 C 177.777344 408.925781 177.101562 410.976562 176.460938 413.039062 C 175.820312 415.101562 175.207031 417.171875 174.632812 419.253906 C 174.054688 421.335938 173.507812 423.421875 172.996094 425.523438 C 167.191406 449.800781 165.660156 474.019531 167.753906 498.859375 C 169.332031 514.132812 172.28125 528.804688 177.039062 543.410156 C 186.464844 572.339844 200.847656 593.703125 224.546875 612.953125 C 233.304688 620.0625 247.878906 630.34375 258.382812 634.382812 C 266.722656 637.59375 275.996094 639.378906 284.785156 640.847656 C 289.9375 641.707031 295.148438 642.121094 300.296875 642.941406 C 264 625.742188 240.066406 595.1875 226.699219 557.839844 C 221.078125 542.140625 218.292969 525.96875 217.558594 509.320312 C 215.378906 459.964844 231.734375 396.792969 252.832031 352.390625 C 273.578125 308.71875 304.03125 277.773438 339.285156 245.8125 C 341.90625 243.433594 351.601562 233.140625 353.832031 232.371094 C 354.75 232.054688 355.734375 232.109375 356.585938 232.585938 C 357.703125 233.21875 358.609375 234.425781 358.875 235.683594 C 359.132812 236.894531 358.792969 237.867188 358.082031 238.847656 C 355.03125 243.058594 343.335938 252.898438 338.882812 257 C 326.710938 268.214844 314.492188 279.636719 303.578125 292.09375 C 287.554688 310.382812 273.574219 330.089844 262.464844 351.730469 C 239.425781 396.609375 220.160156 473.78125 227.230469 523.84375 C 230.105469 544.195312 236.28125 562.621094 246.242188 580.589844 C 250.53125 588.328125 255.289062 595.761719 261.042969 602.503906 C 267.261719 609.796875 274.59375 616.402344 282.246094 622.15625 C 292.21875 629.648438 303.078125 635.390625 314.277344 640.824219 C 320.421875 643.804688 326.640625 646.554688 332.59375 649.910156 C 330.421875 647.949219 328.320312 645.917969 326.285156 643.816406 C 324.253906 641.710938 322.292969 639.546875 320.40625 637.3125 C 318.523438 635.074219 316.714844 632.777344 314.984375 630.417969 C 313.257812 628.058594 311.609375 625.644531 310.046875 623.171875 C 303.316406 612.503906 298.332031 600.867188 294.117188 589.019531 C 292.875 585.453125 291.699219 581.871094 290.585938 578.261719 C 289.476562 574.652344 288.4375 571.023438 287.464844 567.378906 C 286.492188 563.730469 285.585938 560.066406 284.75 556.382812 C 283.914062 552.703125 283.148438 549.003906 282.453125 545.296875 C 281.757812 541.585938 281.132812 537.859375 280.578125 534.125 C 280.023438 530.394531 279.539062 526.648438 279.125 522.898438 C 278.710938 519.144531 278.367188 515.386719 278.097656 511.621094 C 277.824219 507.859375 277.621094 504.089844 277.492188 500.316406 C 275.5 455.261719 284.640625 403.332031 301.75 361.558594 C 304.105469 355.960938 306.589844 350.425781 309.210938 344.945312 C 311.828125 339.464844 314.574219 334.050781 317.449219 328.703125 C 320.328125 323.351562 323.332031 318.074219 326.460938 312.867188 C 329.589844 307.664062 332.84375 302.535156 336.21875 297.484375 C 342.324219 288.339844 348.632812 279.335938 355.136719 270.46875 C 362.164062 261.03125 369.988281 251.554688 375.265625 241.003906 C 380.675781 230.195312 384.742188 218.714844 388.945312 207.402344 C 391.253906 201.195312 393.914062 195.027344 395.925781 188.71875 C 398.21875 181.527344 399.597656 174.046875 401.78125 166.816406 C 405.683594 153.902344 410.761719 141.382812 416.117188 129.019531 C 411.222656 123.867188 406.265625 118.746094 401.898438 113.132812 C 399.769531 110.394531 398.117188 106.71875 395.789062 104.234375 Z M 416.515625 129.585938 C 414.191406 135.351562 412.519531 141.472656 410.863281 147.460938 C 407.253906 160.496094 404.398438 173.710938 400.851562 186.75 C 398.726562 194.558594 395.289062 202.167969 392.371094 209.722656 C 388.539062 219.648438 385.023438 229.875 380.320312 239.425781 C 374.144531 251.964844 365.542969 262.714844 357.378906 273.964844 C 347.273438 287.898438 337.328125 302.058594 328.636719 316.929688 C 317.226562 336.457031 307.097656 356.671875 299.691406 378.09375 C 299.109375 379.792969 298.539062 381.492188 297.980469 383.203125 C 297.421875 384.910156 296.882812 386.625 296.351562 388.339844 C 295.824219 390.058594 295.304688 391.78125 294.804688 393.507812 C 294.300781 395.230469 293.816406 396.960938 293.34375 398.695312 C 292.867188 400.429688 292.40625 402.167969 291.960938 403.90625 C 291.515625 405.648438 291.082031 407.390625 290.664062 409.136719 C 290.246094 410.886719 289.84375 412.636719 289.453125 414.390625 C 289.0625 416.144531 288.6875 417.902344 288.328125 419.664062 C 287.964844 421.425781 287.617188 423.191406 287.285156 424.957031 C 286.953125 426.722656 286.632812 428.488281 286.328125 430.257812 C 286.027344 432.03125 285.734375 433.804688 285.457031 435.582031 C 285.183594 437.355469 284.921875 439.132812 284.675781 440.914062 C 284.425781 442.695312 284.195312 444.476562 283.976562 446.257812 C 283.761719 448.042969 283.554688 449.828125 283.367188 451.613281 C 283.175781 453.402344 283 455.1875 282.839844 456.976562 C 282.679688 458.769531 282.53125 460.5625 282.398438 462.351562 C 282.269531 464.144531 282.152344 465.9375 282.050781 467.730469 C 281.945312 469.527344 281.855469 471.320312 281.78125 473.113281 C 281.707031 474.910156 281.648438 476.707031 281.605469 478.5 C 281.558594 480.296875 281.527344 482.09375 281.511719 483.890625 C 281.496094 485.6875 281.492188 487.484375 281.503906 489.28125 C 281.519531 491.078125 281.546875 492.875 281.589844 494.671875 C 281.632812 496.46875 281.6875 498.265625 281.757812 500.0625 C 281.828125 501.859375 281.914062 503.652344 282.015625 505.445312 C 282.113281 507.238281 282.226562 509.03125 282.355469 510.824219 C 282.480469 512.617188 282.625 514.410156 282.785156 516.199219 C 282.941406 517.988281 283.113281 519.78125 283.300781 521.566406 C 283.488281 523.355469 283.6875 525.140625 283.902344 526.921875 C 284.117188 528.707031 284.347656 530.488281 284.589844 532.269531 C 284.835938 534.046875 285.089844 535.828125 285.363281 537.605469 C 285.636719 539.382812 285.921875 541.15625 286.222656 542.925781 C 286.523438 544.699219 286.839844 546.46875 287.171875 548.234375 C 290.320312 565.035156 294.699219 581.886719 301.421875 597.648438 C 312.953125 624.691406 330.277344 649.929688 358.558594 661.292969 C 364.777344 663.792969 371.390625 665.328125 377.933594 666.6875 C 372.789062 656.496094 368.457031 648.269531 364.914062 637.328125 C 358.699219 618.148438 355.585938 595.390625 353.320312 575.386719 C 352.429688 567.527344 351.441406 559.675781 350.800781 551.789062 C 349.574219 534.691406 348.992188 517.574219 349.058594 500.433594 C 349.128906 490.023438 349.765625 479.582031 350.4375 469.191406 C 353.386719 423.570312 360.75 377.429688 375.066406 333.921875 C 378.953125 322.105469 383.425781 310.257812 388.445312 298.878906 C 391.402344 292.167969 396.183594 286 397.738281 278.757812 C 399.03125 272.753906 398.832031 266.242188 398.917969 260.128906 C 398.953125 253.605469 399.1875 247.089844 399.621094 240.578125 C 400.082031 233.859375 401.273438 227.136719 402.480469 220.519531 C 406.527344 198.3125 412.625 175.628906 422.351562 155.167969 L 422.660156 155.117188 C 422.261719 158.09375 420.6875 161.382812 419.761719 164.304688 C 418.191406 169.386719 416.746094 174.503906 415.433594 179.660156 C 411.035156 197.324219 407.808594 215.171875 404.828125 233.117188 C 403.363281 241.9375 403.339844 250.992188 403.222656 259.917969 C 403.136719 266.503906 403.367188 273.445312 401.753906 279.863281 C 400.296875 285.660156 397.246094 290.457031 394.554688 295.710938 C 392.9375 298.863281 391.542969 302.148438 390.125 305.398438 C 387.082031 312.375 384.589844 319.476562 382.058594 326.648438 C 379.054688 335.167969 376.089844 343.769531 373.773438 352.503906 C 373.054688 355.183594 372.347656 357.867188 371.667969 360.554688 C 370.988281 363.246094 370.324219 365.941406 369.683594 368.640625 C 369.039062 371.339844 368.414062 374.042969 367.808594 376.75 C 367.203125 379.457031 366.621094 382.171875 366.054688 384.890625 C 365.488281 387.605469 364.941406 390.324219 364.410156 393.046875 C 363.882812 395.769531 363.375 398.5 362.886719 401.230469 C 362.398438 403.960938 361.929688 406.695312 361.476562 409.433594 C 361.027344 412.171875 360.597656 414.914062 360.183594 417.65625 C 359.773438 420.402344 359.378906 423.148438 359.003906 425.898438 C 358.632812 428.648438 358.277344 431.398438 357.941406 434.15625 C 357.609375 436.910156 357.296875 439.664062 357.003906 442.421875 C 356.707031 445.183594 356.429688 447.945312 356.175781 450.707031 C 355.917969 453.46875 355.683594 456.230469 355.464844 458.996094 C 355.25 461.761719 355.054688 464.535156 354.875 467.300781 C 354.699219 470.070312 354.539062 472.839844 354.402344 475.613281 C 354.261719 478.382812 354.140625 481.152344 354.042969 483.925781 C 353.945312 486.699219 353.867188 489.472656 353.808594 492.246094 C 353.746094 495.019531 353.707031 497.792969 353.6875 500.570312 C 353.664062 503.34375 353.664062 506.117188 353.683594 508.894531 C 353.699219 511.667969 353.738281 514.441406 353.796875 517.214844 C 353.855469 519.988281 353.929688 522.761719 354.027344 525.535156 C 354.125 528.308594 354.246094 531.082031 354.382812 533.851562 C 354.519531 536.625 354.675781 539.394531 354.851562 542.164062 C 355.027344 544.933594 355.21875 547.699219 355.433594 550.464844 C 355.648438 553.230469 355.882812 555.996094 356.136719 558.757812 C 356.390625 561.523438 356.664062 564.285156 356.957031 567.042969 C 357.25 569.800781 357.5625 572.558594 357.894531 575.316406 C 358.226562 578.070312 358.582031 580.820312 358.953125 583.570312 C 359.324219 586.320312 359.710938 589.066406 360.121094 591.8125 C 360.53125 594.558594 360.960938 597.296875 361.410156 600.035156 C 361.859375 602.773438 362.328125 605.507812 362.8125 608.238281 C 363.300781 610.96875 363.808594 613.699219 364.335938 616.421875 C 367.355469 631.488281 371.699219 653.765625 379.292969 666.964844 C 395.722656 669.625 410.457031 669.667969 426.980469 667.820312 C 432.570312 667.039062 449.296875 663.386719 453.738281 660.605469 C 455.226562 659.671875 456.515625 658.078125 457.574219 656.679688 C 464.367188 647.671875 468.140625 635.246094 471.886719 624.726562 C 478.226562 606.921875 482.734375 588.882812 486.324219 570.347656 C 494.359375 528.84375 496.269531 492.101562 490.089844 450.199219 C 484.699219 413.660156 472.34375 378.660156 458.421875 344.597656 C 452.296875 329.621094 445.746094 314.753906 439.324219 299.898438 C 436.324219 292.957031 432.753906 286.25 430.355469 279.0625 C 424.585938 261.78125 421.78125 242.257812 422.121094 224.050781 C 422.398438 209.34375 425.113281 195.585938 428.511719 181.328125 C 429.902344 175.484375 431.792969 169.507812 432.71875 163.585938 L 433 163.277344 C 433.101562 165.910156 432.164062 168.734375 431.761719 171.355469 L 428.714844 191.601562 C 425.074219 217.363281 425.734375 238.601562 431.074219 263.925781 C 432.085938 268.722656 433.027344 273.621094 434.542969 278.285156 C 437.621094 287.757812 442.457031 296.90625 446.4375 306.035156 L 460.058594 338.105469 C 469.871094 361.402344 479.203125 385.265625 486.03125 409.621094 C 495.117188 442.03125 499.878906 477.402344 498.34375 511.074219 C 497.371094 532.40625 494.015625 553.53125 489.949219 574.464844 C 485.40625 597.851562 474.683594 640.359375 459.90625 658.996094 C 469.984375 655.375 479.414062 650.09375 488.289062 644.152344 C 491.441406 642.046875 494.691406 640.003906 497.699219 637.699219 C 498.707031 636.933594 499.703125 636.15625 500.6875 635.363281 C 501.671875 634.570312 502.644531 633.761719 503.605469 632.941406 C 504.566406 632.117188 505.511719 631.28125 506.449219 630.429688 C 507.382812 629.578125 508.304688 628.714844 509.214844 627.839844 C 510.125 626.960938 511.019531 626.070312 511.902344 625.164062 C 512.789062 624.261719 513.660156 623.34375 514.515625 622.414062 C 515.371094 621.484375 516.210938 620.535156 517.035156 619.582031 C 517.863281 618.625 518.679688 617.660156 519.480469 616.679688 C 520.277344 615.703125 521.0625 614.707031 521.832031 613.703125 C 522.601562 612.703125 523.351562 611.6875 524.089844 610.664062 C 524.832031 609.636719 525.554688 608.601562 526.265625 607.554688 C 526.972656 606.507812 527.664062 605.453125 528.339844 604.382812 C 529.019531 603.316406 529.679688 602.234375 530.324219 601.148438 C 530.96875 600.0625 531.59375 598.964844 532.207031 597.859375 C 532.820312 596.753906 533.417969 595.640625 533.996094 594.515625 C 534.574219 593.390625 535.136719 592.261719 535.679688 591.121094 C 536.570312 589.257812 537.425781 587.378906 538.238281 585.484375 C 539.050781 583.585938 539.824219 581.671875 540.558594 579.742188 C 541.292969 577.816406 541.992188 575.871094 542.648438 573.914062 C 543.304688 571.957031 543.914062 569.992188 544.488281 568.007812 C 545.0625 566.027344 545.597656 564.035156 546.089844 562.027344 C 546.582031 560.023438 547.03125 558.011719 547.441406 555.988281 C 547.851562 553.964844 548.21875 551.9375 548.546875 549.898438 C 548.871094 547.859375 549.15625 545.816406 549.398438 543.765625 C 553.96875 505.300781 546.015625 458.65625 537.425781 421.054688 C 532.457031 399.3125 526.765625 377.964844 519.132812 356.980469 C 512.902344 339.84375 505.800781 323.445312 495.519531 308.316406 C 487.441406 296.429688 478.601562 285.160156 469.59375 273.972656 C 465.695312 269.132812 461.582031 264.4375 457.839844 259.476562 C 444.523438 241.839844 437.796875 224.066406 438.460938 201.628906 C 438.808594 189.917969 441.304688 178.601562 444.1875 167.300781 C 445.472656 162.261719 447.003906 157.214844 447.90625 152.09375 C 439.144531 148.457031 431.726562 144.039062 424.742188 137.539062 C 421.957031 134.945312 419.429688 132.039062 416.515625 129.585938 Z M 447.632812 194.355469 C 444.484375 220.855469 452.820312 239.101562 468.621094 259.140625 C 473.234375 264.984375 478.078125 270.644531 482.671875 276.503906 C 489.257812 284.910156 495.542969 293.535156 501.53125 302.375 C 505.449219 308.128906 509.382812 313.929688 512.648438 320.078125 C 537.359375 366.582031 556.992188 456.933594 558.925781 510.042969 C 559.121094 515.261719 559.121094 520.476562 558.933594 525.695312 C 558.746094 530.914062 558.363281 536.121094 557.792969 541.3125 C 554.957031 565.628906 548.433594 585.285156 535.546875 606.132812 C 530.105469 614.9375 523.859375 623.433594 516.75 630.976562 C 512.140625 635.875 506.945312 639.863281 502.082031 644.441406 C 514.824219 642.992188 527.421875 640.753906 539.882812 637.734375 C 544.5 636.636719 549.378906 635.679688 553.742188 633.777344 C 558.289062 631.792969 562.15625 628.558594 566.09375 625.601562 C 581.339844 614.152344 595.136719 601.449219 607.1875 586.660156 C 629.28125 559.558594 639.535156 533.238281 642.585938 498.488281 C 643.214844 491.550781 643.511719 484.605469 643.476562 477.636719 C 643.441406 470.671875 643.070312 463.726562 642.371094 456.796875 C 640.320312 437.023438 633.390625 419.199219 624.25 401.699219 C 618.417969 390.53125 612.171875 379.835938 604.84375 369.5625 C 587.785156 345.648438 564.832031 323.730469 542.035156 305.269531 C 534.039062 298.789062 525.878906 292.507812 517.566406 286.4375 L 492.878906 268.515625 C 481.113281 259.882812 468.699219 250.800781 459.832031 239.046875 C 458.816406 237.699219 457.023438 235.679688 456.671875 234.007812 C 456.648438 233.898438 456.648438 233.785156 456.636719 233.671875 C 457.21875 233.148438 457.21875 233.054688 457.992188 233.03125 C 460.625 235.03125 462.851562 238.039062 465.28125 240.351562 C 471.027344 245.742188 476.945312 250.9375 483.035156 255.9375 C 504.101562 272.175781 526.402344 286.796875 547.023438 303.636719 C 563.917969 317.429688 580.269531 332.875 594.519531 349.402344 C 600.714844 356.703125 606.519531 364.296875 611.941406 372.183594 C 628.984375 396.476562 643.34375 423.296875 647.21875 453.089844 C 651.757812 487.957031 646.710938 529.492188 630.351562 560.933594 C 625.796875 569.691406 619.882812 578.042969 613.851562 585.847656 C 612.21875 588 610.542969 590.117188 608.824219 592.199219 C 607.105469 594.285156 605.34375 596.332031 603.542969 598.347656 C 601.742188 600.359375 599.898438 602.335938 598.019531 604.277344 C 596.136719 606.214844 594.21875 608.117188 592.261719 609.980469 C 590.304688 611.839844 588.3125 613.664062 586.28125 615.445312 C 584.25 617.226562 582.183594 618.964844 580.082031 620.664062 C 577.980469 622.363281 575.84375 624.019531 573.675781 625.632812 C 571.511719 627.246094 569.3125 628.820312 567.078125 630.34375 C 578.550781 626.34375 589.441406 620.539062 599.605469 613.929688 C 601.359375 612.804688 603.09375 611.652344 604.808594 610.46875 C 606.527344 609.289062 608.222656 608.074219 609.898438 606.835938 C 611.570312 605.59375 613.226562 604.332031 614.859375 603.035156 C 616.492188 601.738281 618.097656 600.414062 619.683594 599.0625 C 621.269531 597.710938 622.835938 596.332031 624.375 594.929688 C 625.914062 593.523438 627.425781 592.09375 628.917969 590.636719 C 630.410156 589.183594 631.875 587.699219 633.316406 586.195312 C 634.757812 584.6875 636.171875 583.160156 637.558594 581.605469 C 638.949219 580.050781 640.308594 578.476562 641.640625 576.878906 C 642.976562 575.277344 644.28125 573.652344 645.5625 572.007812 C 646.839844 570.363281 648.089844 568.695312 649.3125 567.007812 C 650.535156 565.320312 651.726562 563.617188 652.890625 561.886719 C 654.054688 560.160156 655.1875 558.414062 656.292969 556.644531 C 657.394531 554.878906 658.472656 553.09375 659.515625 551.289062 C 660.558594 549.488281 661.566406 547.667969 662.546875 545.832031 C 663.527344 543.992188 664.480469 542.140625 665.398438 540.269531 C 671.054688 528.554688 675.769531 516.59375 678.808594 503.917969 C 685.878906 474.421875 683.832031 441.589844 673.796875 413.015625 C 650.597656 346.941406 590.996094 292.640625 532.148438 257.535156 C 524.546875 252.921875 516.859375 248.453125 509.085938 244.136719 C 491.484375 234.566406 471.707031 225.503906 458.210938 210.214844 C 456.695312 208.507812 455.265625 206.722656 453.929688 204.867188 C 452.59375 203.011719 451.359375 201.09375 450.21875 199.113281 C 449.3125 197.558594 448.582031 195.882812 447.632812 194.355469 Z M 447.632812 194.355469 "/></g></svg>