<svg xmlns="http://www.w3.org/2000/svg" xmlns:xlink="http://www.w3.org/1999/xlink" width="1080" zoomAndPan="magnify" viewBox="0 0 810 809.999993" height="1080" preserveAspectRatio="xMidYMid meet" version="1.2"><defs><clipPath id="6b7c159c40"><path d="M 81 121 L 666 121 L 666 720.554688 L 81 720.554688 Z M 81 121 "/></clipPath><clipPath id="b46a766857"><path d="M 119 690 L 259 690 L 259 720.554688 L 119 720.554688 Z M 119 690 "/></clipPath><clipPath id="390b0dea60"><path d="M 119 143 L 666 143 L 666 720.554688 L 119 720.554688 Z M 119 143 "/></clipPath><clipPath id="a5b50ea022"><path d="M 536 110 L 795.75 110 L 795.75 177 L 536 177 Z M 536 110 "/></clipPath></defs><g id="0c7b9af393"><g clip-rule="nonzero" clip-path="url(#6b7c159c40)"><path style=" stroke:none;fill-rule:nonzero;fill:#f9b81d;fill-opacity:1;" d="M 119.519531 517.4375 C 32.855469 637.1875 119.519531 690.664062 119.519531 690.664062 C 119.519531 690.664062 312.632812 793.597656 523.324219 615.339844 C 844.34375 299.003906 523.324219 143.34375 523.324219 143.34375 C 523.324219 143.34375 415.648438 90.125 315.996094 151.558594 C 315.996094 151.558594 196.230469 220.523438 163.621094 409.757812 C 149.8125 481.023438 119.519531 517.4375 119.519531 517.4375 "/></g><path style=" stroke:none;fill-rule:nonzero;fill:#f5f5f5;fill-opacity:1;" d="M 163.042969 412.699219 C 176.363281 327.746094 208.84375 266.253906 240.453125 224.371094 C 209.738281 265.472656 178.09375 325.761719 163.621094 409.757812 C 163.433594 410.742188 163.238281 411.726562 163.042969 412.699219 M 315.992188 151.5625 C 351.324219 129.082031 388.566406 121.949219 421.578125 121.949219 C 421.8125 121.949219 422.03125 121.949219 422.269531 121.953125 C 389.476562 122.050781 352.203125 129.238281 315.992188 151.5625 "/><path style=" stroke:none;fill-rule:nonzero;fill:#edaf1a;fill-opacity:1;" d="M 162.152344 418.578125 C 162.441406 416.609375 162.734375 414.636719 163.042969 412.699219 C 163.238281 411.726562 163.433594 410.742188 163.621094 409.757812 C 178.09375 325.761719 209.738281 265.472656 240.453125 224.371094 C 278.855469 173.511719 315.996094 151.558594 315.996094 151.558594 C 352.207031 129.234375 389.480469 122.050781 422.273438 121.953125 C 479.132812 122.125 523.324219 143.34375 523.324219 143.34375 C 498.328125 136.257812 474.816406 133.050781 452.714844 133.050781 C 244.183594 133.050781 162.152344 418.578125 162.152344 418.578125 "/><g clip-rule="nonzero" clip-path="url(#b46a766857)"><path style=" stroke:none;fill-rule:nonzero;fill:#f5f5f5;fill-opacity:1;" d="M 258.898438 720.226562 C 174.996094 720.226562 119.515625 690.664062 119.515625 690.664062 L 119.519531 690.664062 C 119.734375 690.769531 175.164062 720.214844 258.898438 720.226562 "/></g><g clip-rule="nonzero" clip-path="url(#390b0dea60)"><path style=" stroke:none;fill-rule:nonzero;fill:#edaf1a;fill-opacity:1;" d="M 258.898438 720.226562 C 175.164062 720.214844 119.734375 690.769531 119.519531 690.664062 C 119.851562 690.695312 150.800781 694.386719 195.824219 694.386719 C 275.710938 694.386719 399.878906 682.785156 475.65625 618.664062 C 756.554688 334.960938 523.308594 143.34375 523.308594 143.34375 C 523.308594 143.34375 844.34375 299.003906 523.308594 615.339844 C 425.535156 698.074219 331.5625 720.226562 258.898438 720.226562 "/></g><g clip-rule="nonzero" clip-path="url(#a5b50ea022)"><path style=" stroke:none;fill-rule:nonzero;fill:#47c0a8;fill-opacity:1;" d="M 536.230469 176.441406 C 536.230469 176.441406 570.269531 97.386719 659.410156 112.070312 C 748.550781 126.746094 795.75 110.25 795.75 110.25 C 795.75 110.25 738.726562 200.105469 631.449219 143.34375 C 587.878906 122.234375 536.230469 176.441406 536.230469 176.441406 "/></g><path style=" stroke:none;fill-rule:nonzero;fill:#cb8456;fill-opacity:1;" d="M 578.1875 106.695312 C 578.1875 106.695312 575.351562 87.5 557.964844 90.425781 C 520.339844 111.066406 525.363281 183.269531 525.363281 183.269531 C 525.363281 183.269531 528.550781 193.167969 544.425781 181.292969 C 542.546875 139.566406 578.1875 106.695312 578.1875 106.695312 "/></g></svg>