<svg xmlns="http://www.w3.org/2000/svg" xmlns:xlink="http://www.w3.org/1999/xlink" width="1080" zoomAndPan="magnify" viewBox="0 0 810 809.999993" height="1080" preserveAspectRatio="xMidYMid meet" version="1.2"><defs><clipPath id="455716c40b"><path d="M 192 249 L 500 249 L 500 728.25 L 192 728.25 Z M 192 249 "/></clipPath><clipPath id="d7458cea29"><path d="M 499 190 L 618 190 L 618 728.25 L 499 728.25 Z M 499 190 "/></clipPath><clipPath id="fecb1202e7"><path d="M 192 558 L 500 558 L 500 728.25 L 192 728.25 Z M 192 558 "/></clipPath><clipPath id="24295954df"><path d="M 190.929688 249 L 499 249 L 499 727 L 190.929688 727 Z M 190.929688 249 "/></clipPath></defs><g id="cc576125d8"><g clip-rule="nonzero" clip-path="url(#455716c40b)"><path style=" stroke:none;fill-rule:nonzero;fill:#ffe8b6;fill-opacity:1;" d="M 499.636719 728.046875 L 194.871094 728.046875 C 193.480469 728.046875 192.347656 726.914062 192.347656 725.519531 L 192.347656 249.085938 L 499.636719 249.085938 Z M 499.636719 728.046875 "/></g><path style=" stroke:none;fill-rule:nonzero;fill:#ffe8b6;fill-opacity:1;" d="M 542.367188 125.46875 L 235.082031 125.46875 L 235.082031 84.496094 C 235.082031 82.710938 236.527344 81.261719 238.316406 81.261719 L 539.132812 81.261719 C 540.917969 81.261719 542.367188 82.710938 542.367188 84.496094 Z M 542.367188 125.46875 "/><path style=" stroke:none;fill-rule:nonzero;fill:#ffe8b6;fill-opacity:1;" d="M 542.15625 125.679688 L 234.871094 125.679688 L 192.347656 249.085938 L 499.636719 249.085938 Z M 542.15625 125.679688 "/><path style=" stroke:none;fill-rule:nonzero;fill:#ffe8b6;fill-opacity:1;" d="M 617.566406 190.628906 L 498.589844 259.769531 L 496.914062 250.691406 L 542.15625 125.679688 Z M 617.566406 190.628906 "/><g clip-rule="nonzero" clip-path="url(#d7458cea29)"><path style=" stroke:none;fill-rule:nonzero;fill:#4c7d8e;fill-opacity:1;" d="M 499.636719 728.046875 L 615.722656 630.695312 C 616.890625 629.71875 617.566406 628.273438 617.566406 626.75 L 617.566406 190.628906 L 499.636719 249.085938 Z M 499.636719 728.046875 "/></g><g clip-rule="nonzero" clip-path="url(#fecb1202e7)"><path style=" stroke:none;fill-rule:nonzero;fill:#4c7d8e;fill-opacity:1;" d="M 478.59375 591.101562 C 472.753906 595.722656 466.207031 599.558594 459.511719 600.515625 C 444.78125 602.617188 433.535156 590.898438 423.644531 579.828125 C 413.613281 568.605469 401.339844 556.671875 384.511719 558.871094 C 367.367188 561.113281 351.769531 577.046875 334.378906 588.230469 C 294.445312 613.90625 244.519531 614.316406 196.132812 609.746094 C 194.875 609.628906 193.597656 609.492188 192.347656 609.308594 L 192.347656 722.894531 C 192.347656 725.738281 194.65625 728.046875 197.496094 728.046875 L 499.636719 728.046875 L 499.636719 567.308594 C 493.882812 576.367188 486.902344 584.53125 478.59375 591.101562 Z M 478.59375 591.101562 "/></g><path style=" stroke:none;fill-rule:nonzero;fill:#4c7d8e;fill-opacity:1;" d="M 208.4375 376.867188 C 214.332031 379.707031 218.921875 383.789062 224.339844 386.988281 C 241.542969 397.144531 264.878906 397.152344 284.359375 392.488281 C 302.9375 388.039062 319.058594 379.882812 335.085938 373.578125 C 350.417969 367.542969 366.550781 363.105469 381.988281 365.585938 C 404.980469 369.289062 422.449219 387.691406 443.242188 392.046875 C 455.503906 394.617188 467.703125 391.902344 478.019531 386.929688 C 485.992188 383.085938 492.996094 377.945312 499.636719 372.6875 L 499.636719 249.085938 L 192.347656 249.085938 L 192.347656 374.503906 C 196.222656 373.054688 201.433594 373.492188 208.4375 376.867188 Z M 208.4375 376.867188 "/><path style=" stroke:none;fill-rule:nonzero;fill:#ffe8b6;fill-opacity:1;" d="M 499.636719 376.730469 C 507.117188 361.480469 516.089844 345.988281 526.621094 330.890625 C 533.929688 320.414062 542.03125 310.101562 550.222656 302.542969 C 567.890625 286.226562 581.074219 286.605469 592.460938 287.644531 C 599.699219 288.304688 607.871094 288.355469 617.566406 283.824219 L 617.566406 457.375 C 601.554688 466.488281 586.757812 471.410156 569.710938 484.863281 C 555.070312 496.421875 540.1875 513.289062 527.34375 530.464844 C 517.25 543.96875 508.261719 557.742188 499.636719 571.351562 "/><path style=" stroke:none;fill-rule:nonzero;fill:#4c7d8e;fill-opacity:1;" d="M 287.574219 444.835938 L 273.175781 444.835938 C 271.679688 444.835938 270.339844 445.78125 269.835938 447.195312 L 259.03125 477.605469 C 258.75 478.417969 258.476562 479.242188 258.210938 480.074219 C 257.933594 479.230469 257.65625 478.386719 257.363281 477.558594 L 246.300781 447.171875 C 245.792969 445.769531 244.460938 444.835938 242.972656 444.835938 L 228.574219 444.835938 C 226.613281 444.835938 225.03125 446.421875 225.03125 448.382812 L 225.03125 513.371094 C 225.03125 515.332031 226.613281 516.914062 228.574219 516.914062 L 240.25 516.914062 C 242.210938 516.914062 243.792969 515.332031 243.792969 513.371094 L 243.792969 489.523438 L 250.890625 508.714844 C 251.402344 510.109375 252.726562 511.03125 254.210938 511.03125 L 261.671875 511.03125 C 263.160156 511.03125 264.488281 510.105469 264.996094 508.707031 L 272.175781 489.121094 L 272.175781 513.371094 C 272.175781 515.332031 273.761719 516.914062 275.71875 516.914062 L 287.574219 516.914062 C 289.53125 516.914062 291.117188 515.332031 291.117188 513.371094 L 291.117188 448.382812 C 291.117188 446.421875 289.53125 444.835938 287.574219 444.835938 Z M 287.574219 444.835938 "/><path style=" stroke:none;fill-rule:nonzero;fill:#4c7d8e;fill-opacity:1;" d="M 323.875 444.835938 L 310.878906 444.835938 C 308.921875 444.835938 307.335938 446.421875 307.335938 448.382812 L 307.335938 513.371094 C 307.335938 515.332031 308.921875 516.914062 310.878906 516.914062 L 323.875 516.914062 C 325.832031 516.914062 327.417969 515.332031 327.417969 513.371094 L 327.417969 448.382812 C 327.417969 446.421875 325.832031 444.835938 323.875 444.835938 Z M 323.875 444.835938 "/><path style=" stroke:none;fill-rule:nonzero;fill:#4c7d8e;fill-opacity:1;" d="M 385.730469 498.9375 L 362.933594 498.9375 L 362.933594 448.382812 C 362.933594 446.421875 361.347656 444.835938 359.390625 444.835938 L 346.394531 444.835938 C 344.4375 444.835938 342.851562 446.421875 342.851562 448.382812 L 342.851562 513.371094 C 342.851562 515.332031 344.4375 516.914062 346.394531 516.914062 L 385.730469 516.914062 C 387.6875 516.914062 389.273438 515.332031 389.273438 513.371094 L 389.273438 502.484375 C 389.273438 500.523438 387.6875 498.9375 385.730469 498.9375 Z M 385.730469 498.9375 "/><path style=" stroke:none;fill-rule:nonzero;fill:#4c7d8e;fill-opacity:1;" d="M 460.019531 511.566406 L 437.890625 474.210938 L 456.257812 450.554688 C 457.089844 449.484375 457.238281 448.039062 456.640625 446.824219 C 456.046875 445.609375 454.8125 444.835938 453.457031 444.835938 L 439.148438 444.835938 C 438.042969 444.835938 437.003906 445.351562 436.332031 446.230469 L 420.917969 466.433594 L 420.917969 448.382812 C 420.917969 446.421875 419.332031 444.835938 417.375 444.835938 L 404.378906 444.835938 C 402.417969 444.835938 400.835938 446.421875 400.835938 448.382812 L 400.835938 513.371094 C 400.835938 515.332031 402.417969 516.914062 404.378906 516.914062 L 417.375 516.914062 C 419.332031 516.914062 420.917969 515.332031 420.917969 513.371094 L 420.917969 496.324219 L 425.4375 490.542969 L 439.585938 515.140625 C 440.21875 516.238281 441.394531 516.914062 442.660156 516.914062 L 456.96875 516.914062 C 458.242188 516.914062 459.421875 516.234375 460.050781 515.125 C 460.679688 514.019531 460.667969 512.660156 460.019531 511.566406 Z M 460.019531 511.566406 "/><g clip-rule="nonzero" clip-path="url(#24295954df)"><path style=" stroke:none;fill-rule:nonzero;fill:#31223f;fill-opacity:1;" d="M 496.914062 726.324219 C 496.128906 726.324219 495.492188 725.6875 495.492188 724.902344 L 495.492188 252.113281 L 192.347656 252.113281 C 191.566406 252.113281 190.929688 251.476562 190.929688 250.691406 C 190.929688 249.90625 191.566406 249.269531 192.347656 249.269531 L 496.914062 249.269531 C 497.699219 249.269531 498.332031 249.90625 498.332031 250.691406 L 498.332031 724.902344 C 498.332031 725.6875 497.699219 726.324219 496.914062 726.324219 Z M 496.914062 726.324219 "/></g><path style=" stroke:none;fill-rule:nonzero;fill:#31223f;fill-opacity:1;" d="M 496.914062 252.113281 C 496.570312 252.113281 496.234375 251.988281 495.96875 251.753906 C 495.535156 251.363281 495.378906 250.753906 495.578125 250.207031 L 540.132812 127.101562 L 234.871094 127.101562 C 234.085938 127.101562 233.449219 126.464844 233.449219 125.679688 C 233.449219 124.894531 234.085938 124.257812 234.871094 124.257812 L 542.15625 124.257812 C 542.621094 124.257812 543.054688 124.484375 543.320312 124.863281 C 543.585938 125.242188 543.648438 125.726562 543.492188 126.164062 L 499.457031 247.839844 L 616.933594 189.359375 C 617.632812 189.007812 618.488281 189.296875 618.835938 189.996094 C 619.1875 190.699219 618.902344 191.554688 618.199219 191.902344 L 497.546875 251.964844 C 497.34375 252.0625 497.128906 252.113281 496.914062 252.113281 Z M 496.914062 252.113281 "/><path style=" stroke:none;fill-rule:nonzero;fill:#ffe8b6;fill-opacity:1;" d="M 344.222656 309.152344 C 328.871094 316.484375 317.332031 331.484375 312.019531 347.425781 C 310.703125 351.375 309.867188 356.160156 312.542969 359.351562 C 314.664062 361.886719 318.433594 362.5 321.652344 361.75 C 324.875 361 327.703125 359.132812 330.496094 357.363281 C 339.371094 351.738281 348.851562 346.191406 358.585938 342.167969 C 368.414062 338.105469 379.171875 336.957031 389.046875 333.011719 C 402.355469 327.695312 398.152344 318.40625 388.546875 311.875 C 379.105469 305.457031 366.929688 303.148438 355.757812 305.320312 C 351.71875 306.105469 347.863281 307.414062 344.222656 309.152344 Z M 344.222656 309.152344 "/><path style=" stroke:none;fill-rule:nonzero;fill:#ffe8b6;fill-opacity:1;" d="M 289.875 332.746094 C 297.15625 337.070312 302.625 345.914062 305.148438 355.3125 C 305.773438 357.640625 306.167969 360.460938 304.898438 362.34375 C 303.890625 363.839844 302.105469 364.199219 300.578125 363.757812 C 299.050781 363.316406 297.710938 362.214844 296.382812 361.171875 C 292.175781 357.855469 287.679688 354.585938 283.0625 352.210938 C 278.398438 349.816406 273.296875 349.140625 268.613281 346.8125 C 262.300781 343.679688 264.296875 338.203125 268.851562 334.351562 C 273.328125 330.566406 279.101562 329.207031 284.402344 330.488281 C 286.316406 330.949219 288.148438 331.722656 289.875 332.746094 Z M 289.875 332.746094 "/></g></svg>