<svg xmlns="http://www.w3.org/2000/svg" xmlns:xlink="http://www.w3.org/1999/xlink" width="1080" zoomAndPan="magnify" viewBox="0 0 810 809.999993" height="1080" preserveAspectRatio="xMidYMid meet" version="1.2"><defs><clipPath id="58b34356fc"><path d="M 330 64.933594 L 405 64.933594 L 405 151 L 330 151 Z M 330 64.933594 "/></clipPath><clipPath id="4e35730f00"><path d="M 118.492188 171 L 670 171 L 670 745.183594 L 118.492188 745.183594 Z M 118.492188 171 "/></clipPath><clipPath id="de13fe77cc"><path d="M 292 172 L 691.492188 172 L 691.492188 745.183594 L 292 745.183594 Z M 292 172 "/></clipPath></defs><g id="e6fde2fdd9"><g clip-rule="nonzero" clip-path="url(#58b34356fc)"><path style=" stroke:none;fill-rule:nonzero;fill:#65a12a;fill-opacity:1;" d="M 330.097656 64.933594 C 330.097656 64.933594 332.039062 137.167969 404.746094 150.742188 C 404.746094 150.742188 404.746094 82.867188 330.097656 64.933594 Z M 330.097656 64.933594 "/></g><path style=" stroke:none;fill-rule:nonzero;fill:#6c3428;fill-opacity:1;" d="M 403.71875 209.367188 C 403.265625 205.753906 389.460938 118.769531 429.082031 96.628906 C 441.453125 89.71875 457.148438 89.566406 475.730469 96.195312 L 472.738281 103.023438 C 457.117188 97.457031 444.734375 97.4375 434.867188 102.949219 C 399.191406 122.875 407.121094 209.320312 407.230469 210.164062 L 403.71875 209.375 Z M 403.71875 209.367188 "/><g clip-rule="nonzero" clip-path="url(#4e35730f00)"><path style=" stroke:none;fill-rule:nonzero;fill:#fd9218;fill-opacity:1;" d="M 452.996094 172.738281 C 437.378906 170.089844 421.34375 174.9375 404.980469 174.9375 C 388.617188 174.9375 372.578125 170.089844 356.964844 172.738281 C 221.605469 195.695312 118.5 314.097656 118.5 456.707031 C 118.5 599.316406 228.425781 725.398438 370.28125 742.617188 C 381.652344 743.996094 393.234375 745.199219 404.980469 745.199219 C 416.722656 745.199219 428.308594 743.996094 439.679688 742.617188 C 581.535156 725.398438 669.859375 603.957031 669.859375 456.707031 C 669.859375 309.457031 588.351562 195.695312 452.996094 172.730469 Z M 452.996094 172.738281 "/></g><g clip-rule="nonzero" clip-path="url(#de13fe77cc)"><path style=" stroke:none;fill-rule:nonzero;fill:#f8800d;fill-opacity:1;" d="M 452.996094 172.738281 C 451.027344 172.402344 449.050781 172.191406 447.070312 172.074219 C 549.085938 216.152344 620.554688 318.03125 620.554688 436.730469 C 620.554688 583.980469 510.628906 705.421875 368.773438 722.640625 C 357.402344 724.019531 345.820312 725.222656 334.074219 725.222656 C 322.332031 725.222656 310.746094 724.019531 299.375 722.640625 C 297.089844 722.359375 294.84375 721.980469 292.570312 721.652344 C 316.925781 732.113281 343.003906 739.304688 370.28125 742.617188 C 381.652344 743.996094 393.234375 745.199219 404.980469 745.199219 C 416.722656 745.199219 428.308594 743.996094 439.679688 742.617188 C 581.535156 725.398438 691.460938 603.957031 691.460938 456.707031 C 691.460938 309.457031 588.351562 195.695312 452.988281 172.730469 Z M 452.996094 172.738281 "/></g><path style=" stroke:none;fill-rule:nonzero;fill:#fdc380;fill-opacity:1;" d="M 309.648438 255.78125 C 296.246094 245.136719 253.742188 261.859375 225.785156 297.054688 C 197.832031 332.25 195.019531 372.59375 208.421875 383.242188 C 221.824219 393.886719 261.523438 379.570312 289.476562 344.375 C 317.429688 309.179688 323.042969 266.429688 309.640625 255.78125 Z M 309.648438 255.78125 "/></g></svg>