<svg xmlns="http://www.w3.org/2000/svg" xmlns:xlink="http://www.w3.org/1999/xlink" width="1080" zoomAndPan="magnify" viewBox="0 0 810 809.999993" height="1080" preserveAspectRatio="xMidYMid meet" version="1.2"><g id="d1e6857a22"><path style=" stroke:none;fill-rule:evenodd;fill:#bc7b26;fill-opacity:1;" d="M 706.054688 373.488281 C 701.273438 385.128906 693.378906 393.382812 685.398438 402.015625 C 671.886719 416.929688 656.300781 428.285156 638.367188 436.355469 C 616.027344 446.207031 593.121094 454.371094 569.609375 460.371094 C 542.710938 467.3125 515.445312 471.539062 488.03125 474.351562 C 470.898438 476.230469 453.535156 478.011719 436.496094 478.292969 C 394.910156 479.039062 353.230469 478.855469 311.695312 473.414062 C 257.101562 466.375 204.769531 452.117188 155.207031 426.59375 C 146.382812 421.902344 138.683594 416.375 135.023438 405.585938 C 133.238281 399.855469 128.546875 395.640625 123.476562 392.820312 C 115.21875 388.125 107.65625 382.6875 101.414062 374.996094 C 99.253906 372.175781 96.484375 368.515625 91.933594 370.589844 C 91.933594 373.210938 91.746094 375.933594 91.652344 378.5625 C 92.964844 380.15625 92.777344 381.9375 92.777344 383.625 C 92.402344 396.855469 94.5625 409.710938 96.910156 422.5625 C 100.851562 444.609375 105.636719 466.566406 114.371094 487.207031 C 121.40625 511.039062 133.519531 532.144531 146.566406 552.789062 C 156.707031 568.460938 168.722656 583.75 181.304688 597.449219 C 200.03125 618.1875 221.574219 634.882812 244.851562 647.925781 C 271.890625 662.9375 301.371094 673.257812 331.832031 679.359375 C 384.164062 689.867188 440.207031 687.617188 492.402344 677.199219 C 554.214844 664.816406 602.9375 633.003906 643.535156 581.777344 C 665.644531 553.917969 684.277344 523.519531 695.398438 488.617188 C 696.054688 487.398438 696.761719 486.367188 697.324219 485.050781 C 711.21875 444.613281 719.003906 403.144531 717.925781 359.898438 C 714.269531 364.769531 708.308594 367.960938 706.054688 373.488281 Z M 706.054688 373.488281 "/><path style=" stroke:none;fill-rule:evenodd;fill:#eace6e;fill-opacity:1;" d="M 633.679688 393.382812 C 636.214844 389.820312 638.65625 386.34375 640.394531 382.59375 C 642.367188 378.460938 642.972656 374.527344 639.96875 370.589844 C 636.6875 366.738281 632.738281 365.613281 627.953125 366.921875 C 623.964844 367.863281 621.195312 370.863281 618.097656 374.054688 C 617.015625 368.519531 618.097656 362.984375 614.855469 358.859375 C 612.699219 356.039062 612.886719 353.976562 615.042969 351.167969 C 619.265625 345.347656 618.660156 341.871094 614.242188 336.34375 C 609.738281 330.433594 604.246094 326.957031 597.347656 326.773438 C 597.203125 324.898438 597.859375 323.953125 598.378906 323.210938 C 601.101562 318.328125 603.492188 313.636719 599.878906 308.191406 C 596.125 302.660156 590.679688 302.375 585.046875 303.414062 C 582.230469 303.597656 579.785156 305.007812 577.445312 306.417969 C 575.753906 307.261719 574.0625 308.289062 572.277344 308.941406 C 570.679688 309.417969 568.714844 309.984375 567.726562 308.105469 C 566.832031 306.695312 568.195312 305.191406 569.179688 304.070312 C 571.855469 300.6875 575.28125 297.96875 577.253906 293.839844 C 578.992188 290.367188 580.261719 286.796875 577.675781 283.238281 C 574.910156 279.292969 571.339844 277.425781 566.644531 278.449219 C 560.355469 279.574219 556.128906 283.703125 552.65625 288.488281 C 554.816406 284.363281 557.445312 279.574219 558.574219 274.234375 C 559.324219 271.039062 560.027344 267.660156 556.128906 265.695312 C 552.1875 261.097656 547.304688 261.660156 542.375 262.976562 C 538.667969 262.410156 536.132812 267.664062 532.097656 265.789062 C 530.96875 261.847656 529.75 257.910156 528.625 253.964844 C 524.871094 244.777344 520.925781 243.738281 509.378906 249.09375 C 506.089844 234.730469 502.664062 233.328125 485.867188 240.558594 C 485.71875 237.179688 485.019531 233.894531 486.941406 230.984375 C 484.316406 221.132812 466.480469 217.476562 460.289062 222.535156 C 454.1875 227.417969 454.089844 227.136719 451.273438 220.003906 C 447.65625 210.339844 439.160156 207.714844 431.511719 214.1875 C 427.710938 217.472656 424.800781 218.6875 422.640625 212.589844 C 421.324219 209.308594 419.074219 207.992188 415.601562 208.277344 C 412.03125 208.5625 409.125 209.96875 407.574219 213.628906 C 406.777344 215.597656 406.125 217.5625 405.230469 220.003906 C 403.914062 218.128906 403.023438 216.722656 402.179688 215.597656 C 393.917969 205.273438 388.191406 205.652344 382.375 217.5625 C 379.933594 222.535156 378.242188 219.160156 376.273438 217.476562 C 367.074219 209.59375 358.625 208.835938 353.273438 223.003906 C 351.625 227.511719 350.082031 228.261719 345.949219 225.824219 C 334.96875 219.070312 332.007812 219.535156 322.15625 228.917969 C 321.261719 229.761719 320.089844 230.226562 319.011719 230.980469 C 318.824219 232.761719 321.074219 234.359375 319.480469 236.511719 C 316.007812 235.863281 312.769531 234.265625 309.058594 234.726562 C 304.648438 235.015625 300.378906 236.511719 299.441406 241.394531 C 298.359375 246.460938 296.578125 245.988281 292.824219 244.867188 C 284 242.421875 277.523438 249.273438 279.398438 258.46875 C 279.492188 258.558594 279.589844 258.558594 279.589844 258.65625 C 279.210938 259.695312 278.882812 260.8125 278.554688 261.847656 C 276.117188 264.007812 275.269531 266.910156 274.941406 269.734375 C 273.109375 266.824219 271.515625 263.445312 267.007812 264.472656 C 263.019531 260.347656 258.933594 261.46875 254.894531 264.472656 C 249.359375 268.226562 251.703125 273.296875 252.921875 278.082031 C 254.050781 282.863281 257.425781 286.429688 260.0625 292.148438 C 255.738281 283.992188 250.90625 279.488281 243.351562 278.269531 C 239.5 277.429688 236.402344 279.296875 234.007812 282.398438 C 231.519531 285.679688 231.425781 289.339844 233.070312 293.085938 C 234.429688 296.28125 236.78125 298.441406 238.84375 300.882812 C 240.953125 303.417969 243.820312 305.011719 244.476562 308.941406 C 240.820312 310.261719 238.097656 308.859375 235.324219 306.882812 C 231.429688 304.074219 227.113281 302.570312 222.324219 303.03125 C 213.5 303.691406 208.992188 311.953125 212.699219 320.398438 C 213.6875 322.554688 215.707031 323.957031 215.75 326.960938 C 208.570312 326.585938 202.796875 330.246094 197.820312 335.3125 C 192.003906 340.847656 191.71875 344.503906 196.691406 351.171875 C 197.910156 352.671875 200.214844 354.546875 198.570312 356.328125 C 193.828125 361.492188 193.738281 368.714844 192.09375 375.660156 C 188.714844 372.941406 186.929688 369.839844 183.976562 368.0625 C 179.5625 365.621094 174.351562 366.183594 170.460938 369.75 C 166.75 373.21875 166.566406 377.441406 168.441406 381.945312 C 170.039062 386.078125 172.480469 389.542969 175.242188 393.949219 C 165.621094 392.171875 156.890625 391.328125 151.636719 401.273438 C 151.542969 402.207031 151.636719 403.246094 152.292969 404.089844 C 182.242188 423.507812 215.75 432.703125 249.359375 441.988281 C 288.503906 452.871094 328.585938 457.28125 368.71875 458.878906 C 424.71875 460.945312 480.476562 458.972656 535.675781 448.371094 C 555.007812 444.617188 574.441406 440.871094 592.890625 433.453125 C 614.339844 428.292969 634.433594 419.480469 653.957031 409.160156 C 655.457031 408.40625 656.210938 407.09375 656.300781 405.402344 C 654.144531 394.601562 648.792969 391.882812 633.679688 393.382812 Z M 301.460938 276.949219 C 301.460938 277.425781 301.460938 277.886719 301.511719 278.355469 C 301.460938 277.886719 301.460938 277.425781 301.460938 276.949219 Z M 301.460938 276.949219 "/><path style=" stroke:none;fill-rule:evenodd;fill:#d6a557;fill-opacity:1;" d="M 143.285156 396.386719 C 146.339844 398.265625 149.199219 400.136719 152.066406 402.015625 C 152.203125 402.667969 152.296875 403.421875 152.296875 404.078125 C 149.199219 408.296875 145.164062 407.832031 141.78125 405.199219 C 137.324219 401.546875 137.980469 398.539062 143.285156 396.386719 Z M 143.285156 396.386719 "/><path style=" stroke:none;fill-rule:evenodd;fill:#9b5c10;fill-opacity:1;" d="M 254.898438 264.46875 C 251.425781 270.101562 252.972656 275.445312 255.742188 280.796875 C 258.371094 285.492188 261.65625 289.988281 262.125 296.1875 C 258.933594 295.433594 258.601562 292.625 257.429688 290.832031 C 254.242188 285.390625 250.0625 281.359375 243.820312 280.046875 C 240.441406 279.296875 237.621094 280.140625 235.324219 282.863281 C 232.933594 285.679688 233.074219 288.964844 234.433594 292.148438 C 236.3125 296.9375 240.113281 299.9375 243.355469 303.417969 C 245.324219 305.574219 248.050781 307.265625 247.90625 311.480469 C 242.699219 311.671875 237.816406 312.609375 233.496094 307.628906 C 230.679688 304.730469 226.175781 304.4375 222.089844 304.820312 C 214.34375 305.191406 210.542969 312.132812 214.34375 319.457031 C 215.84375 322.457031 217.910156 325.269531 220.496094 329.117188 C 212 328.082031 205.054688 330.242188 199.136719 336.34375 C 193.320312 342.347656 192.664062 345.535156 198.761719 351.167969 C 202.425781 354.636719 202.425781 356.605469 198.523438 359.421875 C 195.988281 361.484375 195.476562 364.773438 195.191406 367.867188 C 194.910156 371.902344 194.535156 375.933594 192.660156 380.253906 C 190.5 377.4375 188.808594 374.902344 186.929688 372.652344 C 182.988281 367.867188 176.605469 366.742188 172.285156 370.113281 C 167.121094 374.054688 168.53125 379.027344 170.96875 383.71875 C 172.375 386.070312 173.785156 388.316406 175.238281 390.382812 C 176.507812 392.355469 177.917969 394.324219 179 396.949219 C 168.953125 393.007812 159.613281 392.632812 152.058594 402.015625 C 147.601562 402.863281 145.25 400.136719 143.277344 396.386719 C 130.417969 387.65625 119.480469 376.773438 112.296875 362.046875 C 107.324219 352.097656 108.214844 342.34375 113.941406 332.863281 C 121.96875 319.816406 133.230469 310.628906 145.71875 302.933594 C 174.019531 285.488281 204.996094 275.078125 236.960938 266.722656 C 242.882812 265.222656 248.566406 261.65625 254.898438 264.46875 Z M 254.898438 264.46875 "/><path style=" stroke:none;fill-rule:evenodd;fill:#9b5c10;fill-opacity:1;" d="M 656.300781 405.386719 C 650.578125 392.445312 640.625 392.816406 628.796875 397.414062 C 632.503906 391.882812 635.644531 388.121094 638.089844 383.714844 C 640.535156 379.585938 642.363281 374.800781 637.90625 370.394531 C 634.4375 366.917969 627.765625 367.199219 623.449219 371.144531 C 621.386719 372.925781 619.695312 375.175781 617.441406 377.800781 C 616.171875 374.992188 616.03125 372.171875 616.03125 369.546875 C 616.171875 364.855469 615.28125 360.636719 611.480469 357.632812 C 608.992188 355.847656 608.429688 354.347656 611.574219 351.910156 C 618.332031 346.285156 617.914062 342.898438 612.046875 336.148438 C 606.835938 330.144531 600.640625 328.265625 592.519531 329.113281 C 594.722656 325.457031 596.597656 322.546875 598.289062 319.640625 C 602.230469 312.417969 598.476562 305.007812 590.589844 304.433594 C 585.382812 304.164062 580.546875 305.660156 576.417969 309.128906 C 574.585938 310.53125 572.851562 312.414062 570.316406 311.941406 C 568.160156 311.664062 565.15625 312.125 564.21875 309.507812 C 563.371094 307.15625 565.53125 305.375 566.890625 303.683594 C 570.226562 300.027344 574.265625 297.117188 576.421875 292.335938 C 577.738281 289.332031 578.488281 286.425781 576.421875 283.421875 C 574.265625 280.515625 571.449219 279.570312 568.160156 280.042969 C 563.371094 280.605469 559.191406 282.394531 556.140625 286.617188 C 554.128906 289.621094 551.964844 292.621094 549.242188 296.273438 C 548.445312 289.617188 552.292969 285.769531 554.128906 281.539062 C 556.335938 276.480469 559.007812 271.40625 556.140625 265.6875 C 557.882812 263.4375 560.085938 264.460938 562.011719 265.027344 C 596.132812 273.097656 629.550781 283.601562 660.34375 301.902344 C 668.652344 306.683594 676.488281 312.21875 683.625 318.882812 C 705.59375 338.960938 706.433594 358.101562 686.34375 380.335938 C 677.515625 390.195312 667.378906 398.265625 656.300781 405.386719 Z M 656.300781 405.386719 "/><path style=" stroke:none;fill-rule:evenodd;fill:#9b5c10;fill-opacity:1;" d="M 542.386719 262.972656 C 540.554688 264.46875 538.730469 265.785156 537.179688 267.570312 C 533.988281 271.410156 532.667969 270.195312 532.109375 265.785156 C 533.847656 258.277344 538.539062 262.3125 542.386719 262.972656 Z M 542.386719 262.972656 "/><path style=" stroke:none;fill-rule:evenodd;fill:#9b5c10;fill-opacity:1;" d="M 278.554688 261.84375 C 277.710938 264.851562 276.910156 267.75 275.925781 271.230469 C 272.453125 269.066406 270.765625 265.222656 267.007812 264.46875 C 269.96875 259.121094 274.707031 262.78125 278.554688 261.84375 Z M 278.554688 261.84375 "/><path style=" stroke:none;fill-rule:evenodd;fill:#dbac61;fill-opacity:1;" d="M 698.921875 308.101562 C 683.625 292.429688 665.316406 281.542969 646.074219 272.542969 C 595.332031 248.710938 541.40625 238.386719 486.953125 230.976562 C 482.171875 233.136719 483.480469 237.074219 484.894531 240.359375 C 486.488281 243.828125 489.207031 241.011719 491.371094 240.449219 C 492.40625 240.167969 493.347656 239.605469 494.375 239.324219 C 501.179688 237.355469 504.421875 238.953125 506.484375 246.265625 C 507.851562 250.675781 509.957031 250.957031 513.527344 249.460938 C 520.757812 246.832031 522.910156 247.675781 527.042969 254.523438 C 529.199219 258.277344 527.460938 263.535156 531.832031 266.253906 C 535.207031 264.09375 538.730469 263.15625 542.625 264.46875 C 547.410156 263.539062 551.96875 264.46875 556.335938 266.722656 C 560.039062 266.34375 563.371094 267.289062 566.890625 268.222656 C 587.875 273.292969 608.574219 279.390625 628.429688 287.929688 C 645.980469 295.425781 662.972656 304.160156 678.277344 316.449219 C 684.09375 321.230469 689.257812 326.769531 693.578125 333.152344 C 700.148438 343.097656 700.617188 353.414062 695.222656 363.921875 C 690.578125 373.210938 684.140625 380.625 676.917969 387.65625 C 670.109375 394.039062 662.132812 398.820312 655.136719 404.832031 C 653.496094 406.796875 651.429688 408.488281 649.082031 409.527344 C 630.542969 419.09375 611.347656 426.785156 591.351562 432.128906 C 542.441406 447.519531 494.007812 454.175781 445.191406 456.34375 C 415.433594 457.65625 385.53125 457.746094 355.636719 455.683594 C 320.246094 453.621094 285.28125 448.742188 250.734375 440.386719 C 223.1875 433.074219 195.914062 424.722656 169.859375 412.148438 C 164.179688 409.527344 144.328125 398.265625 143.765625 395.734375 C 142.359375 393.386719 140.105469 391.886719 138.085938 390.382812 C 129.871094 383.71875 122.59375 376.125 116.914062 366.921875 C 111.042969 357.167969 108.746094 347.316406 114.191406 336.613281 C 117.664062 329.957031 121.988281 324.148438 127.621094 318.980469 C 158.210938 290.367188 200.734375 278.832031 240.070312 268.035156 C 244.671875 266.722656 249.363281 265.222656 254.246094 265.496094 C 258.65625 264 263.164062 263.71875 267.480469 265.03125 C 271.050781 262.972656 275.179688 264.652344 278.558594 262.6875 C 279.96875 261.285156 280.488281 259.777344 279.824219 257.902344 C 279.59375 253.773438 280.625 250.210938 283.957031 248.054688 C 289.824219 243.828125 295.265625 247.113281 300.761719 250.210938 C 299.210938 236.320312 302.78125 234.722656 322.914062 239.605469 C 322.167969 236.230469 323.570312 232.289062 319.019531 230.972656 C 316.296875 231.441406 313.621094 232.007812 310.941406 232.191406 C 268.5625 237.820312 226.976562 247.015625 186.796875 262.59375 C 167.039062 270.285156 147.984375 279.570312 130.894531 292.800781 C 128.550781 294.484375 126.0625 296.179688 123.671875 297.675781 C 111.140625 306.683594 102.828125 319.164062 96.355469 333.425781 C 90.90625 344.96875 92.128906 357.164062 91.566406 369.265625 C 91.941406 378.453125 108.886719 396.476562 114.234375 402.191406 C 124.605469 413.269531 137.511719 421.710938 150.800781 428.835938 C 178.960938 443.945312 209.84375 452.851562 240.449219 461.585938 C 264.011719 468.242188 288.046875 473.125 312.542969 475.28125 C 331.695312 477.246094 350.65625 480.253906 369.996094 480.441406 C 412.328125 480.820312 454.625 480.910156 496.816406 475.46875 C 518.402344 472.5625 539.902344 469.28125 561.164062 464.496094 C 585.386719 459.140625 608.992188 451.167969 632.039062 441.414062 C 649.496094 434.09375 666.398438 424.152344 680.617188 411.578125 C 693.476562 400.128906 712.671875 377.328125 717.929688 359.882812 C 719.242188 339.339844 712.820312 322.175781 698.921875 308.101562 Z M 698.921875 308.101562 "/><path style=" stroke:none;fill-rule:nonzero;fill:#eaae36;fill-opacity:1;" d="M 336.148438 331.835938 C 342.71875 338.777344 345.15625 347.035156 341.730469 350.320312 C 338.210938 353.601562 330.089844 350.597656 323.476562 343.65625 C 316.953125 336.714844 314.558594 328.457031 318.03125 325.171875 C 321.457031 321.890625 329.628906 324.898438 336.148438 331.835938 Z M 336.148438 331.835938 "/><path style=" stroke:none;fill-rule:nonzero;fill:#ffe088;fill-opacity:1;" d="M 361.964844 273.101562 C 370.785156 269.539062 379.425781 270.195312 381.207031 274.597656 C 383.039062 279.105469 377.265625 285.488281 368.441406 289.144531 C 359.570312 292.710938 350.933594 292.050781 349.152344 287.644531 C 347.363281 283.238281 353.089844 276.671875 361.964844 273.101562 Z M 361.964844 273.101562 "/><path style=" stroke:none;fill-rule:nonzero;fill:#ffe088;fill-opacity:1;" d="M 432.179688 299.371094 C 441.003906 295.8125 449.644531 296.472656 451.425781 300.878906 C 453.300781 305.378906 447.480469 311.761719 438.660156 315.417969 C 429.835938 318.980469 421.195312 318.324219 419.414062 313.914062 C 417.628906 309.507812 423.359375 302.933594 432.179688 299.371094 Z M 432.179688 299.371094 "/><path style=" stroke:none;fill-rule:nonzero;fill:#ffe088;fill-opacity:1;" d="M 585.476562 397.324219 C 594.300781 393.757812 602.941406 394.5 604.71875 398.917969 C 606.503906 403.328125 600.777344 409.796875 591.953125 413.457031 C 583.035156 417.023438 574.398438 416.269531 572.613281 411.957031 C 570.832031 407.457031 576.558594 400.984375 585.476562 397.324219 Z M 585.476562 397.324219 "/><path style=" stroke:none;fill-rule:nonzero;fill:#ffe088;fill-opacity:1;" d="M 486.90625 250.773438 C 495.730469 247.210938 504.371094 247.769531 506.152344 252.273438 C 508.03125 256.6875 502.210938 263.15625 493.386719 266.722656 C 484.5625 270.289062 475.921875 269.730469 474.144531 265.222656 C 472.355469 260.808594 478.082031 254.34375 486.90625 250.773438 Z M 486.90625 250.773438 "/><path style=" stroke:none;fill-rule:nonzero;fill:#ffe088;fill-opacity:1;" d="M 569.328125 359.796875 C 578.152344 356.234375 586.789062 356.792969 588.570312 361.292969 C 590.355469 365.707031 584.625 372.175781 575.800781 375.742188 C 566.882812 379.304688 558.25 378.746094 556.460938 374.242188 C 554.683594 369.832031 560.410156 363.363281 569.328125 359.796875 Z M 569.328125 359.796875 "/><path style=" stroke:none;fill-rule:nonzero;fill:#ffe088;fill-opacity:1;" d="M 222.5625 397.507812 C 231.386719 393.941406 240.019531 394.5 241.804688 399.011719 C 243.636719 403.421875 237.859375 409.890625 229.035156 413.457031 C 220.164062 417.023438 211.53125 416.464844 209.746094 411.957031 C 207.964844 407.546875 213.6875 401.078125 222.5625 397.507812 Z M 222.5625 397.507812 "/><path style=" stroke:none;fill-rule:nonzero;fill:#ffe088;fill-opacity:1;" d="M 360.605469 364.859375 C 369.472656 361.292969 378.0625 361.855469 379.84375 366.359375 C 381.675781 370.769531 375.949219 377.246094 367.078125 380.808594 C 358.203125 384.371094 349.570312 383.714844 347.785156 379.304688 C 346.003906 374.996094 351.777344 368.429688 360.605469 364.859375 Z M 360.605469 364.859375 "/><path style=" stroke:none;fill-rule:nonzero;fill:#ffe088;fill-opacity:1;" d="M 396.746094 426.96875 C 405.570312 423.40625 414.25 424.15625 415.988281 428.46875 C 417.820312 432.972656 412.042969 439.351562 403.21875 443.015625 C 394.347656 446.675781 385.761719 445.917969 383.929688 441.605469 C 382.144531 437.105469 387.921875 430.628906 396.746094 426.96875 Z M 396.746094 426.96875 "/><path style=" stroke:none;fill-rule:nonzero;fill:#ffe088;fill-opacity:1;" d="M 509.160156 404.449219 C 516.714844 410.464844 520.371094 418.242188 517.417969 421.996094 C 514.460938 425.75 505.964844 423.96875 498.457031 418.058594 C 490.949219 412.148438 487.285156 404.359375 490.246094 400.609375 C 493.152344 396.851562 501.648438 398.632812 509.160156 404.449219 Z M 509.160156 404.449219 "/><path style=" stroke:none;fill-rule:nonzero;fill:#ffe088;fill-opacity:1;" d="M 503.617188 365.796875 C 511.171875 371.804688 514.835938 379.589844 511.875 383.34375 C 508.921875 387.097656 500.421875 385.308594 492.917969 379.402344 C 485.40625 373.488281 481.746094 365.707031 484.703125 361.945312 C 487.613281 358.199219 496.105469 359.980469 503.617188 365.796875 Z M 503.617188 365.796875 "/><path style=" stroke:none;fill-rule:nonzero;fill:#ffe088;fill-opacity:1;" d="M 277.761719 409.523438 C 285.363281 415.332031 289.027344 423.21875 286.019531 426.96875 C 283.109375 430.71875 274.570312 429.03125 267.058594 423.027344 C 259.550781 417.121094 255.886719 409.328125 258.894531 405.582031 C 261.796875 401.828125 270.25 403.515625 277.761719 409.523438 Z M 277.761719 409.523438 "/><path style=" stroke:none;fill-rule:nonzero;fill:#ffe088;fill-opacity:1;" d="M 297.191406 346.378906 C 304.75 352.289062 308.410156 360.171875 305.453125 363.921875 C 302.492188 367.675781 293.996094 365.890625 286.492188 359.980469 C 278.980469 353.972656 275.320312 346.289062 278.277344 342.53125 C 281.1875 338.777344 289.683594 340.464844 297.191406 346.378906 Z M 297.191406 346.378906 "/><path style=" stroke:none;fill-rule:nonzero;fill:#ffe088;fill-opacity:1;" d="M 320.847656 278.078125 C 328.355469 283.984375 332.015625 291.871094 329.105469 295.621094 C 326.101562 299.367188 317.65625 297.585938 310.144531 291.675781 C 302.636719 285.671875 298.96875 277.980469 301.878906 274.230469 C 304.792969 270.476562 313.335938 272.164062 320.847656 278.078125 Z M 320.847656 278.078125 "/><path style=" stroke:none;fill-rule:nonzero;fill:#ffe088;fill-opacity:1;" d="M 309.957031 393.382812 C 316.714844 400.136719 320.046875 407.636719 317.421875 410.175781 C 314.839844 412.710938 307.332031 409.328125 300.613281 402.578125 C 293.859375 395.816406 290.570312 388.21875 293.109375 385.59375 C 295.6875 383.058594 303.246094 386.535156 309.957031 393.382812 Z M 309.957031 393.382812 "/><path style=" stroke:none;fill-rule:nonzero;fill:#eaae36;fill-opacity:1;" d="M 478.929688 322.828125 C 488.078125 325.265625 494.605469 330.992188 493.386719 335.589844 C 492.167969 340.285156 483.671875 341.96875 474.421875 339.527344 C 465.226562 337.09375 458.703125 331.460938 459.917969 326.863281 C 461.136719 322.265625 469.636719 320.390625 478.929688 322.828125 Z M 478.929688 322.828125 "/><path style=" stroke:none;fill-rule:nonzero;fill:#eaae36;fill-opacity:1;" d="M 545.300781 398.820312 C 554.453125 401.261719 560.972656 406.984375 559.753906 411.585938 C 558.535156 416.273438 550.039062 417.964844 540.789062 415.527344 C 531.589844 413.085938 525.066406 407.460938 526.285156 402.863281 C 527.511719 398.265625 536.003906 396.386719 545.300781 398.820312 Z M 545.300781 398.820312 "/><path style=" stroke:none;fill-rule:nonzero;fill:#eaae36;fill-opacity:1;" d="M 501.554688 288.773438 C 510.660156 291.117188 517.230469 296.839844 516.011719 301.4375 C 514.789062 306.128906 506.25 307.816406 497.046875 305.375 C 487.847656 302.933594 481.273438 297.3125 482.496094 292.710938 C 483.71875 288.113281 492.257812 286.332031 501.554688 288.773438 Z M 501.554688 288.773438 "/><path style=" stroke:none;fill-rule:nonzero;fill:#eaae36;fill-opacity:1;" d="M 275.039062 370.769531 C 284.1875 373.113281 290.714844 378.929688 289.492188 383.4375 C 288.273438 388.125 279.777344 389.816406 270.53125 387.378906 C 261.332031 384.9375 254.804688 379.304688 256.027344 374.800781 C 257.25 370.113281 265.746094 368.335938 275.039062 370.769531 Z M 275.039062 370.769531 "/><path style=" stroke:none;fill-rule:nonzero;fill:#eaae36;fill-opacity:1;" d="M 282.359375 304.433594 C 291.5625 306.785156 298.035156 312.507812 296.816406 317.101562 C 295.597656 321.796875 287.148438 323.484375 277.855469 321.046875 C 268.65625 318.609375 262.179688 312.976562 263.398438 308.378906 C 264.617188 303.78125 273.066406 302 282.359375 304.433594 Z M 282.359375 304.433594 "/><path style=" stroke:none;fill-rule:nonzero;fill:#eaae36;fill-opacity:1;" d="M 457.101562 352.949219 C 463.203125 345.535156 471.042969 341.972656 474.699219 344.972656 C 478.457031 348.066406 476.488281 356.511719 470.386719 363.921875 C 464.425781 371.332031 456.492188 374.804688 452.785156 371.800781 C 449.078125 368.707031 451.050781 360.363281 457.101562 352.949219 Z M 457.101562 352.949219 "/><path style=" stroke:none;fill-rule:nonzero;fill:#eaae36;fill-opacity:1;" d="M 231.949219 350.226562 C 238.050781 342.898438 245.894531 339.339844 249.550781 342.34375 C 253.304688 345.347656 251.335938 353.792969 245.234375 361.292969 C 239.277344 368.617188 231.339844 372.082031 227.632812 369.082031 C 223.925781 365.988281 225.894531 357.636719 231.949219 350.226562 Z M 231.949219 350.226562 "/><path style=" stroke:none;fill-rule:nonzero;fill:#eaae36;fill-opacity:1;" d="M 531.546875 354.917969 C 537.644531 347.597656 545.484375 344.03125 549.148438 347.035156 C 552.90625 350.039062 550.929688 358.484375 544.828125 365.988281 C 538.867188 373.3125 530.9375 376.773438 527.226562 373.777344 C 523.519531 370.679688 525.492188 362.328125 531.546875 354.917969 Z M 531.546875 354.917969 "/><path style=" stroke:none;fill-rule:nonzero;fill:#eaae36;fill-opacity:1;" d="M 387.777344 318.511719 C 396.367188 322.828125 401.574219 329.585938 399.511719 333.898438 C 397.394531 338.214844 388.761719 338.214844 380.125 334.09375 C 371.582031 329.769531 366.324219 323.015625 368.4375 318.703125 C 370.554688 314.382812 379.238281 314.382812 387.777344 318.511719 Z M 387.777344 318.511719 "/><path style=" stroke:none;fill-rule:nonzero;fill:#eaae36;fill-opacity:1;" d="M 434.714844 264.46875 C 442.929688 269.257812 447.625 276.578125 445.089844 280.605469 C 442.695312 284.738281 434.058594 284.175781 425.84375 279.292969 C 417.628906 274.324219 412.984375 267.097656 415.378906 262.972656 C 417.820312 258.84375 426.453125 259.40625 434.714844 264.46875 Z M 434.714844 264.46875 "/><path style=" stroke:none;fill-rule:nonzero;fill:#eaae36;fill-opacity:1;" d="M 550.929688 311.105469 C 559.140625 315.976562 563.835938 323.300781 561.304688 327.332031 C 558.910156 331.460938 550.273438 330.804688 542.058594 326.015625 C 533.847656 321.046875 529.199219 313.820312 531.59375 309.695312 C 534.035156 305.566406 542.671875 306.128906 550.929688 311.105469 Z M 550.929688 311.105469 "/><path style=" stroke:none;fill-rule:nonzero;fill:#eaae36;fill-opacity:1;" d="M 424.246094 382.59375 C 432.554688 387.382812 437.25 394.699219 434.710938 398.820312 C 432.273438 402.949219 423.679688 402.199219 415.421875 397.417969 C 407.210938 392.445312 402.515625 385.308594 405.046875 381.1875 C 407.445312 377.054688 416.035156 377.621094 424.246094 382.59375 Z M 424.246094 382.59375 "/><path style=" stroke:none;fill-rule:nonzero;fill:#eaae36;fill-opacity:1;" d="M 326.101562 415.898438 C 334.128906 410.734375 342.71875 409.710938 345.300781 413.839844 C 347.882812 417.78125 343.472656 425.285156 335.445312 430.441406 C 327.421875 435.609375 318.828125 436.539062 316.203125 432.414062 C 313.664062 428.46875 318.03125 421.0625 326.101562 415.898438 Z M 326.101562 415.898438 "/><path style=" stroke:none;fill-rule:nonzero;fill:#eaae36;fill-opacity:1;" d="M 404.722656 237.449219 C 412.703125 232.292969 421.339844 231.445312 423.921875 235.480469 C 426.503906 239.519531 422 246.929688 413.96875 251.996094 C 405.898438 257.15625 397.3125 258.09375 394.722656 253.960938 C 392.191406 250.019531 396.648438 242.519531 404.722656 237.449219 Z M 404.722656 237.449219 "/><path style=" stroke:none;fill-rule:nonzero;fill:#eaae36;fill-opacity:1;" d="M 455.175781 421.625 C 463.15625 416.464844 471.792969 415.714844 474.417969 419.65625 C 476.953125 423.78125 472.445312 431.097656 464.46875 436.167969 C 456.394531 441.421875 447.757812 442.265625 445.226562 438.226562 C 442.695312 434.195312 447.105469 426.78125 455.175781 421.625 Z M 455.175781 421.625 "/><path style=" stroke:none;fill-rule:nonzero;fill:#eaae36;fill-opacity:1;" d="M 325.257812 244.300781 C 333.238281 239.132812 341.875 238.386719 344.503906 242.328125 C 347.039062 246.457031 342.53125 253.777344 334.550781 258.84375 C 326.480469 264.09375 317.839844 264.941406 315.308594 260.90625 C 312.773438 256.871094 317.183594 249.460938 325.257812 244.300781 Z M 325.257812 244.300781 "/></g></svg>