<svg xmlns="http://www.w3.org/2000/svg" xmlns:xlink="http://www.w3.org/1999/xlink" width="1080" zoomAndPan="magnify" viewBox="0 0 810 809.999993" height="1080" preserveAspectRatio="xMidYMid meet" version="1.2"><defs><clipPath id="5736ebda4c"><path d="M 511.441406 376.117188 L 724.894531 376.117188 L 724.894531 561 L 511.441406 561 Z M 511.441406 376.117188 "/></clipPath><clipPath id="a310360cd8"><path d="M 84.710938 342 L 298 342 L 298 527 L 84.710938 527 Z M 84.710938 342 "/></clipPath><clipPath id="04832047dd"><path d="M 308 708 L 362 708 L 362 728.792969 L 308 728.792969 Z M 308 708 "/></clipPath><clipPath id="46460e6e1a"><path d="M 379.507812 709.207031 L 432.816406 709.207031 L 432.816406 728.792969 L 379.507812 728.792969 Z M 379.507812 709.207031 "/></clipPath><clipPath id="f8083400e7"><path d="M 451 709.207031 L 504 709.207031 L 504 728.792969 L 451 728.792969 Z M 451 709.207031 "/></clipPath></defs><g id="b8da912ed0"><path style=" stroke:none;fill-rule:nonzero;fill:#8cac27;fill-opacity:1;" d="M 432.425781 431.1875 L 432.425781 342.109375 C 432.425781 319.351562 439.382812 307.339844 438.742188 295.320312 C 438.121094 283.316406 429.265625 283.945312 429.265625 283.945312 L 383.140625 283.945312 C 383.140625 283.945312 374.289062 283.316406 373.652344 295.320312 C 373.023438 307.339844 379.984375 319.351562 379.984375 342.109375 L 379.984375 431.1875 C 379.984375 453.945312 373.023438 465.957031 373.652344 477.96875 C 374.289062 489.988281 383.140625 489.351562 383.140625 489.351562 L 429.265625 489.351562 C 429.265625 489.351562 438.121094 489.988281 438.742188 477.96875 C 439.382812 465.957031 432.425781 453.945312 432.425781 431.1875 "/><path style=" stroke:none;fill-rule:nonzero;fill:#8cac27;fill-opacity:1;" d="M 431.792969 117.289062 C 435.988281 124.519531 428.058594 136.957031 414.070312 145.078125 C 400.082031 153.191406 385.34375 153.914062 381.144531 146.683594 C 376.949219 139.460938 384.882812 127.023438 398.875 118.902344 C 412.855469 110.785156 427.597656 110.066406 431.792969 117.289062 "/><path style=" stroke:none;fill-rule:nonzero;fill:#8cac27;fill-opacity:1;" d="M 432.425781 157.972656 L 432.425781 138.394531 C 428.570312 143.03125 423.382812 147.339844 417.402344 150.816406 C 408.789062 155.8125 400.09375 158.308594 392.710938 158.308594 C 387.714844 158.308594 383.328125 157.15625 379.984375 154.882812 L 379.984375 219.230469 C 379.984375 241.996094 373.023438 254.003906 373.652344 266.015625 C 374.289062 278.03125 383.140625 277.402344 383.140625 277.402344 L 429.265625 277.402344 C 429.265625 277.402344 438.121094 278.03125 438.742188 266.015625 C 439.382812 254.003906 432.425781 241.996094 432.425781 219.230469 L 432.425781 157.972656 "/><path style=" stroke:none;fill-rule:nonzero;fill:#8cac27;fill-opacity:1;" d="M 361.273438 468.175781 L 361.273438 379.097656 C 361.273438 356.339844 368.234375 344.328125 367.597656 332.316406 C 366.96875 320.296875 358.113281 320.933594 358.113281 320.933594 L 311.984375 320.933594 C 311.984375 320.933594 303.136719 320.296875 302.5 332.316406 C 301.867188 344.328125 308.828125 356.339844 308.828125 379.097656 L 308.828125 468.175781 C 308.828125 490.941406 301.867188 502.953125 302.5 514.964844 C 303.136719 526.980469 311.984375 526.347656 311.984375 526.347656 L 358.113281 526.347656 C 358.113281 526.347656 366.96875 526.980469 367.597656 514.964844 C 368.234375 502.953125 361.273438 490.941406 361.273438 468.175781 "/><path style=" stroke:none;fill-rule:nonzero;fill:#8cac27;fill-opacity:1;" d="M 360.644531 154.285156 C 364.839844 161.507812 356.902344 173.945312 342.914062 182.066406 C 328.929688 190.183594 314.195312 190.902344 309.996094 183.679688 C 305.800781 176.449219 313.734375 164.011719 327.71875 155.890625 C 341.707031 147.773438 356.449219 147.054688 360.644531 154.285156 "/><path style=" stroke:none;fill-rule:nonzero;fill:#8cac27;fill-opacity:1;" d="M 361.273438 194.960938 L 361.273438 175.382812 C 357.425781 180.019531 352.230469 184.335938 346.25 187.804688 C 337.632812 192.808594 328.9375 195.289062 321.566406 195.289062 C 316.5625 195.289062 312.179688 194.144531 308.828125 191.875 L 308.828125 256.21875 C 308.828125 278.984375 301.867188 290.996094 302.5 303.007812 C 303.136719 315.019531 311.984375 314.390625 311.984375 314.390625 L 358.113281 314.390625 C 358.113281 314.390625 366.96875 315.019531 367.597656 303.007812 C 368.234375 290.996094 361.273438 278.984375 361.273438 256.21875 L 361.273438 194.960938 "/><path style=" stroke:none;fill-rule:nonzero;fill:#8cac27;fill-opacity:1;" d="M 503.574219 499.476562 L 503.574219 410.398438 C 503.574219 387.640625 510.535156 375.628906 509.898438 363.617188 C 509.269531 351.597656 500.414062 352.234375 500.414062 352.234375 L 454.289062 352.234375 C 454.289062 352.234375 445.4375 351.597656 444.804688 363.617188 C 444.171875 375.628906 451.128906 387.640625 451.128906 410.398438 L 451.128906 499.476562 C 451.128906 522.242188 444.171875 534.253906 444.804688 546.265625 C 445.4375 558.277344 454.289062 557.648438 454.289062 557.648438 L 500.414062 557.648438 C 500.414062 557.648438 509.269531 558.277344 509.898438 546.265625 C 510.535156 534.253906 503.574219 522.242188 503.574219 499.476562 "/><path style=" stroke:none;fill-rule:nonzero;fill:#8cac27;fill-opacity:1;" d="M 502.945312 185.585938 C 507.140625 192.808594 499.207031 205.246094 485.214844 213.367188 C 471.230469 221.484375 456.488281 222.203125 452.292969 214.980469 C 448.097656 207.75 456.035156 195.3125 470.023438 187.191406 C 484.007812 179.078125 498.753906 178.355469 502.945312 185.585938 "/><path style=" stroke:none;fill-rule:nonzero;fill:#8cac27;fill-opacity:1;" d="M 503.574219 226.261719 L 503.574219 206.683594 C 499.726562 211.320312 494.53125 215.636719 488.550781 219.105469 C 479.941406 224.109375 471.238281 226.597656 463.867188 226.597656 C 458.867188 226.597656 454.480469 225.445312 451.128906 223.175781 L 451.128906 287.519531 C 451.128906 310.285156 444.171875 322.296875 444.804688 334.308594 C 445.4375 346.320312 454.289062 345.691406 454.289062 345.691406 L 500.414062 345.691406 C 500.414062 345.691406 509.269531 346.320312 509.898438 334.308594 C 510.535156 322.296875 503.574219 310.285156 503.574219 287.519531 L 503.574219 226.261719 "/><g clip-rule="nonzero" clip-path="url(#5736ebda4c)"><path style=" stroke:none;fill-rule:nonzero;fill:#416d2b;fill-opacity:1;" d="M 511.898438 560.988281 C 511.898438 560.988281 559.355469 422.785156 724.894531 376.574219 C 724.894531 376.574219 685.878906 498.441406 511.898438 560.988281 "/></g><path style=" stroke:none;fill-rule:nonzero;fill:#416d2b;fill-opacity:1;" d="M 514.042969 535.742188 C 514.042969 535.742188 498.703125 464.308594 557.6875 401.824219 C 557.6875 401.824219 572.417969 464.078125 514.042969 535.742188 "/><g clip-rule="nonzero" clip-path="url(#a310360cd8)"><path style=" stroke:none;fill-rule:nonzero;fill:#416d2b;fill-opacity:1;" d="M 297.984375 526.839844 C 297.984375 526.839844 250.535156 388.640625 84.992188 342.429688 C 84.992188 342.429688 124.011719 464.292969 297.984375 526.839844 "/></g><path style=" stroke:none;fill-rule:nonzero;fill:#416d2b;fill-opacity:1;" d="M 295.84375 501.59375 C 295.84375 501.59375 311.179688 430.160156 252.199219 367.675781 C 252.199219 367.675781 237.46875 429.9375 295.84375 501.59375 "/><path style=" stroke:none;fill-rule:nonzero;fill:#8cac27;fill-opacity:1;" d="M 451.128906 719.289062 L 503.574219 719.289062 L 503.574219 621.886719 C 503.574219 599.117188 510.535156 587.109375 509.898438 575.097656 C 509.269531 563.085938 500.414062 563.714844 500.414062 563.714844 L 454.289062 563.714844 C 454.289062 563.714844 445.4375 563.085938 444.804688 575.097656 C 444.171875 587.109375 451.128906 599.117188 451.128906 621.886719 L 451.128906 719.289062 "/><path style=" stroke:none;fill-rule:nonzero;fill:#8cac27;fill-opacity:1;" d="M 379.984375 614.855469 L 379.984375 719.289062 L 432.425781 719.289062 L 432.425781 553.59375 C 432.425781 530.832031 439.382812 518.820312 438.742188 506.804688 C 438.121094 494.792969 429.265625 495.425781 429.265625 495.425781 L 383.140625 495.425781 C 383.140625 495.425781 374.289062 494.792969 373.652344 506.804688 C 373.023438 518.820312 379.984375 530.832031 379.984375 553.59375 L 379.984375 614.855469 "/><path style=" stroke:none;fill-rule:nonzero;fill:#8cac27;fill-opacity:1;" d="M 308.828125 719.289062 L 361.273438 719.289062 L 361.273438 590.582031 C 361.273438 567.820312 368.234375 555.808594 367.597656 543.796875 C 366.96875 531.785156 358.113281 532.414062 358.113281 532.414062 L 311.984375 532.414062 C 311.984375 532.414062 303.136719 531.785156 302.5 543.796875 C 301.867188 555.808594 308.828125 567.820312 308.828125 590.582031 L 308.828125 719.289062 "/><g clip-rule="nonzero" clip-path="url(#04832047dd)"><path style=" stroke:none;fill-rule:nonzero;fill:#8cac27;fill-opacity:1;" d="M 361.207031 718.679688 C 361.207031 724.046875 349.476562 728.390625 335.003906 728.390625 C 320.539062 728.390625 308.804688 724.046875 308.804688 718.679688 C 308.804688 713.324219 320.539062 708.980469 335.003906 708.980469 C 349.476562 708.980469 361.207031 713.324219 361.207031 718.679688 "/></g><g clip-rule="nonzero" clip-path="url(#46460e6e1a)"><path style=" stroke:none;fill-rule:nonzero;fill:#8cac27;fill-opacity:1;" d="M 432.347656 719.132812 C 432.347656 724.5 420.617188 728.84375 406.152344 728.84375 C 391.679688 728.84375 379.953125 724.5 379.953125 719.132812 C 379.953125 713.777344 391.679688 709.425781 406.152344 709.425781 C 420.617188 709.425781 432.347656 713.777344 432.347656 719.132812 "/></g><g clip-rule="nonzero" clip-path="url(#f8083400e7)"><path style=" stroke:none;fill-rule:nonzero;fill:#8cac27;fill-opacity:1;" d="M 503.492188 719.023438 C 503.492188 724.390625 491.769531 728.730469 477.292969 728.730469 C 462.824219 728.730469 451.097656 724.390625 451.097656 719.023438 C 451.097656 713.660156 462.824219 709.3125 477.292969 709.3125 C 491.769531 709.3125 503.492188 713.660156 503.492188 719.023438 "/></g></g></svg>